<svg id="Ebene_1" data-name="Ebene 1" xmlns="http://www.w3.org/2000/svg" viewBox="0 0 228 228"><defs><style>.cls-1{fill:#ef5669;}.cls-2{fill:#8e2044;}.cls-3{fill:#1800aa;}.cls-4{fill:#2e0055;}.cls-5{fill:#22002a;}.cls-6{fill:#000bff;}.cls-7{fill:#bf5c00;}.cls-8{fill:#4aaa00;}.cls-9{fill:#007f54;}.cls-10{fill:#aa007b;}.cls-11{fill:#00c7e9;}.cls-12,.cls-19{fill:none;stroke-miterlimit:10;stroke-width:0.25px;}.cls-12{stroke:#020202;}.cls-13{fill:#baff15;}.cls-14{fill:#940074;}.cls-15{fill:#adff3f;}.cls-16{fill:#00a3d4;}.cls-17{fill:#6a0;}.cls-18{fill:#bfbe00;}.cls-19{stroke:#2e8924;}.cls-20{fill:#053;}.cls-21{fill:#ff8900;}</style></defs><title>graph</title><path class="cls-1" d="M235.49,95.89l-96.24,57.86-.06,0h0l0,0h0l-.28.17-.55.33-.3.18.26-.33.06-.07.22-.29.11-.13.24-.3,69.67-87.92A114.57,114.57,0,0,1,235.49,95.89Z" transform="translate(-24 -41)"/><path class="cls-2" d="M245.28,116.35,139.19,153.79l96.3-57.9A112.88,112.88,0,0,1,245.28,116.35Z" transform="translate(-24 -41)"/><path class="cls-3" d="M218.69,235.52a113.9,113.9,0,0,1-47,28.41L138.3,154.32l.55-.33,1.43.82h0Z" transform="translate(-24 -41)"/><path class="cls-4" d="M171.7,263.93A113.69,113.69,0,0,1,138,269V154.5l.3-.18Z" transform="translate(-24 -41)"/><path class="cls-5" d="M137.89,154.23l-.27.62L59,236.07l-.57.58a114,114,0,0,1-18.39-23.27q-2.74-4.59-5-9.46l.69-.33,102-49.26Z" transform="translate(-24 -41)"/><path class="cls-6" d="M138,153.66V154l-.11.25-.2.1-102,49.26-.69.33a108.44,108.44,0,0,1-4.8-11.68,110.86,110.86,0,0,1-3.16-10.9l108.83-27.15Z" transform="translate(-24 -41)"/><path class="cls-7" d="M136.11,150.81,58.2,73.59,59.83,72A113.81,113.81,0,0,1,94.35,49.66Z" transform="translate(-24 -41)"/><path class="cls-8" d="M138,41V152.69l-.12-.12-.42-.43h0l-.15-.15-.92-.91-.26-.26L94.35,49.66a112.33,112.33,0,0,1,10.88-3.88A114,114,0,0,1,138,41Z" transform="translate(-24 -41)"/><path class="cls-9" d="M138,153.1v.56l-2.11.53L27.06,181.34a114.74,114.74,0,0,1-2-42.1c0-.19.05-.39.08-.58L135.63,152.8,137,153l.22,0h0l.63.09H138Z" transform="translate(-24 -41)"/><path class="cls-10" d="M138,152.69v.41h-.14l-.63-.09h0l-.22,0-1.35-.17L25.17,138.66a111.48,111.48,0,0,1,3.36-15.56,114.81,114.81,0,0,1,3.9-11.2l.16.06L136.24,152l.45.18-.24-.58-.34-.83.26.26.92.91.15.15h0l.42.43Z" transform="translate(-24 -41)"/><path class="cls-11" d="M237.38,210.88a114.29,114.29,0,0,1-18.69,24.64l-78.4-80.7Z" transform="translate(-24 -41)"/><line class="cls-12" x1="115.06" y1="112.39" x2="114" y2="112.66"/><path class="cls-13" d="M208.56,65.46l-69.72,88h0l-.42.53-.24.3h0l-.17.21V41A113.5,113.5,0,0,1,208.56,65.46Z" transform="translate(-24 -41)"/><path class="cls-14" d="M138,156.2V269a114.33,114.33,0,0,1-24.51-2.64Z" transform="translate(-24 -41)"/><line class="cls-12" x1="114.19" y1="114.35" x2="114" y2="115.2"/><polyline class="cls-12" points="112.69 111.22 112.95 111.83 113.02 112.03 113.04 112.05 113.26 112.61 113.29 112.66 113.34 112.8"/><line class="cls-12" x1="114.08" y1="112.11" x2="114" y2="112.1"/><polyline class="cls-12" points="114.42 111.89 114.28 111.83 114.23 111.82 114 111.73 113.66 111.59 113.64 111.59 113.45 111.51 112.69 111.22"/><path class="cls-15" d="M136.69,152.22l-.45-.18L32.59,112l-.16-.06A114.31,114.31,0,0,1,58.2,73.59l77.91,77.22.34.83Z" transform="translate(-24 -41)"/><line class="cls-12" x1="114.03" y1="111.72" x2="114" y2="111.69"/><path class="cls-16" d="M248.24,184.11a113.39,113.39,0,0,1-10.86,26.77l-97.09-56.06h0l-1.43-.82.28-.17h0l.24.07Z" transform="translate(-24 -41)"/><line class="cls-12" x1="114.58" y1="112.9" x2="113.89" y2="113.23"/><path class="cls-17" d="M252,155a113.6,113.6,0,0,1-3.76,29.11l-109.1-30.29.05,0,106.09-37.44A113.72,113.72,0,0,1,252,155Z" transform="translate(-24 -41)"/><path class="cls-18" d="M137.62,154.85l-.86,2L78.13,252A113.54,113.54,0,0,1,67,244.15c-3-2.36-5.79-4.86-8.49-7.5l.57-.58Z" transform="translate(-24 -41)"/><polyline class="cls-19" points="113.62 113.85 114.04 113.42 114.86 112.57"/><path class="cls-20" d="M136.76,156.83,92.29,258.63l-.3.69A112.15,112.15,0,0,1,78.13,252Z" transform="translate(-24 -41)"/><polyline class="cls-12" points="112.76 115.83 113.74 114.23 114.4 113.16"/><path class="cls-21" d="M138,154v2.22L113.49,266.36a113,113,0,0,1-21.5-7l.3-.69Z" transform="translate(-24 -41)"/><line class="cls-12" x1="114.03" y1="112.91" x2="114" y2="112.98"/></svg>