<?xml version="1.0" encoding="utf-8"?>
<!-- Generator: Adobe Illustrator 22.1.0, SVG Export Plug-In . SVG Version: 6.00 Build 0)  -->
<svg version="1.1" id="Ebene_1" xmlns="http://www.w3.org/2000/svg" xmlns:xlink="http://www.w3.org/1999/xlink" x="0px" y="0px"
	 viewBox="0 0 1280 800" style="enable-background:new 0 0 1280 800;" xml:space="preserve">
<style type="text/css">
	.st0{fill:#C4C3C2;}
	.st1{fill:#FFFFFF;}
	.st2{fill:#050505;stroke:#C4C3C2;stroke-width:1.5249;stroke-miterlimit:10;}
	.st3{fill:none;stroke:#C4C3C2;stroke-width:2;stroke-miterlimit:10;}
</style>
<g>
	<g>
		<g>
			<path class="st0" d="M89.9,205.6c1.8-6.2,2.4-12.9,3.4-19.2c1.5-9.1,3.1-18.2,5.7-27c4.6-15.9,14.1-36.3,34.1-28.2
				c-0.3-0.5-0.5-0.9-0.8-1.4c-3,17.3-12,31.9-22.3,45.8c-9,12.2-18.6,24.3-23.3,39c-0.4,1.4,1.7,2,2.2,0.6
				c4.9-15.3,15.4-27.8,24.6-40.6c9.7-13.4,18.1-27.6,20.9-44.2c0.1-0.7-0.2-1.1-0.8-1.4c-32-12.9-39.4,37.5-42.7,58
				c-1,6-1.5,12.2-3.2,18C87.3,206.4,89.5,207,89.9,205.6L89.9,205.6z"/>
		</g>
	</g>
	<g>
		<g>
			<path class="st0" d="M91.1,274.7c9.7-11.6,22.8-19.1,35.2-27.5c12.7-8.6,23.9-18.7,31.5-32.2c0.2-0.4,0.2-1-0.2-1.4
				c-31.3-28-56.3,37.6-69.3,55.8c-0.8,1.2,1.1,2.3,1.9,1.1c5-7.1,8.7-15.2,13-22.7c5.8-10.1,12.1-20.3,20.5-28.6
				c7.1-7.1,17-13.2,27-7.9c1,0.6,3,1.5,3.7,2.5c1.1,1.5,0.1,2.4-1,4.1c-2.3,3.7-5,7.2-8,10.4c-5.5,6-12,11.1-18.7,15.8
				c-13,9-27,16.7-37.3,29C88.6,274.2,90.2,275.8,91.1,274.7L91.1,274.7z"/>
		</g>
	</g>
	<g>
		<g>
			<path class="st0" d="M88.9,235.3c10.8-17.5,18.8-37.6,34.6-51.5c7.7-6.8,17.5-10.5,26.8-4.1c2.3,1.6,2.5,1.5,1.3,3.9
				c-0.8,1.6-2,3.1-3,4.5c-2.6,3.7-5.6,7.1-8.9,10.3c-5.3,5.2-11.3,9.7-17.5,13.9c-12.5,8.5-25.7,16-35.4,27.7
				c-0.9,1.1,0.7,2.7,1.6,1.6c9.7-11.6,22.7-19,35-27.4c12.8-8.7,24-18.7,31.7-32.3c0.2-0.4,0.2-1-0.2-1.4
				c-30.2-27-56.2,34.8-67.9,53.6C86.2,235.4,88.2,236.5,88.9,235.3L88.9,235.3z"/>
		</g>
	</g>
	<g>
		<g>
			<path class="st0" d="M91.3,298.6c11.5-15.3,20.7-32.4,35.4-45c6.8-5.9,16.2-11.6,25.5-7.8c2.1,0.9,4.7,2.3,6.2,4.1
				c1.3,1.6,1.1,1.4-0.3,3.4c-1.6,2.2-3.4,4.2-5.2,6.2c-5.5,5.8-11.9,10.7-18.7,14.9c-14.9,9.2-32.2,15.4-44.7,28
				c-1,1,0.6,2.6,1.6,1.6c10.9-10.9,25.6-17,38.9-24.5c12.6-7.2,23.8-15.9,32.2-27.9c0.3-0.4,0.1-1-0.2-1.4
				c-27.5-29.6-59.2,29.5-72.5,47.2C88.5,298.6,90.4,299.7,91.3,298.6L91.3,298.6z"/>
		</g>
	</g>
	<g>
		<g>
			<path class="st0" d="M91.5,313.7c13.5-8.4,28.9-11.3,43.9-15.9c13.9-4.3,26.8-10.4,37.6-20.3c0.4-0.3,0.4-0.9,0.2-1.4
				c-21.5-36-64.9,18.6-82.8,31.8c-1.1,0.9,0,2.8,1.1,1.9c10.6-7.9,19.4-18.2,29.7-26.5c10.3-8.3,28.4-22.6,42.3-14.4
				c2.4,1.4,7.5,5.2,6.6,8.2c-0.5,1.8-5.2,4.2-6.6,5.2c-1.4,1-2.8,1.9-4.2,2.7c-7.6,4.7-16,7.9-24.6,10.5
				c-15.2,4.6-30.8,7.7-44.5,16.2C89.2,312.5,90.3,314.4,91.5,313.7L91.5,313.7z"/>
		</g>
	</g>
	<g>
		<g>
			<path class="st0" d="M95,340c8-13.5,14.8-27.7,24.6-40.1c4.8-6.1,10.3-12.2,17.4-15.5c4.2-2,8.8-2.6,13.3-1.1
				c1.8,0.6,3.5,1.5,5,2.5c3.4,2.3,2.4,2.5,0.5,5.3c-15.3,23.9-43.4,32.5-62,52.8c-1,1.1,0.6,2.7,1.6,1.6
				c9.9-10.8,22.6-17.9,34.5-26.1c12.2-8.4,22.9-18.3,30.3-31.3c0.2-0.4,0.2-1-0.2-1.4c-29.1-27.1-56,33.6-67,52.1
				C92.4,340.1,94.3,341.2,95,340L95,340z"/>
		</g>
	</g>
	<g>
		<g>
			<path class="st0" d="M95,367.6c8-13.5,14.8-27.7,24.6-40.1c4.8-6.1,10.3-12.2,17.4-15.5c4.2-2,8.8-2.6,13.3-1.1
				c1.8,0.6,3.5,1.5,5,2.5c3.4,2.3,2.4,2.5,0.5,5.3c-15.3,23.9-43.4,32.5-62,52.8c-1,1.1,0.6,2.7,1.6,1.6
				c9.9-10.8,22.6-17.9,34.5-26.1c12.2-8.4,22.9-18.3,30.3-31.3c0.2-0.4,0.2-1-0.2-1.4c-29.1-27-56,33.6-67,52.1
				C92.3,367.7,94.3,368.9,95,367.6L95,367.6z"/>
		</g>
	</g>
	<g>
		<g>
			<path class="st0" d="M95,392.5c8-13.5,14.8-27.7,24.6-40.1c4.8-6.1,10.3-12.2,17.4-15.5c4.2-2,8.8-2.6,13.3-1.1
				c1.8,0.6,3.5,1.5,5,2.5c3.4,2.3,2.4,2.5,0.5,5.3c-15.3,23.9-43.4,32.5-62,52.8c-1,1.1,0.6,2.7,1.6,1.6
				c9.9-10.8,22.6-17.9,34.5-26.1c12.2-8.4,22.9-18.3,30.3-31.3c0.2-0.4,0.2-1-0.2-1.4c-29.1-27-56,33.6-67,52.1
				C92.3,392.6,94.3,393.7,95,392.5L95,392.5z"/>
		</g>
	</g>
	<g>
		<g>
			<path class="st0" d="M96.7,449.6c9.7-11.6,22.8-19.1,35.2-27.5c12.7-8.6,23.9-18.7,31.5-32.2c0.2-0.4,0.2-1-0.2-1.4
				c-31.4-28-56.3,37.6-69.3,55.8c-0.8,1.2,1.1,2.3,1.9,1.1c5.1-7.1,8.7-15.2,13-22.7c5.8-10.1,12.1-20.3,20.5-28.6
				c7.1-7.1,17-13.2,27-7.9c1,0.6,3,1.5,3.7,2.5c1.1,1.5,0.1,2.4-1,4.1c-2.3,3.7-5,7.2-8,10.4c-5.5,6-12,11.1-18.7,15.8
				c-13,9-27,16.7-37.3,29C94.1,449.1,95.7,450.7,96.7,449.6L96.7,449.6z"/>
		</g>
	</g>
	<g>
		<g>
			<path class="st0" d="M96.3,410.2c10.8-17.5,18.8-37.6,34.6-51.5c7.7-6.8,17.5-10.5,26.8-4.1c2.3,1.6,2.5,1.5,1.3,3.9
				c-0.8,1.6-2,3.1-3,4.5c-2.6,3.7-5.6,7.1-8.9,10.3c-5.3,5.2-11.3,9.7-17.5,13.9c-12.5,8.5-25.6,16-35.4,27.7
				c-0.9,1.1,0.7,2.7,1.6,1.6c9.7-11.5,22.7-19,35-27.4c12.8-8.7,24-18.7,31.7-32.3c0.2-0.4,0.2-1-0.2-1.4
				c-30.2-27-56.2,34.8-67.9,53.6C93.6,410.3,95.5,411.5,96.3,410.2L96.3,410.2z"/>
		</g>
	</g>
	<g>
		<g>
			<path class="st0" d="M96.8,473.6c11.5-15.3,20.7-32.4,35.4-45c6.8-5.9,16.2-11.6,25.5-7.8c2.1,0.9,4.7,2.3,6.2,4.1
				c1.3,1.6,1.1,1.4-0.3,3.4c-1.6,2.2-3.4,4.2-5.2,6.2c-5.5,5.8-11.9,10.7-18.7,14.9c-14.8,9.2-32.2,15.4-44.7,28
				c-1,1,0.6,2.6,1.6,1.6c10.8-11,25.7-17,38.9-24.5c12.6-7.2,23.8-15.9,32.2-27.9c0.3-0.4,0.1-1-0.2-1.4
				c-27.5-29.6-59.2,29.5-72.5,47.2C94,473.6,96,474.7,96.8,473.6L96.8,473.6z"/>
		</g>
	</g>
	<g>
		<g>
			<path class="st0" d="M97.1,488.6c13.5-8.4,29-11.3,43.9-15.9c13.9-4.3,26.8-10.4,37.6-20.3c0.4-0.3,0.4-0.9,0.2-1.4
				c-21.5-36-64.9,18.6-82.8,31.8c-1.1,0.9,0,2.8,1.1,1.9c10.6-7.9,19.4-18.2,29.7-26.5c10.3-8.3,28.4-22.6,42.3-14.4
				c2.4,1.4,7.5,5.1,6.6,8.2c-0.5,1.8-5.2,4.2-6.6,5.2c-1.4,1-2.8,1.9-4.2,2.7c-7.6,4.7-16,7.9-24.6,10.5
				c-15.2,4.6-30.8,7.7-44.5,16.2C94.7,487.5,95.8,489.4,97.1,488.6L97.1,488.6z"/>
		</g>
	</g>
	<g>
		<g>
			<path class="st0" d="M96.9,515c8-13.5,14.8-27.7,24.6-40.1c4.8-6.1,10.3-12.2,17.4-15.5c4.2-2,8.8-2.6,13.3-1.1
				c1.8,0.6,3.5,1.5,5,2.5c3.4,2.3,2.4,2.5,0.5,5.3c-15.3,23.9-43.4,32.5-62,52.8c-1,1.1,0.6,2.7,1.6,1.6
				c9.9-10.8,22.6-17.9,34.5-26.1c12.2-8.4,22.9-18.3,30.3-31.3c0.2-0.4,0.2-1-0.2-1.4c-29.2-27-56,33.6-67,52.1
				C94.2,515.1,96.1,516.2,96.9,515L96.9,515z"/>
		</g>
	</g>
	<g>
		<g>
			<path class="st0" d="M98.7,542.6c8-13.5,14.8-27.7,24.6-40.1c4.8-6.1,10.3-12.2,17.4-15.5c4.2-2,8.8-2.6,13.3-1.1
				c1.8,0.6,3.5,1.5,5,2.5c3.4,2.3,2.4,2.5,0.5,5.3c-15.3,23.9-43.4,32.5-62,52.8c-1,1.1,0.6,2.7,1.6,1.6
				c9.9-10.8,22.6-17.9,34.5-26.1c12.2-8.4,22.9-18.3,30.3-31.3c0.2-0.4,0.2-1-0.2-1.4c-29.3-26.9-55.9,33.5-67,52.1
				C96,542.7,98,543.8,98.7,542.6L98.7,542.6z"/>
		</g>
	</g>
	<g>
		<g>
			<path class="st0" d="M98.7,567.5c8-13.5,14.8-27.7,24.6-40.1c4.8-6.1,10.3-12.2,17.4-15.5c4.2-2,8.8-2.6,13.3-1.1
				c1.8,0.6,3.5,1.5,5,2.5c3.4,2.3,2.4,2.5,0.5,5.3c-15.3,23.9-43.4,32.5-62,52.8c-1,1.1,0.6,2.7,1.6,1.6
				c9.9-10.8,22.6-17.9,34.5-26.1c12.2-8.4,22.9-18.3,30.3-31.3c0.2-0.4,0.2-1-0.2-1.4c-29.2-27-56,33.5-67,52.1
				C96,567.6,98,568.7,98.7,567.5L98.7,567.5z"/>
		</g>
	</g>
	<g>
		<g>
			<path class="st0" d="M98.7,592.3c8-13.5,14.8-27.7,24.6-40.1c4.8-6.1,10.3-12.2,17.4-15.5c4.2-2,8.8-2.6,13.3-1.1
				c1.8,0.6,3.5,1.5,5,2.5c3.4,2.3,2.4,2.5,0.5,5.3c-15.3,23.9-43.4,32.5-62,52.8c-1,1.1,0.6,2.7,1.6,1.6
				c9.9-10.8,22.6-17.9,34.5-26.1c12.2-8.4,22.9-18.3,30.3-31.3c0.2-0.4,0.2-1-0.2-1.4c-29.2-27-56,33.6-67,52.1
				C96,592.4,98,593.6,98.7,592.3L98.7,592.3z"/>
		</g>
	</g>
	<g>
		<g>
			<path class="st0" d="M98.7,617.2c8-13.5,14.8-27.7,24.6-40.1c4.8-6.1,10.3-12.2,17.4-15.5c4.2-2,8.8-2.6,13.3-1.1
				c1.8,0.6,3.5,1.5,5,2.5c3.4,2.3,2.4,2.5,0.5,5.3c-15.3,23.9-43.4,32.5-62,52.8c-1,1.1,0.6,2.7,1.6,1.6
				c9.9-10.8,22.6-17.9,34.5-26.1c12.2-8.4,22.9-18.3,30.3-31.3c0.2-0.4,0.2-1-0.2-1.4c-29.2-26.9-56,33.5-67,52.1
				C96,617.3,98,618.4,98.7,617.2L98.7,617.2z"/>
		</g>
	</g>
	<g>
		<g>
			<path class="st0" d="M94.4,443.6c-20-18.3-48.2-24.3-65.7-46c-1-1.2-1.9-2.4-2.7-3.6c-0.7-0.5-0.6-1,0.2-1.3
				c0.5-1.6,4-3.3,5.5-4.1c3.9-2,8.2-2.2,12.4-1.1c8.6,2.2,15.9,9.3,21.7,15.7c10.3,11.2,18.1,24.2,26.9,36.5c0.8,1.2,2.8,0,1.9-1.1
				c-12.6-17.5-44.9-75.5-71.4-46c-0.3,0.3-0.5,0.9-0.2,1.4c8.5,12.3,20,21.2,32.9,28.5c12.6,7.1,26,13.1,36.8,22.9
				C93.9,446.1,95.5,444.5,94.4,443.6L94.4,443.6z"/>
		</g>
	</g>
	<g>
		<g>
			<path class="st0" d="M96.6,468.3c-20-18.3-48.2-24.3-65.7-46c-1-1.2-1.9-2.4-2.7-3.6c-0.7-0.5-0.6-1,0.2-1.3
				c0.5-1.6,4-3.3,5.5-4.1c3.9-2,8.2-2.2,12.4-1.1c8.6,2.2,15.9,9.3,21.7,15.7c10.3,11.2,18.1,24.2,26.9,36.5c0.8,1.2,2.8,0,1.9-1.1
				c-12.7-17.5-44.8-75.5-71.4-46c-0.3,0.3-0.5,0.9-0.2,1.4c8.5,12.3,20,21.2,32.9,28.5c12.6,7.1,26,13.1,36.8,22.9
				C96.1,470.9,97.7,469.3,96.6,468.3L96.6,468.3z"/>
		</g>
	</g>
	<g>
		<g>
			<path class="st0" d="M97.1,516.1c-14.5-16.8-45.3-79.9-73.9-49.3c-0.3,0.3-0.5,0.9-0.2,1.4c8.8,12.7,20.8,21.8,34.2,29.2
				c13.1,7.3,26.8,13.5,37.5,24.2c1,1,2.6-0.6,1.6-1.6c-10.2-10.2-23.1-16.5-35.6-23.3c-7-3.8-13.9-7.9-20.1-12.8
				c-3-2.4-5.9-5.1-8.6-7.9c-1.2-1.3-2.4-2.7-3.5-4c-1.8-2.3-4-3.6-1.6-5.7c19.2-17.2,41.7,13.6,51.5,27.3
				c5.7,7.9,10.6,16.8,17,24.2C96.4,518.8,98,517.2,97.1,516.1L97.1,516.1z"/>
		</g>
	</g>
	<g>
		<g>
			<path class="st0" d="M96.2,486.7c-9.5-9.5-21.3-15.6-33-21.9c-6.5-3.5-12.9-7.1-18.9-11.3c-3-2.2-5.9-4.5-8.7-7.1
				c-2.8-2.6-8.3-7.1-9.5-10.7c-0.5-1.7-0.9-1.5,0.7-2.9c1.1-1,2.3-1.9,3.6-2.7c2.2-1.3,4.7-2.1,7.3-2.3c4.8-0.3,9.4,1.5,13.4,3.9
				c9.7,5.8,17.3,15.2,24,24.1c6.4,8.5,11.9,17.7,18.4,26.3c0.9,1.1,2.8,0,1.9-1.1c-13.3-17.7-44.8-77-72.4-47.5
				c-0.3,0.3-0.5,0.9-0.2,1.4c8.9,12.8,20.9,21.8,34.5,29.3c13,7.2,26.7,13.5,37.3,24.1C95.6,489.3,97.2,487.8,96.2,486.7
				L96.2,486.7z"/>
		</g>
	</g>
	<g>
		<g>
			<path class="st0" d="M98.6,544.1C84,527.6,46.9,472,22.3,503.6c-0.4,0.5-0.4,1.1,0,1.6c9.3,11.1,21.2,18.8,34.4,24.7
				c13.5,6.1,27.7,10.9,39.6,19.8c1.2,0.9,2.3-1.1,1.1-1.9c-11.7-8.7-25.2-13.4-38-19.1c-13.6-6-25.9-13.6-35.5-25.1
				c0,0.5,0,1.1,0,1.6C47,475.4,83.1,530,97,545.7C97.9,546.7,99.5,545.1,98.6,544.1L98.6,544.1z"/>
		</g>
	</g>
	<g>
		<g>
			<path class="st0" d="M99,558.6c-13.4-6.9-27.6-9.3-42.3-12.1c-14.7-2.8-30-8.1-42-17.3c0.1,0.5,0.3,1,0.4,1.5
				c16.6-34.5,64,13.7,81.3,25.3c1.2,0.8,2.3-1.1,1.1-1.9c-18.2-12.2-66.8-61.2-84.4-24.5c-0.3,0.6-0.1,1.1,0.4,1.5
				c5.1,3.9,10.6,6.5,16.3,9.1c7.1,3.2,14.2,5.8,21.9,7.5c15.9,3.4,31.4,5.3,46,12.7C99.2,561.2,100.3,559.2,99,558.6L99,558.6z"/>
		</g>
	</g>
	<g>
		<g>
			<path class="st0" d="M98.4,591c-20-18.3-48.2-24.3-65.7-46c-1-1.2-1.9-2.4-2.7-3.6c-0.7-0.5-0.6-1,0.2-1.4c0.5-1.6,4-3.3,5.5-4.1
				c3.9-2,8.2-2.2,12.4-1.1c8.6,2.2,15.9,9.3,21.7,15.7c10.3,11.2,18.1,24.2,26.9,36.5c0.8,1.2,2.8,0,1.9-1.1
				c-12.6-17.4-44.9-75.6-71.4-46c-0.3,0.3-0.5,0.9-0.2,1.4c8.5,12.3,20,21.2,32.9,28.5c12.6,7.1,26,13.1,36.8,22.9
				C97.9,593.5,99.5,592,98.4,591L98.4,591z"/>
		</g>
	</g>
	<g>
		<g>
			<path class="st0" d="M99.3,617.1c-10.1-8.6-21.9-14.3-33.4-20.6c-13.4-7.4-25.5-16.2-34.3-28.9c-0.3,0.6-0.6,1.1-1,1.7
				c2.2-0.3,3.5-2.6,5.3-3.8c4-2.8,7.4-3.1,12-2.4c8.6,1.2,14.6,5.8,20.7,11.8c0.8,0.7,1.8,0.1,1.9-0.8c0-0.1,0-0.2,0-0.3
				c-0.6,0.3-1.3,0.5-1.9,0.8C80,585.6,88.4,599.1,97.4,612c0.8,1.2,2.8,0.1,1.9-1.1c-9.1-13.1-17.6-26.7-29.1-37.9
				c-0.8-0.7-1.8-0.1-1.9,0.8c0,0.1,0,0.2,0,0.3c0.6-0.3,1.3-0.5,1.9-0.8C64.6,567.9,58,562,50,561c-3.2-0.4-6.3-1-9.4-0.2
				c-1.5,0.4-3.1,1.1-4.4,1.9c-1,0.6-4.5,4.2-5.5,4.3c-0.8,0.1-1.5,0.9-1,1.7c8,11.5,18.5,20.1,30.6,27.1
				c12.7,7.4,26.3,13.2,37.5,22.8C98.8,619.6,100.4,618,99.3,617.1L99.3,617.1z"/>
		</g>
	</g>
	<g>
		<g>
			<path class="st0" d="M99.8,640.4c-19.9-16-45.8-22.6-62.3-43c-0.2-0.3-3.2-3.4-3.2-4.3c0-1.5,5.2-4.3,6.3-4.9
				c3.1-1.6,6.4-1.8,9.8-1.2c7.9,1.4,14.8,6.7,20.5,12.1c10.7,10.3,18.8,22.9,27.1,35.1c0.8,1.2,2.8,0.1,1.9-1.1
				c-12.3-18.2-42-67.3-67.8-40.9c-0.3,0.3-0.5,1-0.2,1.4c8.1,11.6,18.7,20.3,30.9,27.3c11.9,6.9,24.7,12.5,35.5,21.1
				C99.3,642.8,100.9,641.3,99.8,640.4L99.8,640.4z"/>
		</g>
	</g>
	<g>
		<g>
			<path class="st0" d="M92.2,372.4c-0.1,0.1-0.1,0.1-0.2,0.2c-1,1,0.6,2.6,1.6,1.6c0.1-0.1,0.1-0.1,0.2-0.2
				C94.8,372.9,93.2,371.4,92.2,372.4L92.2,372.4z"/>
		</g>
	</g>
	<g>
		<g>
			<path class="st0" d="M94.8,368.5c-13.2-18-37.9-83.9-69.3-55.8c-0.4,0.3-0.4,0.9-0.2,1.4c9.5,16.9,22.3,31,38.5,41.7
				c5.7,3.8,11.7,7,17.5,10.4c4.4,2.6,9,5.3,12.2,9.4c0.9,1.1,2.5-0.5,1.6-1.6c-5.9-7.5-16-11.5-23.9-16.2
				c-14.2-8.5-26.7-19.2-36.3-32.7c-1.5-2.1-7.8-9.6-6.7-11.8c1.1-2.1,6.1-3.9,8.3-4.5c5.4-1.3,10.8,0.4,15.3,3.3
				c10.5,6.7,17.9,18.2,24.3,28.6c5.8,9.4,10.2,19.9,16.7,28.8C93.7,370.8,95.6,369.7,94.8,368.5L94.8,368.5z"/>
		</g>
	</g>
	<g>
		<g>
			<path class="st0" d="M95,390.1c-4.9-5.5-8.6-12.2-12.8-18.2c-5.8-8.4-12-16.7-19.1-24.1c-5.8-6-12.9-12.2-21.3-14.2
				c-8.1-1.9-15.2,1.5-20.7,7.4c-0.3,0.3-0.5,0.9-0.2,1.4c9.1,13.1,21.5,22.1,35.4,29.7c13.5,7.4,27.6,13.9,38.2,25.3
				c1,1.1,2.6-0.5,1.6-1.6c-10.2-10.9-23.4-17.4-36.3-24.4c-7.2-3.9-14.3-7.9-20.7-13c-3-2.4-5.9-5-8.6-7.8c-1.4-1.5-2.7-3-4-4.6
				c0.5,0.6-2.7-3.1-2.7-3.5c0-1.5-0.1-0.8,1-2.1c7.5-8.8,20-4.6,27.8,1c9.6,7,17.1,16.7,23.9,26.2c5.7,7.9,10.5,16.7,16.9,23.9
				C94.3,392.8,95.9,391.2,95,390.1L95,390.1z"/>
		</g>
	</g>
	<g>
		<g>
			<path class="st0" d="M95.8,406.8c-6.2-4.5-11.5-10.4-17.2-15.6c-7.9-7.2-16-14.3-24.9-20.2c-14-9.4-33.7-16.9-44.2,1.1
				c-0.2,0.4-0.2,1,0.2,1.4c11.7,10.7,25.7,16.9,40.8,21.3c14.8,4.3,30,7.6,43,16.5c1.2,0.8,2.3-1.1,1.1-1.9
				c-13.5-9.3-29.5-12.5-44.9-17.1c-8.6-2.5-17-5.6-24.8-10.1c-1.8-1.1-3.6-2.2-5.4-3.4c-1.7-1.2-6.1-3.4-7-5.6
				c-0.9-2,2.4-4.9,4.2-6.4c8.4-6.8,19.8-2.9,28.2,1.7c10.4,5.6,19.7,13.3,28.4,21.2c7,6.3,13.6,13.7,21.2,19.2
				C95.8,409.5,97,407.6,95.8,406.8L95.8,406.8z"/>
		</g>
	</g>
	<g>
		<g>
			<path class="st0" d="M88.4,219.2c-13.6-13.3-27.9-25.8-41.2-39.4c-6.2-6.4-12.4-13-17.4-20.3c-2.7-4-7.3-10.6-4.8-15.6
				c2.4-4.7,8.8-8.7,14.1-8.7c5.7,0,10.7,3.6,14.6,7.4c10.2,9.9,16.8,23.6,22.1,36.6c2.9,7.2,5.5,14.5,7.4,22
				c1.4,5.3,2.8,10.9,2.5,16.5c-0.1,1.4,2.2,1.4,2.2,0c0.7-12.2-4.8-25.7-9.1-36.8c-5.6-14.2-12.7-29.5-23.9-40.2
				c-8.3-8-19.1-10.8-28.2-2.3c-4.2,3.9-5.7,7.6-3.8,13.2c2.4,6.9,7.5,13,12.2,18.5c15.7,18.4,34.4,33.9,51.6,50.8
				C87.9,221.8,89.5,220.2,88.4,219.2L88.4,219.2z"/>
		</g>
	</g>
	<g>
		<g>
			<path class="st0" d="M89,247.9c-11-6-22.4-11.2-33.6-16.9c-10.5-5.4-22.6-10.9-30.9-19.6c-3.6-3.7-4.5-6.8-1.9-11.4
				c2.5-4.3,6.4-7.1,11.5-6.8c11,0.7,21.1,11,28.1,18.6c4.9,5.2,9.4,10.8,13.5,16.7c4,5.7,8.3,12,10.1,18.8c0.4,1.4,2.5,0.8,2.2-0.6
				c-3.4-12.7-13.7-24.8-22.3-34.3c-7.7-8.6-18.2-19.6-30.3-21.2c-4.1-0.6-8.1,0.4-11.2,3.2c-2.9,2.6-6.2,7.3-5.6,11.4
				c0.5,4.1,4.1,7.4,7.1,9.9c5,4.2,10.7,7.6,16.4,10.8c14.9,8.4,30.7,15.3,45.8,23.4C89.1,250.6,90.3,248.6,89,247.9L89,247.9z"/>
		</g>
	</g>
	<g>
		<g>
			<path class="st0" d="M88,272.1c-3.4-8-10.7-14.9-16.8-20.8c-8.5-8.2-18-15.9-28.6-21.2c-6.9-3.4-16.6-6.8-23.5-1.6
				c-3.3,2.4-5.4,6.6-6.1,10.5c-1.3,7,6,11.3,11.4,14.1c20.2,10.7,43.4,14.6,64.8,22.5c1.4,0.5,1.9-1.7,0.6-2.2
				c-16.6-6.1-33.9-10.1-50.5-16.3c-6.9-2.6-19.6-6.4-23.4-13.4c-2.4-4.3,1.4-11.3,5.2-13.8c7-4.6,16.9,0.1,23.3,3.6
				c9.2,5,17.4,11.8,24.9,19c6.1,5.9,13.5,12.7,16.9,20.7C86.6,274.5,88.5,273.4,88,272.1L88,272.1z"/>
		</g>
	</g>
	<g>
		<g>
			<path class="st0" d="M82.8,293.1c-4.5-10.7-15-19.9-23.5-27.3c-9.6-8.3-22.1-18.4-35.4-19.3c-4.6-0.3-9.1,1.1-12.2,4.6
				c-2.8,3.2-5.5,9-3.9,13.2c1.6,4.2,6.4,7,10.2,9.1c6.8,3.7,14.2,6.4,21.5,8.9c9.1,3.1,18.4,5.8,27.6,8.7
				c7.1,2.2,14.6,4.1,21.3,7.5c1.3,0.6,2.4-1.3,1.1-1.9c-10.9-5.5-23.4-8.1-34.9-11.7c-13.2-4.1-28.1-7.8-39.5-15.8
				c-4.4-3.1-6.5-6-4.6-11.3c1.9-5.2,5.7-8.8,11.4-9c12-0.5,24.4,9.2,33.1,16.4c5.7,4.7,11.1,9.8,16,15.3c3.6,4,7.6,8.4,9.7,13.4
				C81.2,295,83.4,294.4,82.8,293.1L82.8,293.1z"/>
		</g>
	</g>
	<g>
		<g>
			<path class="st0" d="M90.6,318.5c-1.4-5.6-5.1-10.7-8.4-15.4c-4.2-5.9-8.7-11.7-13.6-17.1c-7.8-8.8-18.2-19.8-30.4-22
				c-4-0.7-8.1,0-11.4,2.6c-2.9,2.3-6.2,6.8-6.3,10.7c-0.1,5,5.1,9.2,8.6,11.9c5.6,4.5,12,8,18.4,11.3c8.3,4.4,17,8.2,25.3,12.8
				c5.9,3.3,12.3,8.4,19.3,8.9c1.4,0.1,1.4-2.1,0-2.2c-7.2-0.6-14.3-6.6-20.5-9.9c-7.3-3.9-14.8-7.3-22.1-11.1
				c-6.5-3.4-13.2-7-19-11.6c-2.8-2.3-7.8-6-7.6-10c0.1-3.2,3.1-7.1,5.4-8.9c11.1-8.9,27.3,7.2,34.4,14.5
				c5.6,5.8,10.7,12.1,15.5,18.6c3.9,5.3,8.6,11.2,10.3,17.7C88.8,320.5,91,319.9,90.6,318.5L90.6,318.5z"/>
		</g>
	</g>
	<g>
		<g>
			<path class="st0" d="M93.1,349.4c-2.3-12.8-11.5-25.5-19-35.7c-8.1-11-18.3-23.9-31.5-28.9c-4.6-1.7-9.8-2.1-14.2,0.3
				c-4,2.3-8.6,7.5-9,12.3c-0.5,5.6,4.9,10.8,8.6,14.1c5.1,4.6,10.9,8.6,16.6,12.4c15.5,10.1,32.1,18.5,47.5,28.6
				c1.2,0.8,2.3-1.1,1.1-1.9c-14.3-9.4-29.6-17.2-44-26.4C42.6,320,36,315.6,30,310.3c-2.9-2.6-5.9-5.4-7.6-9
				c-2.3-5,1.9-10.9,6.1-13.7c13.9-9.4,31.7,12.1,39.2,21.4c5.7,7,10.8,14.5,15.2,22.4c3.3,5.7,6.8,12,8,18.5
				C91.2,351.4,93.4,350.8,93.1,349.4L93.1,349.4z"/>
		</g>
	</g>
	<g>
		<g>
			<path class="st0" d="M85.1,186.3c-0.8-6.5-5.5-12.2-7.5-18.5c-2.5-8-4.4-16.5-5.2-24.8c-0.8-8-1.3-16.6,3.3-23.5
				c3.6-5.4,5.6,0.8,6.3,4.2c3.5,15.7,5.4,32.4,5.8,48.5c0.1,3.8,0.2,7.7-0.6,11.4c-0.2,1.1-0.4,2.3-1.1,3.2c-0.8,1.1-0.2-0.3,0,0
				c-0.7-1-0.9-2.5-1.7-3.7c-0.8-1.2-2.8-0.1-1.9,1.1c0.9,1.4,1.4,2.8,1.7,4.4c0.1,0.5,0.6,0.8,1.1,0.8c9.7,0.3,3.1-39.3,2.5-44.2
				c-1-8.1-1.9-16.5-4.1-24.3c-0.7-2.4-2-6.8-5.1-6.7c-4.7,0-8,9.2-8.5,12.8c-1.4,9.1,0.1,19.2,2,28.1c1.2,5.7,2.5,11.3,4.5,16.7
				c1.8,4.8,5.6,9.3,6.2,14.5C83,187.7,85.3,187.7,85.1,186.3L85.1,186.3z"/>
		</g>
	</g>
	<g>
		<g>
			<path class="st0" d="M86.2,187.4c0.1,44.9,2,89.8,4.1,134.7c2.1,45.1,3.4,90.2,4,135.3c1.1,90.4,3.8,180.8,5.3,271.2
				c0.8,50.8,1.3,101.6,1.3,152.4c0,1.4,2.3,1.5,2.2,0c0-90.4-1.7-180.9-3.7-271.3c-1-45.2-2.2-90.4-2.7-135.6
				c-0.5-45.2-1.3-90.3-3.4-135.4c-2.3-50.4-4.8-100.9-4.9-151.4C88.4,186,86.2,186,86.2,187.4L86.2,187.4z"/>
		</g>
	</g>
</g>
<g>
	<g>
		<path class="st1" d="M843,499.3c2.6-8.4,4.2-53,26-43.9c-3.3,21-21.3,32.5-26.5,49.4"/>
		<g>
			<path class="st0" d="M844.1,499.6c3.3-11.7,3.7-51.3,24.6-43.1c-0.3-0.5-0.5-0.9-0.8-1.4c-3.5,19.5-20.6,31.2-26.5,49.4
				c-0.5,1.4,1.7,2,2.2,0.6c3-9.1,9.2-16.4,14.6-24c5.6-7.7,10.2-15.9,11.9-25.4c0.1-0.6-0.2-1.1-0.8-1.4
				c-23.1-9.1-23.7,31.9-27.4,44.6C841.5,500.4,843.7,501,844.1,499.6L844.1,499.6z"/>
		</g>
	</g>
	<g>
		<path class="st1" d="M843.9,539.2c10.8-13.2,28.7-16.5,38.8-34.6c-17.1-15.7-33.5,23.8-39.1,32c-0.1,0.2-0.2,0.3-0.3,0.4"/>
		<g>
			<path class="st0" d="M844.7,540c5.9-6.9,13.7-11.3,21.1-16.4c7.2-5,13.5-10.8,17.9-18.5c0.2-0.4,0.2-1-0.2-1.4
				c-18.9-16.5-33.2,21.6-41.1,32.6c-0.8,1.2,1.1,2.3,1.9,1.1c3.8-5.3,6.4-11.5,9.9-17c4-6.5,9.4-15.5,17.3-18
				c1.8-0.6,3.7-0.7,5.5-0.1c2.7,0.8,4.7,1.6,3.2,4.3c-3.1,5.4-8.3,9.8-13.3,13.4c-8.1,5.9-17.1,10.5-23.7,18.3
				C842.2,539.5,843.7,541.1,844.7,540L844.7,540z"/>
		</g>
	</g>
	<g>
		<path class="st1" d="M842.5,516.4c6.1-9.6,22-46.4,38.5-31.1c-9.9,17.9-27.7,21.4-38.5,34.2c-0.1,0.1-0.2,0.3-0.3,0.4"/>
		<g>
			<path class="st0" d="M843.5,517c3.7-6,6.7-12.3,10.6-18.2c3.9-6,9.7-15,17.5-15.9c1.9-0.2,4,0,5.7,1.1c3,1.8,1.4,3.4-0.5,5.9
				c-3.6,4.8-8.1,8.6-13,12c-7.7,5.4-16.2,9.9-22.3,17.3c-0.9,1.1,0.7,2.7,1.6,1.6c5.7-6.9,13.5-11.2,20.8-16.2
				c7.4-5,13.7-10.9,18.2-18.7c0.2-0.4,0.2-1-0.2-1.4c-18.2-15.9-33.2,19.9-40.3,31.4C840.8,517.1,842.7,518.2,843.5,517L843.5,517z
				"/>
		</g>
	</g>
	<g>
		<path class="st1" d="M843.9,553.3c7-9.2,26.2-44,41.2-27.4c-2.5,3.7-5.4,6.7-8.4,9.2c0,0,0,0,0,0c-5.3,4.4-11.2,7.4-16.8,10.4
			c0,0,0,0,0,0c-5.7,3-11.2,6-15.8,10.5c-0.1,0.1-0.1,0.1-0.2,0.2"/>
		<g>
			<path class="st0" d="M844.9,553.9c3.8-5.2,7.2-10.7,11.1-15.8c4.5-5.8,10.4-13.6,18-15.2c2.6-0.6,9.8,0.4,9.2,3.9
				c-0.4,2-4.6,5.3-6.2,6.6c-2.2,2-4.6,3.7-7.1,5.3c-8.9,5.6-19.4,9.3-26.9,16.9c-1,1,0.6,2.6,1.6,1.6c6.6-6.6,15.7-10.2,23.6-14.8
				c7-4.1,13.1-9.1,17.8-15.8c0.3-0.4,0.1-1-0.2-1.4c-16.6-17.4-34.9,16.8-43,27.6C842,553.9,844,555,844.9,553.9L844.9,553.9z"/>
		</g>
	</g>
	<g>
		<path class="st1" d="M844.3,561.9c4.7-3,9.7-4.8,15-6.3c8-2.3,16.5-4.1,24.4-8.8c2.7-1.6,5.4-3.5,8-6c-3.7-6.5-9.1-7.5-15-5.7
			c-5.5,1.7-11.5,6-16.8,10.5c0,0,0,0,0,0c-6.9,5.8-12.8,12-15.5,14"/>
		<g>
			<path class="st0" d="M844.8,562.8c8.1-4.9,17.2-6.6,26.1-9.4c8-2.5,15.3-6.1,21.5-11.8c0.4-0.3,0.4-1,0.2-1.4
				c-13.1-21.1-38.1,10.2-48.9,18.4c-1.1,0.9,0,2.8,1.1,1.9c5.6-4.3,10.4-9.7,15.8-14.2c6.1-5.1,17.5-14.8,25.9-9.6
				c3.7,2.3,4.1,3.8,0.6,6.4c-1.8,1.3-3.7,2.5-5.6,3.6c-4.6,2.4-9.5,4.1-14.4,5.5c-8.1,2.3-16.1,4.3-23.4,8.7
				C842.5,561.6,843.6,563.6,844.8,562.8L844.8,562.8z"/>
		</g>
	</g>
	<g>
		<path class="st1" d="M846.1,577.4c2.9-4.8,7.5-14.2,13.2-21.9c7-9.5,15.6-16.4,24.4-8.8c0.2,0.1,0.3,0.3,0.4,0.4
			c-9.7,17.5-26.8,21.2-37.7,33.3"/>
		<g>
			<path class="st0" d="M847,578c4.2-7.1,7.8-14.5,12.7-21.2c3.1-4.2,6.7-8.7,11.5-11c2.6-1.2,5.3-1.5,8.1-0.4
				c1.2,0.5,3.2,1.5,3.3,2.4c0,0.2-1.9,2.7-2,2.8c-9,12.8-24.6,17.9-35,29.1c-1,1.1,0.6,2.7,1.6,1.6c6-6.4,13.6-10.6,20.7-15.6
				c6.9-4.9,12.9-10.5,17.1-17.9c0.2-0.4,0.2-1-0.2-1.4c-17.4-16.1-33.3,19.4-39.8,30.5C844.4,578.1,846.3,579.2,847,578L847,578z"
				/>
		</g>
	</g>
	<g>
		<path class="st1" d="M846.1,593.5c2.9-4.8,7.5-14.2,13.2-21.9c7-9.5,15.6-16.4,24.4-8.8c0.2,0.1,0.3,0.3,0.4,0.4
			c-9.7,17.5-26.8,21.2-37.7,33.3"/>
		<g>
			<path class="st0" d="M847,594.1c4.2-7.1,7.8-14.5,12.7-21.2c3.1-4.2,6.7-8.7,11.5-11c2.6-1.2,5.3-1.5,8.1-0.4
				c1.2,0.5,3.2,1.5,3.3,2.4c0,0.2-1.9,2.7-2,2.8c-9,12.8-24.6,17.9-35,29.1c-1,1.1,0.6,2.7,1.6,1.6c6-6.4,13.6-10.6,20.7-15.6
				c6.9-4.9,12.9-10.6,17.1-17.9c0.2-0.4,0.2-1-0.2-1.4c-17.4-16.1-33.3,19.4-39.8,30.5C844.4,594.2,846.3,595.3,847,594.1
				L847,594.1z"/>
		</g>
	</g>
	<g>
		<path class="st1" d="M846.1,608c2.9-4.8,7.5-14.2,13.2-21.9c7-9.5,15.6-16.4,24.4-8.8c0.2,0.1,0.3,0.3,0.4,0.4
			c-9.7,17.5-26.8,21.2-37.7,33.3"/>
		<g>
			<path class="st0" d="M847,608.6c4.2-7.1,7.8-14.5,12.7-21.2c3.1-4.2,6.7-8.7,11.5-11c2.6-1.2,5.3-1.5,8.1-0.4
				c1.2,0.5,3.2,1.5,3.3,2.4c0,0.2-1.9,2.7-2,2.8c-9,12.8-24.6,17.9-35,29.1c-1,1.1,0.6,2.7,1.6,1.6c6-6.4,13.6-10.6,20.7-15.6
				c6.9-4.9,12.9-10.5,17.1-17.9c0.2-0.4,0.2-1-0.2-1.4c-17.4-16.1-33.3,19.4-39.8,30.5C844.4,608.7,846.3,609.8,847,608.6
				L847,608.6z"/>
		</g>
	</g>
	<g>
		<path class="st1" d="M847.1,641.2c10.8-13.2,28.7-16.5,38.8-34.6c-17.1-15.7-33.5,23.8-39.1,32c-0.1,0.2-0.2,0.3-0.3,0.4"/>
		<g>
			<path class="st0" d="M847.9,642c5.9-6.9,13.7-11.3,21.1-16.4c7.2-5,13.5-10.8,17.9-18.5c0.2-0.4,0.2-1-0.2-1.4
				c-18.9-16.5-33.3,21.6-41.1,32.6c-0.8,1.2,1.1,2.3,1.9,1.1c3.8-5.3,6.4-11.5,9.9-17c4-6.5,9.4-15.5,17.3-18
				c1.8-0.6,3.7-0.7,5.5-0.1c2.7,0.8,4.7,1.6,3.2,4.3c-3.1,5.4-8.3,9.8-13.3,13.4c-8.1,5.9-17.1,10.5-23.7,18.3
				C845.4,641.5,847,643.1,847.9,642L847.9,642z"/>
		</g>
	</g>
	<g>
		<path class="st1" d="M846.8,618.4c6.1-9.6,22-46.4,38.5-31.1c-9.9,17.9-27.7,21.4-38.5,34.2c-0.1,0.1-0.2,0.3-0.3,0.4"/>
		<g>
			<path class="st0" d="M847.8,618.9c3.7-6,6.7-12.3,10.6-18.2c3.9-6,9.7-15,17.5-15.9c1.9-0.2,4,0,5.7,1.1c3,1.8,1.4,3.4-0.5,5.9
				c-3.6,4.8-8.1,8.6-13,12c-7.8,5.4-16.1,10-22.3,17.3c-0.9,1.1,0.7,2.7,1.6,1.6c5.8-6.8,13.5-11.2,20.8-16.2
				c7.4-5,13.7-10.9,18.2-18.7c0.2-0.4,0.2-1-0.2-1.4c-18.2-15.9-33.2,19.9-40.3,31.4C845.1,619,847,620.2,847.8,618.9L847.8,618.9z
				"/>
		</g>
	</g>
	<g>
		<path class="st1" d="M847.1,655.3c7-9.2,26.2-44,41.2-27.4c-2.5,3.7-5.4,6.7-8.4,9.2c0,0,0,0,0,0c-5.3,4.4-11.2,7.4-16.8,10.4
			c0,0,0,0,0,0c-5.7,3-11.2,6-15.8,10.5c-0.1,0.1-0.1,0.1-0.2,0.2"/>
		<g>
			<path class="st0" d="M848.1,655.8c3.8-5.2,7.2-10.7,11.1-15.8c4.5-5.8,10.4-13.6,18-15.2c2.6-0.6,9.8,0.4,9.2,3.9
				c-0.4,2-4.6,5.3-6.2,6.7c-2.2,2-4.6,3.7-7.1,5.3c-8.9,5.6-19.4,9.3-26.9,16.9c-1,1,0.6,2.6,1.6,1.6c6.6-6.7,15.7-10.2,23.6-14.8
				c7-4.1,13.1-9.1,17.8-15.8c0.3-0.4,0.1-1-0.2-1.4c-16.6-17.4-34.9,16.8-43,27.6C845.3,655.9,847.2,657,848.1,655.8L848.1,655.8z"
				/>
		</g>
	</g>
	<g>
		<path class="st1" d="M847.5,663.8c4.7-3,9.7-4.8,15-6.3c8-2.3,16.5-4.1,24.4-8.8c2.7-1.6,5.4-3.5,8-6c-3.7-6.5-9.1-7.5-15-5.7
			c-5.5,1.7-11.5,6-16.8,10.5c0,0,0,0,0,0c-6.9,5.8-12.8,12-15.5,14"/>
		<g>
			<path class="st0" d="M848,664.8c8.1-4.9,17.2-6.6,26.1-9.4c8-2.5,15.3-6.1,21.5-11.8c0.4-0.3,0.4-1,0.2-1.4
				c-13.1-21.1-38.1,10.2-48.9,18.4c-1.1,0.9,0,2.8,1.1,1.9c5.6-4.3,10.4-9.7,15.8-14.2c6.1-5.1,17.5-14.8,25.9-9.6
				c3.7,2.3,4.1,3.8,0.6,6.4c-1.8,1.3-3.7,2.5-5.6,3.6c-4.6,2.4-9.5,4.1-14.4,5.5c-8.1,2.3-16.1,4.3-23.4,8.7
				C845.7,663.6,846.8,665.5,848,664.8L848,664.8z"/>
		</g>
	</g>
	<g>
		<path class="st1" d="M847.1,679.4c2.9-4.8,7.5-14.2,13.2-21.9c7-9.5,15.6-16.4,24.4-8.8c0.2,0.1,0.3,0.3,0.4,0.4
			c-9.7,17.5-26.8,21.2-37.7,33.3"/>
		<g>
			<path class="st0" d="M848.1,680c4.2-7.1,7.8-14.5,12.7-21.2c3.1-4.2,6.7-8.7,11.5-11c2.6-1.2,5.3-1.5,8.1-0.4
				c1.2,0.5,3.2,1.5,3.3,2.4c0,0.2-1.9,2.7-2,2.8c-9,12.8-24.6,17.9-35,29.1c-1,1.1,0.6,2.7,1.6,1.6c6-6.4,13.6-10.6,20.7-15.6
				c6.9-4.9,12.9-10.5,17.1-17.9c0.2-0.4,0.2-1-0.2-1.4c-17.4-16.1-33.3,19.4-39.8,30.5C845.4,680.1,847.4,681.2,848.1,680
				L848.1,680z"/>
		</g>
	</g>
	<g>
		<path class="st1" d="M848.2,695.5c2.9-4.8,7.5-14.2,13.2-21.9c7-9.5,15.6-16.4,24.4-8.8c0.2,0.1,0.3,0.3,0.4,0.4
			c-9.7,17.5-26.8,21.2-37.7,33.3"/>
		<g>
			<path class="st0" d="M849.2,696.1c4.2-7.1,7.8-14.5,12.7-21.2c3.1-4.2,6.7-8.7,11.5-11c2.6-1.2,5.3-1.5,8.1-0.4
				c1.2,0.5,3.2,1.5,3.3,2.4c0,0.2-1.9,2.7-2,2.8c-9,12.8-24.6,17.9-35,29.1c-1,1.1,0.6,2.7,1.6,1.6c6-6.4,13.6-10.6,20.7-15.6
				c6.9-4.9,12.9-10.6,17.1-17.9c0.2-0.4,0.2-1-0.2-1.4c-17.4-16-33.2,19.4-39.8,30.5C846.5,696.2,848.4,697.3,849.2,696.1
				L849.2,696.1z"/>
		</g>
	</g>
	<g>
		<path class="st1" d="M848.2,710c2.9-4.8,7.5-14.2,13.2-21.9c7-9.5,15.6-16.4,24.4-8.8c0.2,0.1,0.3,0.3,0.4,0.4
			c-9.7,17.5-26.8,21.2-37.7,33.3"/>
		<g>
			<path class="st0" d="M849.2,710.6c4.2-7.1,7.8-14.5,12.7-21.2c3.1-4.2,6.7-8.7,11.5-11c2.6-1.2,5.3-1.5,8.1-0.4
				c1.2,0.5,3.2,1.5,3.3,2.4c0,0.2-1.9,2.7-2,2.8c-9,12.8-24.6,17.9-35,29.1c-1,1.1,0.6,2.7,1.6,1.6c6-6.4,13.6-10.6,20.7-15.6
				c6.9-4.9,12.9-10.6,17.1-17.9c0.2-0.4,0.2-1-0.2-1.4c-17.4-16-33.2,19.4-39.8,30.5C846.5,710.7,848.4,711.8,849.2,710.6
				L849.2,710.6z"/>
		</g>
	</g>
	<g>
		<path class="st1" d="M848.2,724.5c2.9-4.8,7.5-14.2,13.2-21.9c7-9.5,15.6-16.4,24.4-8.8c0.2,0.1,0.3,0.3,0.4,0.4
			c-9.7,17.5-26.8,21.2-37.7,33.3"/>
		<g>
			<path class="st0" d="M849.2,725c4.2-7.1,7.8-14.5,12.7-21.2c3.1-4.2,6.7-8.7,11.5-11c2.6-1.2,5.3-1.5,8.1-0.4
				c1.2,0.5,3.2,1.5,3.3,2.4c0,0.2-1.9,2.7-2,2.8c-9,12.8-24.6,17.9-35,29.1c-1,1.1,0.6,2.7,1.6,1.6c6-6.4,13.6-10.6,20.7-15.6
				c6.9-4.9,12.9-10.5,17.1-17.9c0.2-0.4,0.2-1-0.2-1.4c-17.4-16.1-33.3,19.4-39.8,30.5C846.5,725.2,848.4,726.3,849.2,725
				L849.2,725z"/>
		</g>
	</g>
	<g>
		<path class="st1" d="M848.2,739c2.9-4.8,7.5-14.2,13.2-21.9c7-9.5,15.6-16.4,24.4-8.8c0.2,0.1,0.3,0.3,0.4,0.4
			c-9.7,17.5-26.8,21.2-37.7,33.3"/>
		<g>
			<path class="st0" d="M849.2,739.5c4.2-7.1,7.8-14.5,12.7-21.2c3.1-4.2,6.7-8.7,11.5-11c2.6-1.2,5.3-1.5,8.1-0.4
				c1.2,0.5,3.2,1.5,3.3,2.4c0,0.2-1.9,2.7-2,2.8c-9,12.8-24.6,17.9-35,29.1c-1,1.1,0.6,2.7,1.6,1.6c6-6.4,13.6-10.6,20.7-15.6
				c6.9-4.9,12.9-10.6,17.1-17.9c0.2-0.4,0.2-1-0.2-1.4c-17.4-16-33.2,19.4-39.8,30.5C846.5,739.7,848.4,740.8,849.2,739.5
				L849.2,739.5z"/>
		</g>
	</g>
	<g>
		<path class="st1" d="M845.8,638.6c-11.9-11.1-29.3-13.3-40.5-29.8c0.1-0.1,0.2-0.3,0.4-0.4c8.1-8.4,17.2-2.3,25.1,6.5
			c6.3,7.2,11.8,16.1,15.1,20.6"/>
		<g>
			<path class="st0" d="M846.6,637.8c-11.3-10.1-27-13.8-37.1-25.4c-0.5-0.5-2.6-2.6-2.7-3.1c-0.1-0.7,1.4-1.8,2.5-2.5
				c2.5-1.5,5.3-1.6,8-0.8c4.8,1.5,8.7,5.4,12,9c5.9,6.5,10.4,13.9,15.5,21c0.8,1.2,2.8,0,1.9-1.1c-7.5-10.4-26.6-44.5-42.3-26.9
				c-0.3,0.3-0.5,0.9-0.2,1.4c4.9,7,11.3,12.1,18.6,16.3c7.5,4.3,15.6,7.8,22.1,13.7C846.1,640.3,847.7,638.8,846.6,637.8
				L846.6,637.8z"/>
		</g>
	</g>
	<g>
		<path class="st1" d="M847.1,653c-11.9-11.1-29.3-13.3-40.5-29.8c0.1-0.1,0.2-0.3,0.4-0.4c8.1-8.4,17.2-2.3,25.1,6.5
			c6.3,7.2,11.8,16.1,15.1,20.6"/>
		<g>
			<path class="st0" d="M847.9,652.2c-11.3-10.1-27-13.8-37.1-25.4c-0.5-0.5-2.6-2.6-2.7-3.1c-0.1-0.7,1.4-1.8,2.5-2.5
				c2.5-1.5,5.3-1.6,8-0.8c4.8,1.5,8.7,5.4,12,9c5.9,6.5,10.4,13.9,15.5,21c0.8,1.2,2.8,0,1.9-1.1c-7.5-10.4-26.5-44.5-42.3-26.9
				c-0.3,0.3-0.5,0.9-0.2,1.4c4.9,7,11.3,12.1,18.6,16.3c7.5,4.3,15.6,7.8,22.1,13.7C847.4,654.8,849,653.2,847.9,652.2L847.9,652.2
				z"/>
		</g>
	</g>
	<g>
		<path class="st1" d="M847.3,680.8c-0.1-0.1-0.2-0.2-0.3-0.4c-6.3-7.6-26.2-45.5-41.8-28.3c11.6,17.1,29.8,18.8,41.7,31"/>
		<g>
			<path class="st0" d="M848.1,680c-8.8-10.2-26.5-46.7-43.7-28.7c-0.3,0.3-0.5,1-0.2,1.4c5.1,7.2,11.7,12.5,19.4,16.8
				c7.8,4.4,16,8.1,22.5,14.5c1,1,2.6-0.6,1.6-1.6c-7.4-7.3-17.1-11.2-25.9-16.5c-2.7-1.6-5.3-3.4-7.7-5.5c-1.8-1.5-6.6-5.1-7-7.5
				c-0.6-3.7,7.2-4.4,9.8-3.6c8,2.2,14.1,10.6,18.7,16.9c3.7,5,6.8,10.7,10.9,15.5C847.5,682.7,849.1,681.1,848.1,680L848.1,680z"/>
		</g>
	</g>
	<g>
		<path class="st1" d="M846.8,663.7c-0.1-0.1-0.2-0.2-0.4-0.4c-11.9-11.8-29.9-13.7-41.4-30.7c15.1-16.7,34.3,18.5,41.2,27.5"/>
		<g>
			<path class="st0" d="M847.6,662.9c-6.8-6.8-15.6-10.6-23.8-15.3c-4.8-2.7-9.3-5.8-13.1-9.8c-0.8-0.9-3.6-3.5-3.8-4.4
				c-0.2-1.3,0.3-1.5,1.7-2.4c1.6-1,3.4-1.6,5.3-1.6c7.8,0,14.3,8.1,18.7,13.6c4.6,5.7,8.3,12,12.7,17.8c0.9,1.1,2.8,0,1.9-1.1
				c-8-10.7-26.3-45.1-42.9-27.8c-0.3,0.3-0.5,1-0.2,1.4c5.2,7.4,12,12.6,19.8,17c7.7,4.3,15.8,7.9,22.1,14.2
				C847,665.6,848.6,664,847.6,662.9L847.6,662.9z"/>
		</g>
	</g>
	<g>
		<path class="st1" d="M848.2,697.1c-0.2-0.2-0.4-0.4-0.6-0.7c-8.2-9.4-29.8-40.4-42.9-22.9c2.8,3.4,5.9,6.1,9.1,8.3
			c0,0,0.1,0.1,0.1,0.1c0,0,0,0,0,0c5.7,3.9,11.8,6.4,17.7,8.9c0,0,0,0,0,0c0,0,0,0,0,0c5.6,2.4,11.2,4.8,16,8.5"/>
		<g>
			<path class="st0" d="M849,696.3c-8.8-10-30.3-42.2-45.1-23.6c-0.4,0.5-0.4,1.1,0,1.6c5.6,6.5,12.1,10.8,19.9,14.4
				c8,3.6,16.2,6.4,23.4,11.7c1.2,0.9,2.3-1.1,1.1-1.9c-13.8-10.2-31-11.9-42.8-25.7c0,0.5,0,1.1,0,1.6
				c13.4-16.8,33.9,14.4,41.9,23.6C848.4,699,850,697.4,849,696.3L849,696.3z"/>
		</g>
	</g>
	<g>
		<path class="st1" d="M848.6,705.7c-0.3-0.1-0.5-0.3-0.8-0.4c-4.7-2.3-9.6-4-14.7-5c-8.2-1.6-16.8-2.4-25.1-7h0
			c-2.9-0.9-5.7-2.6-8.5-4.8c3.1-6.8,8.4-8.1,14.4-6.8c5.7,1.2,11.9,5,17.7,9c0,0,0,0.1,0,0.1c0,0,0,0.1,0.1,0
			c6.9,4.8,13,10.2,16.1,12.2"/>
		<g>
			<path class="st0" d="M849.2,704.7c-15.7-8-34.6-6.1-49.1-17.1c0.1,0.5,0.3,1,0.4,1.5c9.7-19.4,36.7,8.1,46.7,14.9
				c1.2,0.8,2.3-1.1,1.1-1.9c-11.1-7.6-39-35.7-49.8-14.1c-0.3,0.6-0.1,1.2,0.4,1.5c6.1,4.6,13.9,7.8,21.4,9.5
				c9.5,2.2,18.9,3.1,27.7,7.6C849.3,707.3,850.5,705.4,849.2,704.7L849.2,704.7z"/>
		</g>
	</g>
	<g>
		<path class="st1" d="M848.1,724.5c-11.9-11.1-29.3-13.3-40.5-29.8c0.1-0.1,0.2-0.3,0.4-0.4c8.1-8.4,17.2-2.3,25.1,6.5
			c6.3,7.2,11.8,16.1,15.1,20.6"/>
		<g>
			<path class="st0" d="M848.9,723.7c-11.3-10.1-27-13.8-37.1-25.4c-0.5-0.5-2.6-2.6-2.7-3.1c-0.1-0.7,1.4-1.8,2.5-2.5
				c2.5-1.5,5.3-1.6,8-0.8c4.8,1.5,8.7,5.4,12,9c5.9,6.5,10.4,13.9,15.5,21c0.8,1.2,2.8,0,1.9-1.1c-7.5-10.4-26.6-44.5-42.3-26.9
				c-0.3,0.3-0.5,0.9-0.2,1.4c4.9,7,11.3,12.1,18.6,16.3c7.5,4.3,15.6,7.8,22.1,13.7C848.4,726.2,850,724.7,848.9,723.7L848.9,723.7
				z"/>
		</g>
	</g>
	<g>
		<path class="st1" d="M848.6,739.7c-3.9-3.4-8.2-5.9-12.7-8.3c0,0,0,0,0,0c-5.8-3.1-11.9-6.1-17.4-10.5c-3.4-2.7-6.6-5.9-9.4-10.1
			c0.1-0.1,0.2,0.1,0.4-0.1c3.1-3.2,6.4-4.5,9.7-3.5h0c4.2,0,8.5,3.1,12.5,7.1c0,0,0-0.2,0-0.2c1,0.9,1.9,1.9,2.8,2.9
			c5.7,6.4,10.7,14.2,14,19"/>
		<g>
			<path class="st0" d="M849.4,738.9c-12.7-10.7-29.4-14.6-39.4-28.7c-0.3,0.6-0.6,1.1-1,1.7c0.3,0,0.7-0.2,1-0.2
				c0.9-0.7,1.8-1.5,2.7-2.3c1.8-1.3,3.9-1.7,6.1-1.2c5,0.4,8.6,3.4,12,6.8c0.8,0.7,1.8,0.1,1.9-0.8c0-0.1,0-0.1,0-0.2
				c-0.6,0.3-1.3,0.5-1.9,0.8c6.5,6.4,11.5,14.2,16.7,21.7c0.8,1.2,2.8,0.1,1.9-1.1c-5.3-7.7-10.3-15.6-17-22.2
				c-0.8-0.7-1.8-0.1-1.9,0.8c0,0.1,0,0.1,0,0.2c0.6-0.3,1.3-0.5,1.9-0.8c-3.7-3.5-7.5-6.5-12.6-7.3c-1.8-0.3-3.5-0.5-5.3,0
				c-1,0.3-2.1,0.8-3,1.4c-0.4,0.2-2.3,2.2-2.5,2.2c-0.8,0.1-1.5,0.9-1,1.7c4.5,6.4,10.3,11.3,17,15.4c7.7,4.6,15.9,8,22.8,13.8
				C849,741.4,850.6,739.8,849.4,738.9L849.4,738.9z"/>
		</g>
	</g>
	<g>
		<path class="st1" d="M848.9,753.3c-11.8-9.7-28-12.5-38.6-28.1c0.1-0.1,0.2-0.3,0.4-0.4c2.5-2.6,5.1-3.9,7.7-3.9h0
			c5.9,0,12,4.3,17.4,10.5c0,0,0.1,0,0.1,0.1c5.1,5.8,9.6,12.7,12.9,17.5"/>
		<g>
			<path class="st0" d="M849.7,752.5c-10.9-8.7-25-12.6-34.6-23.1c-1-1.1-1.9-2.2-2.8-3.4c-1.2-0.3-1-0.8,0.5-1.6
				c1.1-1.3,3.9-2.3,5.6-2.4c5.4-0.3,10.5,4,14.1,7.5c6,5.9,10.7,13.1,15.4,20c0.8,1.2,2.8,0.1,1.9-1.1
				c-7.4-10.8-24.9-39.6-40.2-23.9c-0.3,0.3-0.5,1-0.2,1.4c4.6,6.6,10.5,11.6,17.4,15.7c7.1,4.2,14.8,7.5,21.3,12.7
				C849.3,754.9,850.9,753.4,849.7,752.5L849.7,752.5z"/>
		</g>
	</g>
	<g>
		<path class="st1" d="M845.4,597.1c0,0-0.1,0.1-0.1,0.1"/>
		<g>
			<path class="st0" d="M844.6,596.3c0,0-0.1,0.1-0.1,0.1c-1,1,0.6,2.6,1.6,1.6c0,0,0.1-0.1,0.1-0.1
				C847.3,596.9,845.7,595.3,844.6,596.3L844.6,596.3z"/>
		</g>
	</g>
	<g>
		<path class="st1" d="M845.9,594.7c-5.3-7.1-22-48.4-39.4-32.4c14.2,25.6,33.9,28.1,39.7,35.7"/>
		<g>
			<path class="st0" d="M846.9,594.1c-7.9-11-22.3-49.1-41.1-32.6c-0.4,0.3-0.4,1-0.2,1.4c5.5,9.7,12.8,17.9,22,24.1
				c5.7,3.8,13.5,6.4,17.8,11.9c0.9,1.1,2.5-0.5,1.6-1.6c-4.5-5.6-12.5-8.3-18.3-12.2c-5.1-3.4-9.7-7.5-13.6-12.1
				c-1.6-1.9-6.6-6.9-6.7-9.6c-0.1-2.1,3.7-3.3,5.7-3.5c8.8-0.6,15.7,10.2,19.8,16.6c3.9,6.1,6.8,13,11,18.9
				C845.8,596.4,847.7,595.3,846.9,594.1L846.9,594.1z"/>
		</g>
	</g>
	<g>
		<path class="st1" d="M846.1,607.4c-5.9-6.6-26.4-46.1-42.2-28.6c12,17.5,30.9,18.9,42.8,31.9"/>
		<g>
			<path class="st0" d="M846.9,606.6c-8.8-10.1-26.6-46.7-43.8-28.6c-0.3,0.3-0.5,1-0.2,1.4c5.3,7.4,12.2,12.7,20,17.1
				c8.1,4.5,16.5,8.3,22.9,15.1c1,1.1,2.6-0.5,1.6-1.6c-7.4-7.8-17.3-11.7-26.3-17.1c-2.9-1.7-5.7-3.6-8.3-5.8
				c-1.7-1.4-6.6-5.2-7-7.4c-0.6-3.6,7-4.4,9.7-3.7c7.9,2.1,14,10.3,18.6,16.5c3.8,5.2,7,11,11.3,15.8
				C846.3,609.3,847.9,607.7,846.9,606.6L846.9,606.6z"/>
		</g>
	</g>
	<g>
		<path class="st1" d="M846.7,617.2c-7.2-5.1-37.8-41-49.4-20.5c15.5,14.5,34.2,11.7,48.7,21.9"/>
		<g>
			<path class="st0" d="M847.3,616.3c-10.8-8-37.9-41.7-50.9-20c-0.2,0.4-0.2,1,0.2,1.4c6.7,6.1,14.5,9.7,23.1,12.3
				c8.9,2.7,18,4.5,25.8,9.8c1.2,0.8,2.3-1.1,1.1-1.9c-9.9-6.7-21.7-8-32.7-12.1c-3.3-1.2-6.4-2.8-9.4-4.6c-1.1-0.7-4.8-2.9-5.1-3.8
				c-0.4-1.2-0.3-1.3,0.8-2.5c2.8-3,6.7-3.5,10.6-2.5c14.7,3.6,23.8,17.6,35.3,26.1C847.3,619.1,848.5,617.1,847.3,616.3
				L847.3,616.3z"/>
		</g>
	</g>
	<g>
		<path class="st1" d="M842.3,507.8c-13.8-13.5-42.8-37.7-36.7-45.2c17.1-21.3,37.1,32.4,36.3,43.8"/>
		<g>
			<path class="st0" d="M843.1,507c-9.6-9.3-19.8-18-28.7-28c-2.9-3.2-8.5-8.7-8.5-13.5c0-4.2,5.9-7.3,9.7-6.5
				c9,1.8,14.7,14.6,18,21.9c3.4,7.5,7.6,17.1,7.2,25.5c-0.1,1.4,2.2,1.4,2.2,0c0.3-7.6-3-15.8-5.8-22.7
				c-3.3-8.2-7.6-17.2-14.3-23.1c-5.1-4.6-11.4-5.5-16.6-0.4c-5.8,5.7,0.2,12.9,4.3,17.8c9.3,11.2,20.6,20.5,31,30.6
				C842.6,509.6,844.2,508,843.1,507L843.1,507z"/>
		</g>
	</g>
	<g>
		<path class="st1" d="M842.8,524.7c-0.2-0.1-0.4-0.2-0.7-0.4c-12.4-6.9-42.3-18.8-39.2-26.6c7.4-18.5,30.8,9,37.3,21.8
			c0.8,1.6,1.4,3,1.6,4"/>
		<g>
			<path class="st0" d="M843.3,523.7c-7.7-4.1-15.7-7.7-23.4-11.8c-4.7-2.5-19.4-8.8-15-15.8c9.2-14.5,33.4,19.4,35.8,27.7
				c0.4,1.4,2.6,0.8,2.2-0.6c-2.9-9.8-11.5-19.5-19-26.1c-5-4.4-13.9-10.3-19.7-3.8c-6.1,6.8,0.6,12,6.4,15.8
				c10,6.4,21.1,10.9,31.5,16.5C843.5,526.3,844.6,524.4,843.3,523.7L843.3,523.7z"/>
		</g>
	</g>
	<g>
		<path class="st1" d="M841.9,538.5c-3.5-8.7-37.7-41-42.6-19.1c-0.5,2,1.1,3.9,3.8,5.7c5.5,3.6,15.9,6.9,25.3,9.8
			c5.8,1.8,11.2,3.4,14.9,4.8"/>
		<g>
			<path class="st0" d="M842.9,537.9c-3-6.9-10.1-12.8-15.8-17.4c-5.5-4.4-13.5-10.6-21-9.7c-6.8,0.9-10.5,9.4-5,14.1
				c5,4.3,12.5,6.4,18.6,8.4c7.7,2.5,15.6,4.6,23.3,7.4c1.4,0.5,1.9-1.7,0.6-2.2c-11.6-4.3-24-6.6-35.2-11.9
				c-3.1-1.5-8.2-3.6-7.7-7.8c0.2-1.4,1.2-3.1,2.2-4.1c2.3-2.2,5.7-1.9,8.5-1c6.9,2.1,13.1,7.2,18.4,12c4.1,3.8,9,8.2,11.2,13.4
				C841.6,540.4,843.5,539.2,842.9,537.9L842.9,537.9z"/>
		</g>
	</g>
	<g>
		<path class="st1" d="M838.9,550.6c-3.5-8.8-37.5-41.2-42.7-19.2c-2.2,9.2,37.5,16.8,46.9,21.6"/>
		<g>
			<path class="st0" d="M839.9,550c-2.8-6.5-9.3-12.1-14.5-16.5c-5.5-4.7-13-10.6-20.6-10.8c-5.1-0.1-11.2,5.1-9.5,10.7
				c1.8,6,12.2,8.8,17.2,10.6c9.8,3.5,20.7,5.3,30.1,9.9c1.3,0.6,2.4-1.3,1.1-1.9c-8.1-4-17.4-5.8-25.9-8.6
				c-5.3-1.7-23.3-5.9-19.7-14.1c7-15.6,36.3,13.5,39.9,21.8C838.5,552.5,840.4,551.3,839.9,550L839.9,550z"/>
		</g>
	</g>
	<g>
		<path class="st1" d="M843.4,565.4c-0.7-3.3-5.1-9.6-10.5-16.1c0,0,0,0,0-0.1c-9.5-11.6-22.9-22.1-28.5-9.8c0,0,0,0,0,0.1
			c-0.1,0.2-0.2,0.3-0.2,0.5c-0.9,2.2,1,4.7,4.4,7.5c0.1,0.1,0.1,0.1,0.2,0.1c5.1,4,13.6,8.1,21.4,11.9c0.2,0.1,0.5,0.2,0.7,0.3
			c5.6,2.8,10.8,6.8,14.1,6.8"/>
		<g>
			<path class="st0" d="M844.5,565.1c-1.3-4.5-4.4-8.5-7.2-12.2c-3.7-4.9-7.7-9.7-12.4-13.7c-5.3-4.5-14.4-10.2-20-2.9
				c-5.7,7.4,3.4,12.8,9.3,16.3c5.4,3.2,11.2,5.7,16.8,8.6c4.4,2.3,8.9,6,14,6.6c1.4,0.2,1.4-2.1,0-2.2c-4.3-0.5-8.3-3.9-12.1-5.9
				c-3.8-2-7.8-3.8-11.7-5.8c-5-2.6-20.9-9.6-14-16.8c10.1-10.5,32.9,20.8,35.1,28.7C842.7,567.1,844.9,566.5,844.5,565.1
				L844.5,565.1z"/>
		</g>
	</g>
	<g>
		<path class="st1" d="M844.9,583.4c-0.7-4.3-5.9-14.2-12.6-22.8c-0.7-0.9-1.5-1.8-2.2-2.7c-7.1-8.4-15.2-14.7-21.4-11.9
			c-0.4,0.2-0.8,0.4-1.1,0.6c-1.5,1-2.9,2.7-4,5c-1.1,2.3,0.5,5.2,3.8,8.3c0.3,0.3,0.6,0.6,1,0.9c6.8,6.1,19.3,13,28.9,18.6
			c0.5,0.3,1,0.6,1.4,0.8c2.5,1.5,4.8,2.9,6.7,4.1"/>
		<g>
			<path class="st0" d="M846,583.1c-2.1-10.5-10.3-21-17.5-28.7c-5.1-5.4-14.9-14.4-22.5-8c-8.3,7.1-0.5,14.1,6,18.8
				c10.4,7.6,22,13.2,32.8,20.2c1.2,0.8,2.3-1.2,1.1-1.9c-7.2-4.7-14.8-8.7-22.2-13.2c-5.6-3.4-25.8-14.2-16.3-22
				c8.3-6.8,19.5,7.2,24,13c4.9,6.3,10.8,14.3,12.4,22.3C844.1,585.1,846.2,584.5,846,583.1L846,583.1z"/>
		</g>
	</g>
	<g>
		<path class="st1" d="M840.2,488.2c-0.1-2.5-2.2-4.8-3.1-7.1c-0.9-2.2-1.7-4.7-2.2-7c-1.2-4.9-2.3-9.8-2.3-14.9
			c0-3.2-0.3-6,1.2-8.6c2.3-4,3.6-5.3,5.3-1.3c1.4,3.4,7,40.7,1.9,40.1c-0.1-1-0.4-2-1-2.7"/>
		<g>
			<path class="st0" d="M841.3,487.9c-0.9-4.9-4.1-9.2-5.3-14.1c-1.5-5.9-2.8-12.3-2.2-18.4c0.2-1.7,0.6-4.3,1.9-5.6
				c1.4-1.4,1.6-1.1,2.5,0c0.3,0.4,0.3,1.2,0.4,1.7c0.5,2.1,0.9,4.4,1.2,6.6c1,6.1,1.7,12.2,2.1,18.3c0.2,2.7,0.3,5.4,0.1,8.1
				c-0.1,1-0.4,2-0.4,2.9c-0.1,1.4,0.2,0.1-0.6-1.2c-0.7-1.3-2.7-0.1-1.9,1.1c0.3,0.8,0.6,1.6,0.9,2.5c0.1,0.5,0.6,0.8,1.1,0.8
				c7.5-0.1,1.2-32.1,0.3-36.6c-0.8-4.4-3.3-12-7.6-5.3c-3.1,4.8-2.5,11.1-1.8,16.5c0.6,4.3,1.5,8.7,2.8,12.8
				c1.1,3.6,3.6,6.9,4.3,10.6C839.4,489.9,841.5,489.3,841.3,487.9L841.3,487.9z"/>
		</g>
	</g>
	<g>
		<path class="st1" d="M842.1,488.8c0,32,1.8,64.3,3.2,96.2c1.7,36.8,1.4,72.9,2.3,109.7c1.6,65.9,3.1,132.4,3.1,198.4"/>
		<g>
			<path class="st0" d="M841,488.8c0.1,52.3,4.1,104.6,4.7,156.9c0.7,52.7,2.2,105.4,3.1,158.1c0.5,29.8,0.8,59.5,0.8,89.3
				c0,1.4,2.3,1.5,2.2,0c0-52.9-1-105.9-2.2-158.8c-1.2-52.3-1.1-104.8-3.5-157.1c-1.4-29.4-2.8-58.9-2.9-88.4
				C843.2,487.4,841,487.4,841,488.8L841,488.8z"/>
		</g>
	</g>
</g>
<g>
	<g>
		<g>
			<path class="st0" d="M1178.6,488.3c1.7-5.8,2.2-12,3.2-17.9c1.4-8.8,3-17.5,5.5-26.1c4.4-15.2,13.4-34.6,32.4-27
				c-0.3-0.5-0.5-0.9-0.8-1.4c-2.8,16.5-11.5,30.4-21.2,43.7c-8.5,11.6-17.7,23.1-22.1,37.1c-0.4,1.4,1.7,2,2.2,0.6
				c4.7-14.6,14.7-26.5,23.5-38.7c9.3-12.8,17.2-26.3,19.9-42c0.1-0.7-0.2-1.1-0.8-1.4c-17.9-7.2-28.4,8.1-33.5,23.2
				c-3.2,9.4-5.1,19.1-6.7,28.9c-1.1,6.7-1.7,13.8-3.6,20.4C1176,489.1,1178.2,489.7,1178.6,488.3L1178.6,488.3z"/>
		</g>
	</g>
	<g>
		<g>
			<path class="st0" d="M1179.7,554.1c9.3-11.1,21.8-18.2,33.6-26.2c12.1-8.2,22.7-17.8,30-30.6c0.2-0.4,0.2-1-0.2-1.4
				c-30-26.7-53.7,35.8-66.1,53.2c-0.8,1.2,1.1,2.3,1.9,1.1c4.8-6.7,8.3-14.4,12.4-21.6c5.6-9.6,11.6-19.4,19.5-27.3
				c6.7-6.7,16-12.5,25.4-7.6c1,0.5,3,1.5,3.7,2.4c1,1.4,0.4,1.9-0.6,3.4c-2.4,3.9-5.3,7.6-8.4,10.9c-5.1,5.5-11,10.1-17.1,14.3
				c-12.4,8.6-25.9,16-35.7,27.7C1177.2,553.6,1178.8,555.2,1179.7,554.1L1179.7,554.1z"/>
		</g>
	</g>
	<g>
		<g>
			<path class="st0" d="M1177.7,516.6c10.3-16.5,17.8-35.5,32.6-48.8c7.5-6.7,17-10.4,26-4c1.9,1.4,1.9,1.6,0.8,3.5
				c-0.8,1.6-2,3.1-3,4.5c-2.4,3.3-5,6.3-7.9,9.2c-5.1,5.1-10.9,9.4-16.9,13.5c-11.9,8.1-24.5,15.2-33.8,26.5
				c-0.9,1.1,0.7,2.7,1.6,1.6c9.2-11.1,21.6-18.1,33.4-26.1c12.2-8.3,22.9-17.8,30.2-30.7c0.2-0.4,0.2-1-0.2-1.4
				c-28.9-25.7-53.6,33.1-64.8,51.1C1175,516.7,1176.9,517.8,1177.7,516.6L1177.7,516.6z"/>
		</g>
	</g>
	<g>
		<g>
			<path class="st0" d="M1179.9,576.9c11.1-14.7,20-31.4,34.3-43.4c6.7-5.6,15.9-10.7,24.6-6.4c1.7,0.9,4.7,2.3,5.6,4.1
				c1,2-6,8.5-7.8,10.3c-5.4,5.3-11.7,9.8-18.2,13.6c-13.6,8.1-29,14-40.4,25.3c-1,1,0.6,2.6,1.6,1.6c10.3-10.2,23.9-15.9,36.3-22.9
				c12.3-6.9,23.2-15.3,31.4-27c0.3-0.4,0.1-1-0.2-1.4c-26.2-28.2-56.4,28.1-69.1,45C1177.1,576.9,1179,578.1,1179.9,576.9
				L1179.9,576.9z"/>
		</g>
	</g>
	<g>
		<g>
			<path class="st0" d="M1180.1,591.3c12.8-7.9,27.5-10.8,41.7-15.1c13.3-4.1,25.6-9.9,36-19.4c0.4-0.3,0.4-0.9,0.2-1.4
				c-20.6-34.3-61.9,17.6-79,30.3c-1.1,0.9,0,2.8,1.1,1.9c9.7-7.2,17.7-16.6,27-24.3c9.9-8.1,27.4-22.5,41.1-15
				c2.2,1.2,7.7,5.2,6.5,8.1c-0.4,1.1-5,4.1-5.5,4.4c-1.7,1.2-3.4,2.3-5.1,3.4c-7.1,4.3-14.9,7.3-22.9,9.7
				c-14.4,4.4-29.3,7.3-42.3,15.4C1177.7,590.1,1178.9,592.1,1180.1,591.3L1180.1,591.3z"/>
		</g>
	</g>
	<g>
		<g>
			<path class="st0" d="M1183.5,616.4c7.7-12.9,14.2-26.5,23.6-38.4c4.9-6.2,11-13,18.7-15.5c3.7-1.2,7.4-1.2,11.1,0.2
				c1.3,0.5,6.2,2.6,6.3,3.9c0.1,1.1-1.8,3.1-2.4,4c-14.7,22.2-41,30.4-58.5,49.5c-1,1.1,0.6,2.7,1.6,1.6
				c9.4-10.3,21.6-17.1,33-24.9c11.6-8,21.8-17.4,28.8-29.8c0.2-0.4,0.2-1-0.2-1.4c-27.8-25.8-53.5,32.1-63.9,49.6
				C1180.8,616.5,1182.7,617.6,1183.5,616.4L1183.5,616.4z"/>
		</g>
	</g>
	<g>
		<g>
			<path class="st0" d="M1183.5,642.7c7.7-12.9,14.2-26.5,23.6-38.4c4.9-6.2,11-13,18.7-15.5c3.7-1.2,7.4-1.2,11.1,0.2
				c1.3,0.5,6.2,2.6,6.3,3.9c0.1,1.1-1.8,3.1-2.4,4c-14.7,22.2-41,30.4-58.5,49.5c-1,1.1,0.6,2.7,1.6,1.6
				c9.4-10.3,21.6-17.1,33-24.9c11.6-8,21.8-17.4,28.8-29.8c0.2-0.4,0.2-1-0.2-1.4c-27.8-25.8-53.4,32-63.9,49.6
				C1180.8,642.8,1182.7,643.9,1183.5,642.7L1183.5,642.7z"/>
		</g>
	</g>
	<g>
		<g>
			<path class="st0" d="M1183.5,666.4c7.7-12.9,14.2-26.5,23.6-38.4c4.9-6.2,11-13,18.7-15.5c3.7-1.2,7.4-1.2,11.1,0.2
				c1.3,0.5,6.2,2.6,6.3,3.9c0.1,1.1-1.8,3.1-2.4,4c-14.7,22.2-41,30.4-58.5,49.5c-1,1.1,0.6,2.7,1.6,1.6
				c9.4-10.3,21.6-17.1,33-24.9c11.6-8,21.8-17.4,28.8-29.8c0.2-0.4,0.2-1-0.2-1.4c-27.8-25.8-53.5,32.1-63.9,49.6
				C1180.8,666.5,1182.7,667.6,1183.5,666.4L1183.5,666.4z"/>
		</g>
	</g>
	<g>
		<g>
			<path class="st0" d="M1185,720.8c9.3-11.1,21.8-18.2,33.6-26.2c12.1-8.2,22.7-17.8,30-30.6c0.2-0.4,0.2-1-0.2-1.4
				c-29.9-26.7-53.7,35.8-66.1,53.2c-0.8,1.2,1.1,2.3,1.9,1.1c4.8-6.7,8.3-14.4,12.4-21.6c5.6-9.6,11.6-19.4,19.5-27.3
				c6.7-6.7,16-12.5,25.4-7.6c1,0.5,3,1.5,3.7,2.4c1,1.4,0.4,1.9-0.6,3.4c-2.4,3.9-5.3,7.6-8.4,10.9c-5.1,5.5-11,10.1-17.1,14.3
				c-12.4,8.6-25.9,16-35.7,27.7C1182.5,720.3,1184.1,721.9,1185,720.8L1185,720.8z"/>
		</g>
	</g>
	<g>
		<g>
			<path class="st0" d="M1184.7,683.3c10.3-16.5,17.8-35.5,32.6-48.8c7.5-6.7,17-10.4,26-4c1.9,1.4,1.9,1.6,0.8,3.5
				c-0.8,1.6-2,3.1-3,4.5c-2.4,3.3-5,6.3-7.9,9.2c-5.1,5.1-10.9,9.4-16.9,13.5c-11.9,8.1-24.4,15.3-33.8,26.4
				c-0.9,1.1,0.7,2.7,1.6,1.6c9.3-11,21.6-18.1,33.4-26.1c12.2-8.3,22.9-17.8,30.2-30.7c0.2-0.4,0.2-1-0.2-1.4
				c-28.9-25.7-53.6,33.1-64.8,51.1C1182,683.4,1183.9,684.5,1184.7,683.3L1184.7,683.3z"/>
		</g>
	</g>
	<g>
		<g>
			<path class="st0" d="M1185.2,743.6c11-14.6,19.8-31,33.9-43.1c6.6-5.6,15.6-10.9,24.3-7c1.9,0.8,4.7,2.2,5.8,4
				c1,1.7-0.3,2.6-1.7,4.3c-1.4,1.8-2.9,3.5-4.5,5.2c-5.5,5.7-11.9,10.3-18.6,14.4c-13.8,8.3-29.5,14.3-41.1,25.8
				c-1,1,0.6,2.6,1.6,1.6c10.5-10.3,24.4-16.1,37-23.3c12-6.8,22.7-15.2,30.7-26.6c0.3-0.4,0.1-1-0.2-1.4
				c-26.2-28.2-56.4,28.1-69.1,45C1182.4,743.6,1184.3,744.7,1185.2,743.6L1185.2,743.6z"/>
		</g>
	</g>
	<g>
		<g>
			<path class="st0" d="M1185.4,758c12.8-7.9,27.5-10.8,41.7-15.1c13.3-4.1,25.6-9.9,36-19.4c0.4-0.3,0.4-0.9,0.2-1.4
				c-20.5-34.3-61.9,17.6-79,30.3c-1.1,0.9,0,2.8,1.1,1.9c9.7-7.2,17.7-16.6,27-24.3c9.9-8.1,27.4-22.5,41.1-15
				c2.2,1.2,7.7,5.2,6.5,8.1c-0.4,1.1-5,4.1-5.5,4.4c-1.7,1.2-3.4,2.3-5.1,3.4c-7.1,4.3-14.9,7.3-22.9,9.7
				c-14.4,4.4-29.3,7.3-42.3,15.4C1183,756.8,1184.1,758.7,1185.4,758L1185.4,758z"/>
		</g>
	</g>
	<g>
		<g>
			<path class="st0" d="M1185.2,783c7.7-12.9,14.2-26.5,23.6-38.4c4.9-6.2,11-13,18.7-15.5c3.7-1.2,7.4-1.2,11.1,0.2
				c1.3,0.5,6.2,2.6,6.3,3.9c0.1,1.1-1.8,3.1-2.4,4c-14.7,22.2-41,30.4-58.5,49.5c-1,1.1,0.6,2.7,1.6,1.6
				c9.4-10.3,21.6-17.1,33-24.9c11.6-8,21.8-17.4,28.8-29.8c0.2-0.4,0.2-1-0.2-1.4c-27.9-25.7-53.4,31.9-63.9,49.6
				C1182.5,783.1,1184.5,784.3,1185.2,783L1185.2,783z"/>
		</g>
	</g>
	<g>
		<g>
			<path class="st0" d="M1187,809.3c7.7-12.9,14.2-26.5,23.5-38.4c4.9-6.2,11-13,18.7-15.5c3.7-1.2,7.4-1.2,11.1,0.2
				c1.3,0.5,6.2,2.6,6.3,3.9c0.1,1.1-1.8,3.1-2.4,4c-14.7,22.2-41,30.4-58.5,49.5c-1,1.1,0.6,2.7,1.6,1.6
				c9.4-10.3,21.6-17.1,33-24.9c11.6-8,21.8-17.4,28.8-29.8c0.2-0.4,0.2-1-0.2-1.4c-27.8-25.8-53.4,32-63.9,49.6
				C1184.3,809.5,1186.2,810.6,1187,809.3L1187,809.3z"/>
		</g>
	</g>
	<g>
		<g>
			<path class="st0" d="M1187,833c7.7-12.9,14.2-26.5,23.5-38.4c4.9-6.2,11-13,18.7-15.5c3.7-1.2,7.4-1.2,11.1,0.2
				c1.3,0.5,6.2,2.6,6.3,3.9c0.1,1.1-1.8,3.1-2.4,4c-14.7,22.2-41,30.4-58.5,49.5c-1,1.1,0.6,2.7,1.6,1.6
				c9.4-10.3,21.6-17.1,33-24.9c11.6-8,21.8-17.4,28.8-29.8c0.2-0.4,0.2-1-0.2-1.4c-27.9-25.7-53.4,32-63.9,49.6
				C1184.3,833.1,1186.2,834.3,1187,833L1187,833z"/>
		</g>
	</g>
	<g>
		<g>
			<path class="st0" d="M1187,856.7c7.7-12.9,14.2-26.5,23.5-38.4c4.9-6.2,11-13,18.7-15.5c3.7-1.2,7.4-1.2,11.1,0.2
				c1.3,0.5,6.2,2.6,6.3,3.9c0.1,1.1-1.8,3.1-2.4,4c-14.7,22.2-41,30.4-58.5,49.5c-1,1.1,0.6,2.7,1.6,1.6
				c9.4-10.3,21.6-17.1,33-24.9c11.6-8,21.8-17.4,28.8-29.8c0.2-0.4,0.2-1-0.2-1.4c-27.9-25.7-53.4,32-63.9,49.6
				C1184.3,856.8,1186.2,858,1187,856.7L1187,856.7z"/>
		</g>
	</g>
	<g>
		<g>
			<path class="st0" d="M1187,880.4c7.7-12.9,14.2-26.5,23.5-38.4c4.9-6.2,11-13,18.7-15.5c3.7-1.2,7.4-1.2,11.1,0.2
				c1.3,0.5,6.2,2.6,6.3,3.9c0.1,1.1-1.8,3.1-2.4,4c-14.7,22.2-41,30.4-58.5,49.5c-1,1.1,0.6,2.7,1.6,1.6
				c9.4-10.3,21.6-17.1,33-24.9c11.6-8,21.8-17.4,28.8-29.8c0.2-0.4,0.2-1-0.2-1.4c-27.9-25.7-53.4,31.9-63.9,49.7
				C1184.3,880.5,1186.2,881.6,1187,880.4L1187,880.4z"/>
		</g>
	</g>
	<g>
		<g>
			<path class="st0" d="M1182.9,714.9c-19-17.3-45.7-23.1-62.4-43.5c-0.3-0.4-3.2-3.3-3.2-4.3c-0.1-1.4,4.8-4,6.1-4.6
				c3.6-1.8,7.6-2,11.5-1c7.7,2,14.1,7.9,19.4,13.6c10.4,10.9,18.1,23.9,26.9,36.1c0.8,1.2,2.8,0,1.9-1.1
				c-12-16.6-42.8-72-68.1-43.9c-0.3,0.3-0.5,0.9-0.2,1.4c8.1,11.7,19,20.1,31.3,27.1c12,6.8,24.8,12.5,35.1,21.9
				C1182.3,717.5,1183.9,715.9,1182.9,714.9L1182.9,714.9z"/>
		</g>
	</g>
	<g>
		<g>
			<path class="st0" d="M1185,738.5c-19-17.3-45.7-23.1-62.4-43.5c-0.3-0.4-3.2-3.3-3.2-4.3c-0.1-1.4,4.8-4,6.1-4.6
				c3.6-1.8,7.6-2,11.5-1c7.7,2,14.1,7.9,19.4,13.6c10.4,10.9,18.1,23.9,26.9,36.1c0.8,1.2,2.8,0,1.9-1.1
				c-12-16.6-42.8-72.1-68.1-43.9c-0.3,0.3-0.5,0.9-0.2,1.4c8.1,11.7,19,20.1,31.3,27.1c12,6.8,24.8,12.5,35.1,21.9
				C1184.5,741.1,1186.1,739.5,1185,738.5L1185,738.5z"/>
		</g>
	</g>
	<g>
		<g>
			<path class="st0" d="M1185.4,784c-13.9-16.1-43.1-76.1-70.5-46.9c-0.3,0.3-0.5,0.9-0.2,1.4c8.4,12.1,19.8,20.7,32.6,27.8
				c12.5,6.9,25.6,12.9,35.8,23.1c1,1,2.6-0.6,1.6-1.6c-9.5-9.6-21.6-15.5-33.3-21.8c-6.8-3.7-13.5-7.6-19.5-12.4
				c-2.7-2.1-5.2-4.4-7.5-6.8c-1.4-1.5-2.8-3-4-4.6c-0.6-0.7-2.6-2.7-2.7-3.5c-0.1-1.1,0-0.7,0.7-1.8c2.7-3.7,9-5.4,13.3-5
				c4.8,0.4,9.1,2.8,13,5.6c9.1,6.5,16.3,15.8,22.8,24.9c5.5,7.7,10.2,16.2,16.4,23.4C1184.7,786.7,1186.3,785.1,1185.4,784
				L1185.4,784z"/>
		</g>
	</g>
	<g>
		<g>
			<path class="st0" d="M1184.5,756.1c-19.5-19.5-49.6-24.6-66.2-47.8c-1.4-1.9-1.5-2,0.2-3.5c1-0.9,2.1-1.7,3.2-2.4
				c2.1-1.2,4.4-2.1,6.9-2.3c4.6-0.4,9.1,1.4,13,3.8c9.3,5.6,16.5,14.6,22.9,23.1c6,8.1,11.2,16.7,17.3,24.8c0.9,1.1,2.8,0,1.9-1.1
				c-12.7-16.9-42.7-73.4-69.1-45.3c-0.3,0.3-0.5,0.9-0.2,1.4c8.5,12.2,19.9,20.8,32.8,27.9c12.4,6.9,25.4,12.8,35.6,23
				C1184,758.7,1185.6,757.1,1184.5,756.1L1184.5,756.1z"/>
		</g>
	</g>
	<g>
		<g>
			<path class="st0" d="M1186.8,810.7c-14-15.7-49.2-68.7-72.7-38.5c-0.4,0.5-0.4,1.1,0,1.6c9,10.6,20.3,17.9,32.9,23.6
				c12.8,5.8,26.2,10.3,37.6,18.8c1.2,0.9,2.3-1.1,1.1-1.9c-11.1-8.3-23.8-12.7-36-18.1c-13-5.8-24.8-13-34.1-24c0,0.5,0,1.1,0,1.6
				c22-28.4,56.3,23.6,69.5,38.5C1186.2,813.3,1187.8,811.7,1186.8,810.7L1186.8,810.7z"/>
		</g>
	</g>
	<g>
		<g>
			<path class="st0" d="M1187.2,824.5c-12.6-6.4-26.3-8.4-40-11c-14.5-2.7-28.5-7.5-40.2-16.5c0.1,0.5,0.3,1,0.4,1.5
				c15.8-33,60.9,12.5,77.4,23.6c1.2,0.8,2.3-1.1,1.1-1.9c-15.9-10.7-26.4-21.9-43.3-30.2c-13.8-6.7-29.6-8.5-37.2,7.4
				c-0.3,0.6-0.1,1.1,0.4,1.5c10.6,8.2,23.4,13.2,36.5,15.9c14.9,3.1,30,4.6,43.8,11.6C1187.4,827.1,1188.5,825.1,1187.2,824.5
				L1187.2,824.5z"/>
		</g>
	</g>
	<g>
		<g>
			<path class="st0" d="M1186.7,855.3c-19-17.3-45.7-23.1-62.4-43.5c-0.3-0.4-3.2-3.3-3.2-4.3c-0.1-1.4,4.8-4,6.1-4.6
				c3.6-1.8,7.6-2,11.5-1c7.7,2,14.1,7.9,19.4,13.6c10.4,10.9,18.1,23.9,26.9,36.1c0.8,1.2,2.8,0,1.9-1.1
				c-12-16.7-42.7-71.9-68.1-43.9c-0.3,0.3-0.5,0.9-0.2,1.4c8.1,11.7,19,20.1,31.3,27.1c12,6.8,24.8,12.5,35.1,21.9
				C1186.2,857.9,1187.8,856.3,1186.7,855.3L1186.7,855.3z"/>
		</g>
	</g>
	<g>
		<g>
			<path class="st0" d="M1187.5,880.2c-9.8-8.3-21.3-13.8-32.4-20c-12.6-7-23.8-15.3-32.1-27.2c-0.1,0.5-0.3,1-0.4,1.5
				c2.2-1,3.7-3.3,5.8-4.6c3.6-2.2,6.2-2.1,10.1-1.5c8.1,1.2,13.9,5.8,19.7,11.4c0.6,0.6,1.7,0.4,1.9-0.5c0-0.1,0-0.1,0-0.2
				c-0.6,0.2-1.3,0.3-1.9,0.5c10.7,10.6,18.8,23.4,27.3,35.7c0.8,1.2,2.8,0.1,1.9-1.1c-8.6-12.5-16.8-25.4-27.7-36.2
				c-0.6-0.6-1.7-0.4-1.9,0.5c0,0.1,0,0.1,0,0.2c0.6-0.2,1.3-0.3,1.9-0.5c-6-5.9-12.1-10.8-20.6-12c-3.2-0.5-5.9-0.8-9.1,0.4
				c-3.5,1.3-5.5,4.6-8.7,6.1c-0.5,0.2-0.7,1.1-0.4,1.5c7.4,10.7,17.2,18.8,28.4,25.4c12.3,7.3,25.5,12.9,36.5,22.2
				C1187,882.7,1188.6,881.1,1187.5,880.2L1187.5,880.2z"/>
		</g>
	</g>
	<g>
		<g>
			<path class="st0" d="M1188,902.4c-18.7-15-42.9-21.3-58.7-40.2c-0.8-1-3.3-3.1-3.5-4.5c-0.2-1.5,3.5-3.7,5-4.6
				c3.2-1.8,6.6-2.2,10.2-1.5c7.4,1.4,13.8,6.2,19.1,11.3c10.3,9.8,18.1,22,26,33.7c0.8,1.2,2.8,0.1,1.9-1.1
				c-11.7-17.2-40.1-64.2-64.7-39c-0.3,0.3-0.5,1-0.2,1.4c7.7,11.1,17.8,19.3,29.4,26c11.4,6.6,23.5,11.9,33.8,20.2
				C1187.5,904.9,1189.1,903.3,1188,902.4L1188,902.4z"/>
		</g>
	</g>
	<g>
		<g>
			<path class="st0" d="M1180.7,647.1c-0.1,0.1-0.1,0.1-0.2,0.2c-1,1,0.6,2.6,1.6,1.6c0.1-0.1,0.1-0.1,0.2-0.2
				C1183.3,647.7,1181.7,646.1,1180.7,647.1L1180.7,647.1z"/>
		</g>
	</g>
	<g>
		<g>
			<path class="st0" d="M1183.2,643.5c-12.6-17.2-36.1-79.9-66.1-53.1c-0.4,0.3-0.4,0.9-0.2,1.4c9.1,16.1,21.2,29.5,36.6,39.7
				c5.4,3.6,11.1,6.7,16.7,10c4.2,2.5,8.6,5,11.7,9c0.9,1.1,2.5-0.5,1.6-1.6c-5.6-7.1-15.1-10.8-22.6-15.3
				c-13.4-8-25.3-18-34.4-30.7c-1.4-2-2.8-4-4.1-6.1c-0.8-1.2-3.3-4-2.9-5.3c0.5-1.9,6.3-4,8-4.4c5.2-1.4,10.3,0.2,14.7,3
				c10,6.3,17.1,17.3,23.2,27.2c5.5,9,9.8,19.1,16,27.6C1182.1,645.8,1184.1,644.6,1183.2,643.5L1183.2,643.5z"/>
		</g>
	</g>
	<g>
		<g>
			<path class="st0" d="M1183.4,664c-14-15.9-43.3-76.1-70.6-46.7c-0.3,0.3-0.5,0.9-0.2,1.4c8.7,12.4,20.5,21.1,33.7,28.3
				c12.9,7,26.3,13.2,36.5,24.1c1,1.1,2.6-0.5,1.6-1.6c-9.7-10.4-22.3-16.6-34.6-23.2c-6.6-3.5-13.1-7.3-19-11.8
				c-3.2-2.5-6.2-5.2-9-8.1c-1.2-1.3-2.4-2.6-3.5-4c0.5,0.6-2.7-3.1-2.7-3.5c0-1.4-0.1-0.8,1-2.1c7.1-8.3,18.9-4.3,26.2,1
				c9.3,6.7,16.5,16.2,23.1,25.4c5.3,7.4,9.9,15.7,15.9,22.5C1182.8,666.7,1184.3,665.1,1183.4,664L1183.4,664z"/>
		</g>
	</g>
	<g>
		<g>
			<path class="st0" d="M1184.2,679.9c-6.1-4.4-11.3-10.2-16.8-15.2c-7.4-6.8-15-13.4-23.4-19c-13.4-8.9-32-15.9-42.1,1.2
				c-0.2,0.4-0.2,1,0.2,1.4c11.1,10.2,24.5,16.1,38.8,20.3c14.2,4.1,28.7,7.3,41,15.7c1.2,0.8,2.3-1.1,1.1-1.9
				c-12.7-8.7-27.7-11.9-42.3-16.2c-8.3-2.5-16.5-5.4-24.1-9.8c-1.8-1.1-3.6-2.2-5.4-3.5c-1.6-1.1-5.5-3.1-6.4-5.1
				c-0.8-1.9,2-4.4,3.7-5.8c7.9-6.7,18.9-3,27,1.3c10,5.3,18.9,12.8,27.3,20.3c6.7,6,12.9,12.9,20.1,18.2
				C1184.2,682.7,1185.3,680.7,1184.2,679.9L1184.2,679.9z"/>
		</g>
	</g>
	<g>
		<g>
			<path class="st0" d="M1177.2,501.2c-12.9-12.6-26.5-24.5-39.1-37.4c-5.8-6-11.6-12.1-16.4-19c-2.6-3.8-7.2-10.1-5.1-15
				c2-4.7,8.6-8.7,13.6-8.7c5.2,0,9.8,3.3,13.4,6.7c10,9.5,16.5,23.1,21.6,35.7c4.4,10.8,10,24.2,9.3,36.1c-0.1,1.4,2.2,1.4,2.2,0
				c0.6-11.9-4.7-25-9-35.8c-5.3-13.3-12-27.6-22.6-37.6c-8.2-7.8-18.6-10.2-27.3-1.6c-3.8,3.7-4.9,7.2-3.1,12.3
				c2.3,6.6,7.2,12.4,11.7,17.6c14.9,17.4,32.7,32.3,49.1,48.2C1176.6,503.8,1178.2,502.2,1177.2,501.2L1177.2,501.2z"/>
		</g>
	</g>
	<g>
		<g>
			<path class="st0" d="M1177.7,528.6c-10.5-5.7-21.4-10.7-32-16.1c-10-5.1-21.7-10.4-29.5-18.7c-3.4-3.6-4.2-6.5-1.7-10.8
				c2.4-4.2,6.2-6.8,11.2-6.3c10.6,1,20,10.8,26.8,18.1c8.4,9.1,18.8,21,22.1,33.3c0.4,1.4,2.5,0.8,2.2-0.6
				c-3.2-12-13-23.5-21.1-32.6c-7.4-8.2-17.4-18.7-28.9-20.3c-7.4-1-17,5.4-16.2,13.7c0.4,3.9,3.7,7.1,6.5,9.4
				c4.7,4,10,7.2,15.3,10.2c14.4,8.2,29.6,14.8,44.2,22.6C1177.8,531.2,1179,529.3,1177.7,528.6L1177.7,528.6z"/>
		</g>
	</g>
	<g>
		<g>
			<path class="st0" d="M1176.7,551.6c-3.2-7.6-10.2-14.2-16-19.8c-8.1-7.8-17.1-15.2-27.2-20.2c-6.6-3.2-15.7-6.5-22.4-1.6
				c-3.1,2.3-5,6-5.8,9.7c-1.6,6.6,4.8,10.7,9.9,13.5c19.3,10.7,42,14.3,62.6,21.9c1.4,0.5,1.9-1.7,0.6-2.2
				c-16.1-5.9-32.9-9.8-48.9-15.9c-6.1-2.3-19.9-6.5-21.8-13.8c-1.1-4,2-9.6,5.5-11.8c6.8-4.3,16.4,0.3,22.6,3.8
				c8.6,4.9,16.4,11.3,23.6,18.1c5.7,5.5,12.5,11.9,15.7,19.4C1175.4,554,1177.3,552.9,1176.7,551.6L1176.7,551.6z"/>
		</g>
	</g>
	<g>
		<g>
			<path class="st0" d="M1171.9,571.6c-4.2-10.1-14.2-18.9-22.2-25.9c-9.2-8-21-17.5-33.6-18.6c-4.7-0.4-9.2,0.9-12.2,4.6
				c-2.5,3-5,8.2-3.7,12.1c1.5,4.3,6.4,7.1,10.1,9.1c6.2,3.4,13,5.9,19.6,8.2c8.8,3,17.7,5.7,26.6,8.4c6.9,2.1,14.2,4,20.6,7.2
				c1.3,0.6,2.4-1.3,1.1-1.9c-10.2-5.1-21.9-7.6-32.7-10.9c-12.7-3.9-26.8-7.5-37.9-15c-4.1-2.8-6.5-5.6-4.8-10.7
				c1.8-5,5.4-8.6,10.8-8.8c11.6-0.5,23.6,9,32,16c5.3,4.4,10.3,9.2,14.9,14.3c3.4,3.7,7.1,7.9,9.1,12.6
				C1170.2,573.5,1172.4,572.9,1171.9,571.6L1171.9,571.6z"/>
		</g>
	</g>
	<g>
		<g>
			<path class="st0" d="M1179.3,595.8c-1.3-5.2-4.6-9.9-7.7-14.2c-4-5.7-8.4-11.3-13-16.5c-7.4-8.5-17.5-19.1-29.1-21.3
				c-7.6-1.4-15.8,3.9-17,11.9c-0.7,5,4.5,9.3,8,12.1c5.2,4.2,11.1,7.4,17,10.5c8.3,4.4,16.9,8.1,25.1,12.7
				c5.6,3.1,11.5,7.8,18.1,8.3c1.4,0.1,1.4-2.1,0-2.2c-6.9-0.6-13.5-6.2-19.3-9.3c-6.9-3.7-14.1-6.9-21.1-10.6
				c-6.3-3.3-12.7-6.7-18.3-11.2c-3.4-2.7-8.5-6.7-6.6-11.7c1-2.5,2.7-5,4.9-6.6c10.8-7.9,26.2,7.6,32.9,14.7
				c5.2,5.5,10,11.4,14.5,17.5c3.6,4.9,7.9,10.4,9.5,16.4C1177.5,597.8,1179.6,597.2,1179.3,595.8L1179.3,595.8z"/>
		</g>
	</g>
	<g>
		<g>
			<path class="st0" d="M1181.6,625.3c-2.2-11.9-10.6-23.6-17.5-33.2c-7.9-10.9-18.3-24.3-31.6-28.7c-4.4-1.5-9-1.5-13,1
				c-3.8,2.3-8.1,7.4-8.2,12c-0.1,5.4,5,10.1,8.7,13.4c4.9,4.3,10.3,8.1,15.8,11.7c14.7,9.6,30.3,17.5,44.9,27.1
				c1.2,0.8,2.3-1.1,1.1-1.9c-13.2-8.7-27.3-16-40.7-24.4c-6.4-4-12.8-8.2-18.6-13.1c-2.8-2.4-5.7-5-7.5-8.2c-2.9-5,0.1-10,4.2-13.4
				c13.3-10.8,31.5,11.3,38.8,20.4c5.3,6.7,10.1,13.8,14.2,21.2c3,5.3,6.1,11,7.2,17C1179.7,627.3,1181.9,626.7,1181.6,625.3
				L1181.6,625.3z"/>
		</g>
	</g>
	<g>
		<g>
			<path class="st0" d="M1174,469.6c-0.6-4-2.8-7-4.5-10.5c-2.2-4.5-3.4-9.6-4.6-14.5c-2.3-9.8-5-21.4-2.9-31.5c0.7-3.6,5-13,8.3-6
				c0.4,0.9,0.6,2.1,0.8,3.1c0.8,3.7,1.4,7.4,2,11.1c1.6,10.5,2.9,21,3.4,31.6c0.2,4.2,0.4,8.6-0.2,12.8c-0.2,1.5-0.4,2.9-1,4.2
				c-0.1,0.3-0.4,0.8-0.7,0.8c1.6-0.2-0.7-3.5-1-3.9c-0.8-1.2-2.7-0.1-1.9,1.1c0.9,1.3,1.5,2.7,1.6,4.2c0.1,0.5,0.6,0.8,1.1,0.8
				c9.3,0.3,3-37.4,2.4-42.1c-1-7.7-1.8-15.7-3.9-23.1c-0.7-2.4-1.9-6.5-4.9-6.6c-4.5-0.1-7.6,8.8-8.2,12.1
				c-1.5,9.2,0.2,19.3,2.2,28.2c1.1,5.2,2.4,10.4,4.3,15.4c1.7,4.5,5,8.4,5.7,13.2C1172,471.7,1174.2,471,1174,469.6L1174,469.6z"/>
		</g>
	</g>
	<g>
		<g>
			<path class="st0" d="M1174.9,471c0.1,43,2,85.9,3.9,128.9c2,42.9,3.3,85.8,3.8,128.8c1.1,85.9,3.6,171.8,5,257.7
				c0.8,48.4,1.3,96.9,1.3,145.3c0,1.4,2.3,1.5,2.2,0c0-86.4-1.6-172.8-3.6-259.1c-1-42.7-2.1-85.5-2.6-128.2
				c-0.5-43-1.2-85.9-3.2-128.9c-2.2-48.2-4.6-96.3-4.7-144.5C1177.2,469.5,1174.9,469.5,1174.9,471L1174.9,471z"/>
		</g>
	</g>
</g>
<path class="st2" d="M924.4,362.2c0,0-0.1-0.1-0.2-0.2"/>
<g>
	<path class="st3" d="M935.7,224.6c0.8,18.9-4.7,39.1-6.5,57.8c-4.6,48.5-13,95.5-6.9,144.1c6.7,53,36.3,100.8,57.6,148.8
		c18.4,41.5,30,77.8,23.6,123.4c-4.6,33.2-15.7,64.6-15.9,98.5"/>
	<path class="st3" d="M933.5,241.3c-3.3-10.8-5.4-67.7-33.2-56c4.3,26.8,27.2,41.5,33.9,63.1"/>
	<path class="st3" d="M931.6,259.9c-5.8-9.7-21.5-64.4-45.7-46.4c10.6,24.9,34,31.3,45.6,50.7"/>
	<path class="st3" d="M929.2,266.1c-6.4-9.3-25.8-62.8-48.7-43.2c12.2,24.2,36,29,48.9,47.5"/>
	<path class="st3" d="M929,289.4c-0.1-0.2-0.3-0.3-0.4-0.5c-7.2-10.4-28.1-60.9-49.9-40.8c12.8,23.1,35.8,27.4,49.5,44.2"/>
	<path class="st3" d="M927.5,307.7c-0.2-0.3-0.5-0.6-0.8-0.9c-8.4-10.6-33.6-57.3-53.1-35.6c3.2,4.8,6.9,8.6,10.8,11.8
		c6.8,5.6,14.3,9.5,21.5,13.3c7.3,3.9,14.5,7.8,20.5,13.7"/>
	<path class="st3" d="M925.7,314.2c-9.2-6.5-45.7-50.2-60.5-24c19.8,18.5,43.7,15,62.2,28"/>
	<path class="st3" d="M923,340.9c-13.9-15.5-35.7-20.3-48.1-42.5c0.2-0.2,0.3-0.3,0.5-0.5c11.2-9.7,22.2-1,31.2,11.2
		c7.2,9.8,13.2,21.8,16.8,27.9"/>
	<path class="st3" d="M921.4,358.7c-5.8-5.3-12.5-7.2-19.4-13.2h0c-7.2-5-14.7-7.1-21.5-12.8c-3.9-3.2-7.5-6.7-10.8-11.5
		c18.7-20.8,42.6,21.1,51.9,34"/>
	<path class="st3" d="M921,366.9c-18.1-11-40.8-8.6-59.6-26.3c4.8-8.4,11.8-10.1,19.3-7.6c6.8,2.2,14.2,7.6,20.9,12.6h0
		c8.4,6,15.7,15,19.5,18"/>
	<path class="st3" d="M923.6,359c6.7-9,28.1-61.8,50.3-41.3c-18.1,32.7-43.3,35.9-50.7,45.6"/>
	<path class="st3" d="M921.3,377.3c7.5-8.4,33.7-58.9,53.9-36.5c-15.3,22.4-39.4,24.1-54.7,40.8"/>
	<path class="st3" d="M920.5,389.8c9.2-6.5,48.2-52.4,63.1-26.1c-19.8,18.5-43.7,15-62.2,28"/>
	<path class="st3" d="M941.1,246.3c-1-14.6,24.5-83.1,46.3-55.9c9.1,11.4-44.7,52.7-54.4,65.8"/>
	<path class="st3" d="M934.9,268.1c2.7-11.7,39.1-59.5,49.8-32.9c4.5,11.1-43.8,28.8-54.5,36.7"/>
	<path class="st3" d="M932.8,287.2c4.5-11.1,48.2-52.4,54.4-24.4c0.6,2.6-1.4,5-4.9,7.3c-7,4.6-20.3,8.9-32.3,12.5
		c-8.8,2.7-17,5.1-21.5,7.1"/>
	<path class="st3" d="M932.6,302.7c4.4-11.2,47.9-52.6,54.5-24.6c2.8,11.7-47.9,21.4-59.8,27.6"/>
	<path class="st3" d="M924.9,323.3c4.2-0.1,10.9-5.2,18.1-8.7c0.3-0.2,0.6-0.3,0.9-0.4c10-4.9,20.8-10.1,27.3-15.2
		c0.1-0.1,0.2-0.1,0.2-0.2c4.4-3.5,6.8-6.7,5.6-9.5c-0.1-0.2-0.2-0.5-0.3-0.7c0,0,0,0,0-0.1c-7.1-15.8-24.3-2.3-36.4,12.5
		c0,0,0,0,0,0.1c-6.8,8.3-12.5,16.4-13.4,20.6"/>
	<path class="st3" d="M924.9,346.7c0.9-6,9-20.8,18.9-32.5c9-10.7,19.5-18.8,27.3-15.2c2.5,1.1,4.8,3.4,6.6,7.2
		c1.4,3-0.7,6.6-4.8,10.6c-8.8,8.4-26.9,18.3-40,26c-4.3,2.5-8,4.8-10.7,6.7"/>
	<path class="st3" d="M937.1,223c0.2-3.2,2.8-6.2,3.9-9.1c1.2-2.8,2.1-6,2.8-9c1.5-6.3,2.9-12.5,2.9-19c0-4,0.4-7.6-1.5-11
		c-3-5.1-4.6-6.8-6.8-1.6c-1.8,4.4-8.9,51.9-2.4,51.2c0.1-1.3,0.6-2.6,1.3-3.5"/>
</g>
<g>
	<path class="st3" d="M351.8,288.7c-0.8,20.2,5,41.8,6.9,61.8c4.9,51.9,13.9,102,7.4,154c-7.1,56.7-38.8,107.7-61.6,159
		c-19.7,44.4-32.1,83.2-25.3,131.9c5,35.5,16.8,69,17,105.3"/>
	<path class="st3" d="M354.2,306.6c3.5-11.5,5.7-72.3,35.5-59.9c-4.6,28.6-29.1,44.4-36.2,67.4"/>
	<path class="st3" d="M356.2,326.5c6.2-10.4,23-68.8,48.8-49.6c-11.3,26.7-36.3,33.5-48.8,54.2"/>
	<path class="st3" d="M358.8,333.1c6.8-9.9,27.5-67.1,52-46.2c-13.1,25.8-38.5,31-52.3,50.8"/>
	<path class="st3" d="M368.7,458c0.2-0.1,0.4-0.3,0.6-0.5c10.3-8.7,46.3-54.7,63-27.8c-19.8,20.1-44.7,18-63.6,31.4"/>
	<path class="st3" d="M360.6,377.6c0.3-0.3,0.5-0.6,0.8-1c9-11.4,35.9-61.2,56.8-38c-3.5,5.1-7.4,9.2-11.5,12.6
		c-7.2,6-15.3,10.1-23,14.3c-7.9,4.2-15.5,8.4-21.9,14.6"/>
	<path class="st3" d="M362.5,384.5c9.8-7,48.8-53.7,64.7-25.6c-21.1,19.8-46.7,16-66.5,29.9"/>
	<path class="st3" d="M365.4,413.1c14.8-16.5,38.2-21.7,51.4-45.5c-0.2-0.2-0.4-0.4-0.6-0.5c-12-10.4-23.7-1-33.3,12
		c-7.7,10.5-14.1,23.3-18,29.9"/>
	<path class="st3" d="M367.1,432.1c6.2-5.6,13.3-7.7,20.7-14.1h0c7.7-5.3,15.7-7.6,22.9-13.7c4.1-3.4,8.1-7.2,11.5-12.3
		c-20-22.2-45.5,22.5-55.5,36.3"/>
	<path class="st3" d="M367.6,440.8c19.3-11.8,43.6-9.2,63.7-28.1c-5.1-9-12.6-10.7-20.7-8.1c-7.3,2.3-15.2,8.1-22.3,13.4h0
		c-9,6.4-16.7,16.1-20.8,19.3"/>
	<path class="st3" d="M364.7,432.5c-7.2-9.7-30.1-66-53.7-44.2c19.4,34.9,46.3,38.4,54.2,48.8"/>
	<path class="st3" d="M367.2,452c-8.1-8.9-36-63-57.6-39c16.3,23.9,42.2,25.7,58.4,43.6"/>
	<path class="st3" d="M368.1,465.4c-9.8-7-51.5-56-67.4-27.9c21.1,19.8,46.7,16,66.5,29.9"/>
	<path class="st3" d="M346,311.9c1.1-15.6-26.2-88.8-49.5-59.8c-9.8,12.1,47.8,56.4,58.2,70.3"/>
	<path class="st3" d="M352.7,335.3c-2.9-12.5-41.8-63.6-53.2-35.2c-4.8,11.9,46.8,30.8,58.3,39.2"/>
	<path class="st3" d="M355,355.7c-4.8-11.9-51.5-56-58.2-26.1c-0.6,2.7,1.5,5.3,5.2,7.8c7.5,5,21.7,9.5,34.5,13.3
		c9.4,2.9,18.1,5.4,22.9,7.6"/>
	<path class="st3" d="M355.2,372.2c-4.7-12-51.2-56.3-58.2-26.3c-3,12.6,51.2,22.9,63.9,29.5"/>
	<path class="st3" d="M363.4,394.2c-4.5-0.1-11.6-5.5-19.3-9.3c-0.3-0.2-0.6-0.3-1-0.5c-10.7-5.3-22.2-10.8-29.2-16.2
		c-0.1-0.1-0.2-0.1-0.2-0.2c-4.7-3.8-7.2-7.1-6-10.2c0.1-0.3,0.2-0.5,0.3-0.7c0,0,0,0,0-0.1c7.6-16.9,26-2.5,38.9,13.3
		c0,0,0,0,0,0.1c7.3,8.8,13.4,17.5,14.3,22"/>
	<path class="st3" d="M363.3,419.2c-1-6.4-9.7-22.3-20.2-34.8c-9.6-11.4-20.8-20.1-29.2-16.2c-2.7,1.2-5.1,3.7-7.1,7.7
		c-1.5,3.2,0.7,7.1,5.2,11.4c9.4,9,28.8,19.6,42.7,27.8c4.6,2.7,8.6,5.1,11.5,7.2"/>
	<path class="st3" d="M361.6,519.8c-9-8-43-58.5-61.7-32.2c26.1,30.2,53.2,28,63,36.6"/>
	<path class="st3" d="M357.3,532c-9.7-7.1-48.2-54.2-64.4-26.3c20.9,20.1,46.6,16.5,66.1,30.6"/>
	<path class="st3" d="M357,546.6c-10-6.6-53.5-54.1-68.4-25.5c21.8,19.1,47.3,14.3,67.5,27.5"/>
	<path class="st3" d="M368.4,482.6c-4.4,0.9-12.5-3-20.8-5.1c-0.4-0.1-0.7-0.2-1-0.3c-11.5-2.9-24-6-31.9-9.9
		c-0.1-0.1-0.2-0.1-0.3-0.1c-5.3-2.7-8.5-5.5-8-8.7c0.1-0.3,0.1-0.5,0.2-0.8c0,0,0,0,0-0.1c4-18.1,24.9-7.8,40.8,5
		c0.1,0,0.1,0,0.1,0.1c9,7.2,16.7,14.4,18.5,18.6"/>
	<path class="st3" d="M362.1,502.9c-2.1-6.2-13.3-20.3-25.8-30.8c-11.4-9.6-23.9-16.2-31.5-11.1c-2.4,1.6-4.4,4.5-5.7,8.8
		c-1,3.4,1.9,6.9,7,10.3c10.8,7.3,31.7,14.4,46.8,20.1c5,1.9,9.3,3.6,12.5,5.1"/>
	<path class="st3" d="M366.2,508.4c9.2-7.8,44.4-57.4,62.4-30.7c-26.9,29.6-53.9,26.8-63.9,35.1"/>
	<path class="st3" d="M361.4,531.9c9-7.7,42.6-56.9,61.1-30.5c-18.8,21.2-44.4,19.6-62.4,34.8"/>
	<path class="st3" d="M356.5,545.5c10.2-6.3,55-52.5,69.1-23.5c-22.4,18.4-47.7,13-68.3,25.5"/>
	<path class="st3" d="M367.3,476.5c4.5-0.1,11.6-5.5,19.3-9.3c0.3-0.2,0.6-0.3,1-0.5c10.7-5.3,22.2-10.8,29.2-16.2
		c0.1-0.1,0.2-0.1,0.2-0.2c4.7-3.8,7.2-7.1,6-10.2c-0.1-0.3-0.2-0.5-0.3-0.7c0,0,0,0,0-0.1c-7.6-16.9-26-2.5-38.9,13.3
		c0,0,0,0,0,0.1c-7.3,8.8-13.4,17.5-14.3,22"/>
	<path class="st3" d="M368.8,499.6c1.2-6.4,10.4-22,21.3-34.1c10-11.1,21.4-19.4,29.7-15.3c2.6,1.3,5,3.8,6.8,8
		c1.4,3.2-0.9,7-5.5,11.2c-9.7,8.7-29.4,18.6-43.6,26.4c-4.7,2.5-8.7,4.8-11.7,6.8"/>
	<path class="st3" d="M350.3,287.1c-0.2-3.5-2.9-6.6-4.2-9.7c-1.2-3-2.3-6.4-3-9.6c-1.6-6.7-3.1-13.4-3.1-20.3
		c0-4.3-0.4-8.1,1.6-11.7c3.2-5.5,4.9-7.3,7.2-1.7c2,4.7,9.5,55.5,2.5,54.7c-0.2-1.4-0.6-2.8-1.4-3.7"/>
</g>
</svg>
