<svg id="Ebene_1" data-name="Ebene 1" xmlns="http://www.w3.org/2000/svg" viewBox="0 0 377.01 349.14"><defs><style>.cls-1{fill:#4c4b4b;}.cls-2{fill:#050505;stroke:#c4c3c2;stroke-width:1.52px;}.cls-2,.cls-3{stroke-miterlimit:10;}.cls-3{fill:#fff;stroke:#4c4b4b;}</style></defs><title>lavender-mobil</title><path class="cls-1" d="M45.6,341.53c2.74-9.82,1.39-24.91,10.25-31.88,2.16-1.69,8.5-3.41,8.12.86-.41,4.74-3.71,9.76-6.29,13.63-4.66,7-10.52,13.25-13.23,21.36-.15.46.57.65.72.2,4.57-13.66,17.27-22.52,20-37.16a.39.39,0,0,0-.26-.46c-17-6.51-17.37,23.83-20,33.25a.38.38,0,0,0,.73.2Z" transform="translate(-9.71 -301.87)"/><path class="cls-1" d="M46.16,371.74c8.76-10.23,22.17-14.07,29.23-26.12a.39.39,0,0,0-.06-.46c-13.88-11.89-24.44,16.37-30.21,24.44-.28.39.37.77.65.38,6-8.37,9.41-21.5,19.52-26.08,2.74-1.24,9.86-1.22,8.23,3.36-1.44,4-7,7.94-10.28,10.35-6,4.42-12.67,7.83-17.61,13.6-.31.37.22.9.53.53Z" transform="translate(-9.71 -301.87)"/><path class="cls-1" d="M45.19,354.5c2.6-4.24,4.78-8.72,7.45-12.92,3.07-4.85,7.74-12.22,14.07-13,1.53-.18,3.72,0,4.93,1.08,2.37,2.13-.4,4.68-1.92,6.48A47.51,47.51,0,0,1,60,344.5c-5.47,3.73-11.28,7-15.57,12.18-.31.36.22.9.53.53,8.63-10.36,22.15-14,29.23-26.12a.41.41,0,0,0-.06-.46c-13.36-11.43-24.44,15.11-29.58,23.49a.38.38,0,0,0,.65.38Z" transform="translate(-9.71 -301.87)"/><path class="cls-1" d="M46.22,382.26c3.14-4.24,5.88-8.75,9.15-12.89s8-10,13.7-10.74a7.61,7.61,0,0,1,4.54.71c3.3,1.63,2,3.29,0,5.68-2.69,3.27-6.59,5.72-10.19,7.82-6,3.52-12.85,6.2-17.86,11.23a.38.38,0,0,0,.53.53c5-5,11.72-7.62,17.71-11.11A42,42,0,0,0,77.2,361.68a.39.39,0,0,0,0-.46C64.94,348.65,51.45,374,45.57,381.88c-.29.39.36.76.65.38Z" transform="translate(-9.71 -301.87)"/><path class="cls-1" d="M46.36,388.82C57.85,382,71.78,382.21,82.09,373a.39.39,0,0,0,.06-.46c-9.81-15.24-28.16,7.84-36.14,14-.38.29,0,.95.38.65,3.91-3,7.27-6.75,11-10,4.59-3.93,12.64-11,19.3-8.62l3,1.94c1.43,2.33.87,3.92-1.68,4.79a35.33,35.33,0,0,1-3.26,2A53.41,53.41,0,0,1,64,381.53c-6.24,1.83-12.41,3.29-18.05,6.65a.37.37,0,0,0,.38.64Z" transform="translate(-9.71 -301.87)"/><path class="cls-1" d="M47.86,400.41c3-5.05,5.57-10.3,8.94-15.1,2.38-3.38,5.19-7.05,8.9-9,2-1.07,6.82-2,8.6.22s-.59,4.2-1.87,5.75c-6.89,8.39-17.55,12.17-24.91,20-.33.35.2.88.53.53,8.9-9.5,21.56-13.47,28.41-25.14a.39.39,0,0,0-.06-.46C63.74,365.46,51.86,392.11,47.21,400c-.25.41.4.79.65.38Z" transform="translate(-9.71 -301.87)"/><path class="cls-1" d="M47.86,412.52c3-5,5.57-10.3,8.94-15.09,2.38-3.38,5.19-7.06,8.9-9,2-1.07,6.82-2,8.6.22s-.59,4.2-1.87,5.76c-6.89,8.39-17.54,12.17-24.91,20-.33.35.2.88.53.53,8.91-9.49,21.56-13.47,28.41-25.14a.39.39,0,0,0-.06-.46c-12.66-11.75-24.54,14.9-29.19,22.82a.38.38,0,0,0,.65.38Z" transform="translate(-9.71 -301.87)"/><path class="cls-1" d="M47.86,423.42c3-5,5.57-10.29,8.94-15.09,2.38-3.38,5.19-7.05,8.9-9,2-1.07,6.82-2,8.6.22s-.59,4.21-1.87,5.76c-6.89,8.39-17.55,12.17-24.91,20-.33.35.2.89.53.53,8.9-9.49,21.56-13.47,28.41-25.14a.38.38,0,0,0-.06-.45C63.74,388.48,51.86,415.13,47.21,423a.38.38,0,0,0,.65.38Z" transform="translate(-9.71 -301.87)"/><path class="cls-1" d="M48.59,448.44c8.75-10.23,22.17-14.07,29.22-26.12a.38.38,0,0,0-.06-.46C63.88,410,53.31,438.23,47.54,446.3c-.28.39.37.77.65.38,6-8.37,9.41-21.51,19.52-26.08,2.75-1.25,9.87-1.22,8.23,3.35-1.44,4-7,7.95-10.27,10.36-6.05,4.41-12.68,7.83-17.61,13.6-.32.36.21.9.53.53Z" transform="translate(-9.71 -301.87)"/><path class="cls-1" d="M48.42,431.2c2.6-4.24,4.78-8.72,7.45-12.93,3.07-4.85,7.73-12.21,14.07-13,1.53-.18,3.72,0,4.93,1.09,2.37,2.13-.4,4.67-1.92,6.48a47.51,47.51,0,0,1-9.73,8.32c-5.48,3.74-11.25,7-15.58,12.17-.3.37.22.9.53.53,8.69-10.3,22.16-14,29.24-26.12a.4.4,0,0,0-.06-.45C64,395.9,52.91,422.43,47.77,430.82c-.25.41.39.79.65.38Z" transform="translate(-9.71 -301.87)"/><path class="cls-1" d="M48.64,459c3.14-4.24,5.88-8.75,9.15-12.9s8-10,13.7-10.73A7.58,7.58,0,0,1,76,436c3.29,1.63,1.94,3.28,0,5.68-2.69,3.27-6.58,5.72-10.19,7.82-6,3.51-12.87,6.18-17.85,11.23a.38.38,0,0,0,.53.53c4.93-5,11.73-7.63,17.7-11.11a42.09,42.09,0,0,0,13.43-11.82.38.38,0,0,0-.06-.45C67.36,425.34,53.87,450.65,48,458.58c-.29.38.36.76.65.38Z" transform="translate(-9.71 -301.87)"/><path class="cls-1" d="M48.78,465.52c11.5-6.84,25.42-6.61,35.73-15.87a.36.36,0,0,0,.06-.45c-9.81-15.24-28.16,7.83-36.14,14-.38.29,0,.94.38.65,3.91-3,7.27-6.76,11-10,4.59-3.94,12.64-11,19.3-8.63l3,1.95q2.16,3.48-1.68,4.79a35.33,35.33,0,0,1-3.26,2,53.41,53.41,0,0,1-10.78,4.23c-6.24,1.83-12.41,3.29-18.05,6.64-.41.25,0,.9.38.65Z" transform="translate(-9.71 -301.87)"/><path class="cls-1" d="M48.66,477.1c3-5,5.58-10.29,9-15.09,2.37-3.38,5.18-7.05,8.9-9,2-1.07,6.82-2,8.6.22s-.59,4.21-1.87,5.76c-6.9,8.39-17.55,12.17-24.91,20-.33.35.2.88.53.53,8.9-9.49,21.56-13.47,28.4-25.14a.36.36,0,0,0-.05-.45C64.54,442.17,52.68,468.79,48,476.73a.37.37,0,0,0,.64.37Z" transform="translate(-9.71 -301.87)"/><path class="cls-1" d="M49.47,489.22c3-5.05,5.58-10.3,9-15.1,2.37-3.37,5.18-7.05,8.9-9,2-1.07,6.82-2,8.6.22s-.59,4.2-1.87,5.75c-6.9,8.39-17.55,12.17-24.92,20-.33.35.2.88.53.53,8.91-9.5,21.57-13.47,28.41-25.15A.37.37,0,0,0,78,466c-12.72-11.67-24.49,14.83-29.19,22.82a.38.38,0,0,0,.65.38Z" transform="translate(-9.71 -301.87)"/><path class="cls-1" d="M49.47,500.12c3-5,5.58-10.3,9-15.09,2.37-3.38,5.18-7,8.9-9,2-1.07,6.82-2,8.6.22s-.59,4.2-1.87,5.76c-6.9,8.39-17.55,12.17-24.92,20-.33.35.2.88.53.53,8.91-9.5,21.57-13.47,28.41-25.14a.39.39,0,0,0-.06-.46c-12.7-11.69-24.5,14.85-29.19,22.82a.38.38,0,0,0,.65.38Z" transform="translate(-9.71 -301.87)"/><path class="cls-1" d="M49.47,511c3-5,5.58-10.3,9-15.1,2.37-3.38,5.18-7.05,8.9-9,2-1.07,6.82-2,8.6.23s-.59,4.2-1.87,5.75c-6.9,8.39-17.55,12.17-24.92,20-.33.35.2.88.53.53,8.91-9.5,21.57-13.48,28.41-25.15a.38.38,0,0,0-.06-.45c-12.68-11.72-24.52,14.87-29.19,22.82a.38.38,0,0,0,.65.38Z" transform="translate(-9.71 -301.87)"/><path class="cls-1" d="M49.47,521.92c3-5,5.58-10.3,9-15.1,2.37-3.37,5.18-7.05,8.9-9,2-1.07,6.82-2,8.6.22s-.59,4.2-1.87,5.76c-6.9,8.38-17.55,12.16-24.92,20-.33.35.2.88.53.53,8.91-9.5,21.57-13.47,28.41-25.14a.39.39,0,0,0-.06-.46c-12.7-11.69-24.5,14.85-29.19,22.82a.38.38,0,0,0,.65.38Z" transform="translate(-9.71 -301.87)"/><path class="cls-1" d="M47.6,446c-8.05-7.16-19-10-26.61-17.71-.89-.89-3.7-3.47-3.58-4.5l2.39-1.91a7.56,7.56,0,0,1,6.1-.62c4,1.12,7.19,4.45,9.86,7.44,4.26,4.77,7.58,10.24,11.29,15.42.28.39.93,0,.65-.38-5.39-7.52-19.6-33-31.12-20.16a.38.38,0,0,0,0,.45c7.86,11,20.82,13.85,30.54,22.5.36.32.89-.21.53-.53Z" transform="translate(-9.71 -301.87)"/><path class="cls-1" d="M48.58,456.81c-8-7.16-19-10-26.61-17.71-.89-.89-3.71-3.47-3.58-4.51l2.39-1.9a7.56,7.56,0,0,1,6.1-.62c4,1.12,7.19,4.45,9.85,7.44,4.27,4.77,7.59,10.23,11.3,15.42.27.39.93,0,.64-.38-5.39-7.55-19.56-33-31.11-20.16a.39.39,0,0,0-.06.45c7.86,11,20.83,13.85,30.54,22.5.36.32.9-.21.54-.53Z" transform="translate(-9.71 -301.87)"/><path class="cls-1" d="M48.76,477.73c-6.46-7.48-19.49-34.67-32.22-21.6a.38.38,0,0,0-.05.45c8.1,11.37,21.81,14,31.44,23.41.34.33.88-.2.53-.54-5.26-5.12-11.91-8-18.18-11.63-3.84-2.24-8.2-5-10.84-8.62-1-1.39-1.8-2.53-1-3.84a5.93,5.93,0,0,1,2.84-1.61,8.3,8.3,0,0,1,4.76.14c10.68,3.3,15.41,16.59,22.14,24.37.32.37.85-.16.53-.53Z" transform="translate(-9.71 -301.87)"/><path class="cls-1" d="M48.37,464.87c-4.75-4.74-10.83-7.53-16.62-10.75a48.41,48.41,0,0,1-10.26-7.24c-1.65-1.59-4.39-4.13-3-6.14.93-1.4,3.71-1.92,5.2-1.88,5.9.19,10.81,6.21,14.18,10.43s6.26,9,9.54,13.43c.29.38.94,0,.65-.38-5.89-7.9-19.3-33.36-31.56-20.79a.37.37,0,0,0-.06.45c8.13,11.38,21.92,13.88,31.45,23.4a.38.38,0,0,0,.53-.53Z" transform="translate(-9.71 -301.87)"/><path class="cls-1" d="M49.42,490c-6.47-7.33-22.26-31.26-33.25-17.72a.4.4,0,0,0,0,.53c8.76,10.14,21.95,11.93,32.41,19.5.39.28.77-.37.38-.65-6.53-4.72-14-6.72-21-10.46-3-1.63-6.88-3.79-9.06-6.52-1.69-2.13-1.9-3,.65-4.59a7.5,7.5,0,0,1,4.2-1.12c6.07.13,11.43,5.86,15.27,10,3.48,3.71,6.52,7.78,9.89,11.59.32.36.85-.17.53-.53Z" transform="translate(-9.71 -301.87)"/><path class="cls-1" d="M49.64,496.38c-5.9-3-12.13-4-18.57-5.3a57.73,57.73,0,0,1-12-4c-2.74-1.2-7.87-2.75-4-6.33,9.23-8.58,26.47,9.35,33.62,14.29.4.27.77-.38.38-.65C40.84,488.77,20.3,468,12.2,483.65a.38.38,0,0,0,.13.51c11,8.19,25.1,6.82,36.93,12.87.43.22.81-.43.38-.65Z" transform="translate(-9.71 -301.87)"/><path class="cls-1" d="M49.37,510.56c-8-7.16-19-10-26.61-17.7-.89-.9-3.7-3.48-3.58-4.51l2.39-1.91a7.6,7.6,0,0,1,6.1-.62c4,1.13,7.19,4.45,9.86,7.44,4.26,4.77,7.58,10.24,11.29,15.42.28.39.93,0,.65-.38-5.38-7.52-19.6-33-31.11-20.16a.38.38,0,0,0-.06.46c7.86,11,20.82,13.84,30.54,22.49.36.32.89-.2.53-.53Z" transform="translate(-9.71 -301.87)"/><path class="cls-1" d="M49.74,522c-6.29-5.22-14-8-20.63-12.7-1.55-1.09-9.08-6.52-8.88-8.58s5.85-2.69,7.08-2.59c3.74.33,6.56,2.75,9.15,5.21a.38.38,0,0,0,.64-.27c-.13,1.12,2.1,3,2.67,3.67,1.49,1.77,2.87,3.63,4.22,5.5,1.75,2.43,3.4,4.93,5.1,7.4.27.39.92,0,.64-.38C45.78,513.51,42,507.6,37,502.68a.38.38,0,0,0-.64.26c.36-3-6.83-5.29-9.06-5.56a8.4,8.4,0,0,0-3.2,0c-1.6.4-3.13,2.5-4.5,2.71a.38.38,0,0,0-.23.55c7.63,10.7,20.1,13.79,29.83,21.87.37.3.9-.23.53-.53Z" transform="translate(-9.71 -301.87)"/><path class="cls-1" d="M50,532.21c-8.09-6.36-18.39-9.32-25.58-16.89-.61-.64-3.27-3.11-3.15-4,.19-1.4,4.27-2.79,5.51-2.86,4.16-.23,8.19,3.08,11,5.81,4.54,4.45,8,9.87,11.58,15.11.27.4.92,0,.65-.38-5.33-7.86-18.31-29.39-29.53-17.92a.39.39,0,0,0-.06.46C27.83,522,39.73,525.1,49.44,532.74c.37.3.91-.23.53-.53Z" transform="translate(-9.71 -301.87)"/><path class="cls-1" d="M46.79,414.74l-.09.09c-.34.35.19.88.53.53l.09-.09a.38.38,0,0,0-.53-.53Z" transform="translate(-9.71 -301.87)"/><path class="cls-1" d="M47.74,413c-5.72-8-16.36-36.33-30.2-24.42a.38.38,0,0,0-.06.46A53,53,0,0,0,33.54,406.8c4.39,3,10.42,5,13.84,9.22.31.37.84-.16.53-.53-3.27-4-8.84-5.94-13.07-8.72A50.74,50.74,0,0,1,25,398.35c-2.86-3.19-9.85-10.75-1.78-11.77,7-.89,12.56,7.81,15.76,12.84,2.89,4.54,5,9.61,8.16,14,.28.39.93,0,.65-.38Z" transform="translate(-9.71 -301.87)"/><path class="cls-1" d="M47.84,422.52C41.38,415,28.23,387.91,15.58,401a.38.38,0,0,0-.06.46c8.34,11.63,22.69,14.1,32.26,24.08.33.35.86-.18.53-.53-5.23-5.46-12-8.38-18.48-12.08-3.91-2.23-8-4.81-10.88-8.32-1.2-1.46-2.34-2.85-1.46-4.36.38-.66,2.23-1.43,2.77-1.61a8,8,0,0,1,4.64,0c10.77,3.06,15.72,16.59,22.41,24.36.32.37.85-.17.53-.53Z" transform="translate(-9.71 -301.87)"/><path class="cls-1" d="M48.23,429.83c-7.89-5.89-28-30.95-37.66-15.25a.39.39,0,0,0,.06.46c10.66,9.5,25.19,8.88,36.71,16.53.4.27.78-.38.37-.65-7-4.67-15.23-5.82-23-8.58a42.6,42.6,0,0,1-7.57-3.42c-2.43-1.43-6.46-3.22-4.35-6.08s6.19-2.74,9.15-1.86c10.71,3.17,17.39,13.1,26,19.5.39.29.76-.36.38-.65Z" transform="translate(-9.71 -301.87)"/><path class="cls-1" d="M45,347.58c-6.89-6.69-14.2-13-20.69-20.06-2.56-2.8-6.73-6.75-7.32-10.73s4.57-7,8.14-6c6.75,1.76,10.93,11,13.5,16.77S44.25,340.4,44,346.8a.38.38,0,0,0,.75,0c.3-7.6-3.65-16.21-7-22.83-2.64-5.21-7.79-14.88-14.95-14.16-2.48.25-5.66,2.3-6.52,4.72s1.18,5.54,2.53,7.5c6.89,10,17,17.7,25.64,26.08.35.34.88-.19.53-.53Z" transform="translate(-9.71 -301.87)"/><path class="cls-1" d="M45.25,360.21c-5.38-2.9-10.94-5.43-16.35-8.26-3.82-2-16-7.09-12.82-12.85,6.74-12.39,26,14.15,28,20.67a.38.38,0,0,0,.73-.2c-2.08-7-19.28-32-28.27-22.37-4.23,4.54-.05,8,3.91,10.72,7.63,5.17,16.37,8.57,24.46,12.93.42.23.8-.41.38-.64Z" transform="translate(-9.71 -301.87)"/><path class="cls-1" d="M44.76,370.74c-2.3-5.14-7.47-9.51-11.74-13-4-3.22-9.92-7.9-15.46-7.18-3.95.52-7.26,5.56-4.41,8.94s8.73,5,12.8,6.41c6.42,2.21,13,3.87,19.41,6.18.45.17.65-.56.2-.72-8.81-3.19-18.21-5-26.7-9-4-1.9-8.47-7.14-3.34-10.32,2.08-1.3,4.72-.7,6.87.07,5.22,1.86,9.85,5.7,13.82,9.44,2.91,2.73,6.25,5.86,7.9,9.56.2.44.85.06.65-.38Z" transform="translate(-9.71 -301.87)"/><path class="cls-1" d="M42.46,379.84c-2.86-6.51-10-12.2-15.71-16-4-2.67-11.43-7-15.43-2C6.56,367.65,13.4,371,18.19,373c8.7,3.65,18.43,5,26.9,9.11.43.21.81-.44.38-.65-5.73-2.78-12.24-4.1-18.28-6-4.4-1.42-19.9-5-16-12.08,6.2-11.26,27.67,10.16,30.61,16.85.19.45.84.06.65-.37Z" transform="translate(-9.71 -301.87)"/><path class="cls-1" d="M45.91,391.07c-2-6.9-19.9-31.6-28.62-21.88-3.82,4.27-.12,7.6,3.68,10.18,4.5,3.06,9.52,5.3,14.37,7.73,3.6,1.8,7.19,4.81,11.25,5.41.47.07.68-.65.2-.72-3.28-.49-6.1-2.74-9-4.28-2.28-1.22-4.64-2.3-7-3.46-3.91-2-16.13-6.86-14-12.8,3.23-9.07,14.78,1.67,17.87,5,4,4.25,8.79,9.37,10.47,15a.37.37,0,0,0,.72-.2Z" transform="translate(-9.71 -301.87)"/><path class="cls-1" d="M47,404.62c-1.69-8.05-7.94-16.1-13.53-21.91C29.86,379,23.23,373,17.89,377.15c-5.77,4.52-1.31,9.22,3,12.61,8,6.27,17.36,10.57,25.86,16.1.4.26.78-.39.38-.65-5.73-3.72-36.26-17.43-29.87-26.29,8.45-11.71,27.47,18.64,29,25.9.1.47.82.27.72-.2Z" transform="translate(-9.71 -301.87)"/><path class="cls-1" d="M43.47,333c-.8-3.69-3-6.92-4-10.64-1.25-4.8-2.84-11.08-1.42-15.94.54-1.85,1.93-4.45,4-1.95.26.31.15,1,.32,1.33.63,1.42.66,3.55.9,5.09a135.52,135.52,0,0,1,1.49,13.63,39.53,39.53,0,0,1,0,5.86c-.17,1.79-.27,3.77-1.62,1.39-.23-.42-.88,0-.64.38l.75,2a.37.37,0,0,0,.36.27c5-.3.38-23.9-.25-27.24-.46-2.39-1.34-7.37-4.29-4.33s-2.32,8.54-1.88,12.32a55.4,55.4,0,0,0,1.93,9.19c.9,3,2.87,5.83,3.53,8.87.1.47.82.27.72-.2Z" transform="translate(-9.71 -301.87)"/><path class="cls-1" d="M44.19,333.57c.11,39.53,3.07,79,3.56,118.51s1.67,79.2,2.31,118.8q.54,33.39.59,66.77a.38.38,0,0,0,.75,0c0-39.62-.72-79.23-1.62-118.84s-.85-79.18-2.69-118.71c-1-22.16-2.09-44.33-2.15-66.53a.38.38,0,0,0-.75,0Z" transform="translate(-9.71 -301.87)"/><path class="cls-1" d="M94.12,429.41c1.92-7.08,1.06-17.45,7-22.8,1.89-1.71,6.56-3.15,6.11.7-.4,3.47-2.89,7.08-4.83,9.91-3.35,4.91-7.31,9.34-9.27,15-.16.46.56.65.72.2,3.43-9.95,12.51-16.47,14.57-27.14a.39.39,0,0,0-.26-.46c-12.52-4.62-12.81,17.29-14.73,24.35a.38.38,0,0,0,.73.2Z" transform="translate(-9.71 -301.87)"/><path class="cls-1" d="M94.51,451.52c6.42-7.44,16.17-10.32,21.35-19.09a.39.39,0,0,0,0-.46c-10.3-8.69-17.92,11.85-22.23,17.87-.28.39.37.77.65.38,4.29-6,6.84-15.78,14.14-19,2.65-1.16,7.21-.74,5.45,3-1.33,2.83-5.1,5.45-7.57,7.2C102,444.51,97.44,447,94,451c-.32.37.21.9.53.53Z" transform="translate(-9.71 -301.87)"/><path class="cls-1" d="M93.81,438.91c1.89-3.1,3.5-6.37,5.44-9.45,2.25-3.54,5.82-9.26,10.57-9.46.87,0,2.61.14,3.25.88,1.68,1.94-1.17,4.24-2.4,5.53a41.16,41.16,0,0,1-7,5.64c-3.75,2.51-7.61,4.83-10.53,8.33-.31.37.22.9.53.53,6.3-7.57,16.16-10.29,21.36-19.1a.36.36,0,0,0-.06-.45C105,413,97,432.29,93.16,438.54c-.25.41.4.79.65.37Z" transform="translate(-9.71 -301.87)"/><path class="cls-1" d="M94.56,459.19c4.07-5.51,8.71-15.65,16.11-17.14a5.46,5.46,0,0,1,4,.54c2,1.4.7,2.8-.71,4.37a28.37,28.37,0,0,1-7.1,5.3c-4.37,2.54-9.28,4.48-12.91,8.12-.34.35.19.88.53.53,6.86-6.88,16.81-8.58,22.75-16.76a.37.37,0,0,0-.06-.45c-9.06-9.18-18.85,9.2-23.22,15.11-.28.38.37.76.65.38Z" transform="translate(-9.71 -301.87)"/><path class="cls-1" d="M94.63,464c8.46-4.91,18.56-4.91,26.11-11.61a.36.36,0,0,0,.06-.45c-7.38-11.11-20.72,5.59-26.61,10.24-.38.3.16.82.53.53,4.48-3.54,16.26-18.14,22.93-13.09,5.77,4.36-9,8.52-11.73,9.3-4.08,1.17-8,2.29-11.67,4.43a.38.38,0,0,0,.38.65Z" transform="translate(-9.71 -301.87)"/><path class="cls-1" d="M95.76,472.44c2.12-3.62,4-7.4,6.4-10.84,1.7-2.43,3.79-5.32,6.53-6.71,1.53-.78,6.83-1.63,6.65,1.68-.06,1.07-1.9,2.62-2.52,3.32-5,5.59-12.32,8.33-17.47,13.79-.33.35.2.88.53.53,6.53-6.92,15.74-9.87,20.76-18.38a.36.36,0,0,0,0-.45c-9.34-8.68-18.07,10.85-21.48,16.68a.38.38,0,0,0,.65.38Z" transform="translate(-9.71 -301.87)"/><path class="cls-1" d="M95.76,481.29c2.12-3.63,4-7.4,6.4-10.85,1.7-2.42,3.79-5.32,6.53-6.7,1.53-.78,6.83-1.64,6.65,1.67-.06,1.08-1.9,2.63-2.52,3.32-5,5.6-12.32,8.34-17.47,13.8-.33.35.2.88.53.53,6.53-6.93,15.74-9.87,20.76-18.38a.38.38,0,0,0,0-.46c-9.34-8.67-18.07,10.86-21.48,16.69a.38.38,0,0,0,.65.38Z" transform="translate(-9.71 -301.87)"/><path class="cls-1" d="M95.76,489.25c2.12-3.62,4-7.4,6.4-10.84,1.7-2.43,3.79-5.32,6.53-6.71,1.53-.78,6.83-1.63,6.65,1.68-.06,1.07-1.9,2.62-2.52,3.32-5,5.59-12.32,8.33-17.47,13.79-.33.35.2.88.53.53,6.53-6.92,15.74-9.87,20.76-18.38a.36.36,0,0,0,0-.45c-9.34-8.68-18.07,10.85-21.48,16.68a.38.38,0,0,0,.65.38Z" transform="translate(-9.71 -301.87)"/><path class="cls-1" d="M96.27,507.54c6.43-7.45,16.18-10.32,21.36-19.1a.36.36,0,0,0-.06-.45c-10.29-8.7-17.92,11.84-22.22,17.86-.28.39.37.77.65.38,4.29-6,6.84-15.78,14.14-19,2.65-1.16,7.21-.74,5.44,3-1.32,2.83-5.09,5.44-7.56,7.19-4.28,3-8.81,5.5-12.28,9.52-.31.36.22.89.53.53Z" transform="translate(-9.71 -301.87)"/><path class="cls-1" d="M96.17,494.93c1.89-3.11,3.49-6.38,5.44-9.45,2.25-3.55,5.81-9.26,10.57-9.47.86,0,2.61.15,3.25.88,1.68,1.94-1.18,4.25-2.41,5.54a40.34,40.34,0,0,1-7,5.63c-3.75,2.52-7.58,4.84-10.53,8.33-.31.37.22.9.53.53,6.35-7.53,16.17-10.29,21.37-19.09a.39.39,0,0,0-.06-.46c-9.9-8.35-18,10.94-21.76,17.18-.25.41.4.79.65.38Z" transform="translate(-9.71 -301.87)"/><path class="cls-1" d="M96.33,515.2c4.07-5.51,8.71-15.64,16.11-17.13a5.36,5.36,0,0,1,4,.54c2,1.39.7,2.79-.71,4.37a28.76,28.76,0,0,1-7.1,5.29c-4.37,2.54-9.3,4.47-12.91,8.13a.38.38,0,0,0,.53.53c3.73-3.78,8.94-5.73,13.42-8.41a30.45,30.45,0,0,0,9.33-8.35.38.38,0,0,0-.06-.46c-9.06-9.17-18.86,9.21-23.22,15.11-.29.39.36.76.65.38Z" transform="translate(-9.71 -301.87)"/><path class="cls-1" d="M96.4,520c8.46-4.9,18.56-4.9,26.11-11.6a.38.38,0,0,0,.06-.46c-7.38-11.1-20.72,5.59-26.61,10.24-.38.3.16.83.53.53,4.48-3.53,16.25-18.13,22.92-13.09,5.78,4.37-9,8.52-11.72,9.3-4.09,1.17-8,2.29-11.67,4.43a.38.38,0,0,0,.38.65Z" transform="translate(-9.71 -301.87)"/><path class="cls-1" d="M96.35,528.45c2.12-3.62,4-7.39,6.4-10.84,1.7-2.43,3.79-5.32,6.53-6.71,1.53-.78,6.83-1.63,6.65,1.68-.06,1.07-1.9,2.63-2.52,3.32-5,5.6-12.32,8.33-17.47,13.79-.33.35.2.89.53.53,6.53-6.92,15.74-9.87,20.76-18.38a.36.36,0,0,0,0-.45c-9.35-8.67-18.06,10.85-21.48,16.68a.38.38,0,0,0,.65.38Z" transform="translate(-9.71 -301.87)"/><path class="cls-1" d="M96.94,537.3c2.12-3.62,4-7.4,6.4-10.84,1.7-2.43,3.79-5.32,6.53-6.71,1.53-.78,6.83-1.63,6.65,1.68-.06,1.07-1.9,2.62-2.52,3.32-5,5.6-12.32,8.33-17.47,13.79-.33.35.2.88.53.53,6.53-6.92,15.74-9.87,20.76-18.38a.38.38,0,0,0,0-.46c-9.39-8.61-18,10.81-21.48,16.69a.38.38,0,0,0,.65.38Z" transform="translate(-9.71 -301.87)"/><path class="cls-1" d="M96.94,545.26c2.12-3.62,4-7.39,6.4-10.84,1.7-2.43,3.79-5.32,6.53-6.71,1.53-.78,6.83-1.63,6.65,1.68-.06,1.07-1.9,2.63-2.52,3.32-5,5.6-12.32,8.34-17.47,13.79-.33.36.2.89.53.53,6.53-6.92,15.74-9.87,20.76-18.38a.36.36,0,0,0,0-.45c-9.38-8.63-18,10.82-21.48,16.68a.38.38,0,0,0,.65.38Z" transform="translate(-9.71 -301.87)"/><path class="cls-1" d="M96.94,553.22c2.12-3.62,4-7.4,6.4-10.84,1.7-2.43,3.79-5.32,6.53-6.71,1.53-.78,6.83-1.63,6.65,1.68-.06,1.07-1.9,2.62-2.52,3.31-5,5.6-12.32,8.34-17.47,13.8-.33.35.2.88.53.53,6.53-6.92,15.74-9.87,20.76-18.38a.36.36,0,0,0,0-.45c-9.36-8.66-18.06,10.83-21.48,16.68a.38.38,0,0,0,.65.38Z" transform="translate(-9.71 -301.87)"/><path class="cls-1" d="M96.94,561.18c2.12-3.62,4-7.39,6.4-10.84,1.7-2.43,3.79-5.32,6.53-6.71,1.53-.78,6.83-1.63,6.65,1.68-.06,1.07-1.9,2.63-2.52,3.32-5,5.6-12.32,8.33-17.47,13.79-.33.35.2.89.53.53,6.53-6.92,15.74-9.87,20.76-18.38a.36.36,0,0,0,0-.45c-9.38-8.63-18,10.81-21.48,16.68a.38.38,0,0,0,.65.38Z" transform="translate(-9.71 -301.87)"/><path class="cls-1" d="M95.55,505.58c-5.67-5-13.24-7.1-18.77-12.29-.63-.6-1.24-1.23-1.81-1.89-2.19-1.55-2-2.54.69-2.95a3,3,0,0,1,3.83-.58c3,.62,5.28,3,7.27,5.22,3.11,3.47,5.54,7.46,8.23,11.24.28.39.93,0,.65-.38-3.9-5.48-14.39-24.2-22.88-14.75a.39.39,0,0,0-.06.46c5.79,8,15.18,10.15,22.32,16.45.36.32.9-.21.53-.53Z" transform="translate(-9.71 -301.87)"/><path class="cls-1" d="M96.27,513.51c-5.67-5-13.25-7.1-18.78-12.29a24.68,24.68,0,0,1-1.8-1.89c-2.19-1.55-2-2.54.69-2.95a3,3,0,0,1,3.83-.58c3,.62,5.27,3,7.27,5.22,3.1,3.47,5.53,7.45,8.23,11.24.28.39.93,0,.64-.38-3.91-5.5-14.37-24.18-22.88-14.75a.39.39,0,0,0,0,.46c5.78,8,15.18,10.15,22.32,16.45.36.32.89-.21.53-.53Z" transform="translate(-9.71 -301.87)"/><path class="cls-1" d="M96.4,528.79c-4.82-5.58-14.2-25.31-23.67-15.78a.39.39,0,0,0-.06.46c6,8.26,15.9,10.28,23,17.11.35.33.88-.2.53-.53-3.85-3.72-8.63-5.8-13.2-8.46-2.79-1.63-6.14-3.59-8-6.31-2.63-3.91,2.61-4.57,5.44-3.45,7.38,2.94,10.57,11.86,15.43,17.49.32.37.85-.17.53-.53Z" transform="translate(-9.71 -301.87)"/><path class="cls-1" d="M96.11,519.39c-3.2-3.2-7.24-5.18-11.18-7.33a42.93,42.93,0,0,1-7.19-4.66c-2.48-2.1-6.1-6.19-.47-6.76,8-.82,14,12,18,17.31.28.38.94,0,.65-.38-4.38-5.91-14.09-24.36-23.21-15.21a.39.39,0,0,0-.06.46c6,8.28,16,10.14,23,17.1a.37.37,0,0,0,.53-.53Z" transform="translate(-9.71 -301.87)"/><path class="cls-1" d="M96.88,537.75c-4.83-5.47-16.22-22.81-24.42-12.94a.39.39,0,0,0,0,.53c6.42,7.36,16,8.79,23.69,14.25.39.28.77-.37.38-.64-4.56-3.24-9.56-4.72-14.42-7.17a30.36,30.36,0,0,1-6.2-4c-.82-.71-2.56-1.91-2.25-3.26s3.2-1.94,4.16-2c7.64-.29,14.11,10.72,18.53,15.73.32.36.85-.17.53-.53Z" transform="translate(-9.71 -301.87)"/><path class="cls-1" d="M97,542.39c-4.09-2.09-8.41-2.9-12.87-3.75a39.13,39.13,0,0,1-9.43-3c-.68-.32.09.68-1.66-.79-1.4-.15-1.88-.86-1.46-2.13q-.6-3.18,3.79-3c7.32-.65,15.37,8.11,20.81,11.91.39.27.77-.38.38-.65-6.22-4.34-20.84-19.23-27-7.83a.39.39,0,0,0,.14.51c8.12,5.84,18.3,5,27,9.4.43.22.81-.43.38-.65Z" transform="translate(-9.71 -301.87)"/><path class="cls-1" d="M96.85,552.77c-5.67-5-13.25-7.1-18.78-12.29-.63-.6-1.24-1.23-1.81-1.89q-3.27-2.34.7-3a3,3,0,0,1,3.83-.58c3,.62,5.27,3,7.27,5.21,3.1,3.48,5.53,7.46,8.23,11.24.27.39.92,0,.64-.38-3.9-5.47-14.39-24.19-22.88-14.74a.39.39,0,0,0,0,.46c5.78,8,15.18,10.15,22.32,16.45.36.31.89-.21.53-.53Z" transform="translate(-9.71 -301.87)"/><path class="cls-1" d="M97.12,561.11c-4.38-3.6-9.63-5.62-14.31-8.74-1.74-1.17-6.7-4.6-7.3-6.61-.19-.65,3.39-2,5.15-1.9,2.77.16,4.74,2,6.62,3.77a.38.38,0,0,0,.64-.26c-.23,1.88,3.74,5.22,4.8,6.69,1.29,1.79,2.51,3.63,3.76,5.45.27.4.92,0,.65-.38-2.89-4.2-5.66-8.52-9.31-12.12a.38.38,0,0,0-.64.26c.28-2.39-4.73-4-6.51-4.16a6.24,6.24,0,0,0-2.28,0c-1.2.27-2.36,1.87-3.38,2a.38.38,0,0,0-.22.55c5.6,7.8,14.65,10.1,21.8,16,.37.31.9-.22.53-.53Z" transform="translate(-9.71 -301.87)"/><path class="cls-1" d="M97.28,568.57c-5.89-4.6-13.42-6.78-18.65-12.29-.58-.62-2.25-2-2.32-2.84-.3-3,3.55-2.09,5-1.89,2.88.4,5.27,2.4,7.26,4.4,3.16,3.15,5.6,7,8.09,10.66.27.4.92,0,.65-.37-3.92-5.78-13.46-21.57-21.73-13.11a.39.39,0,0,0-.06.46c5.5,7.62,14.12,9.94,21.25,15.51.38.3.91-.23.53-.53Z" transform="translate(-9.71 -301.87)"/><path class="cls-1" d="M94.82,482.78l-.07.07c-.33.35.2.88.54.53l.06-.06c.34-.35-.19-.88-.53-.54Z" transform="translate(-9.71 -301.87)"/><path class="cls-1" d="M95.67,481.55c-4.24-6-12-26.55-22.21-17.85a.38.38,0,0,0-.06.46A39,39,0,0,0,85,477c3.26,2.26,7.71,3.76,10.28,6.85.31.37.84-.16.53-.53-2.25-2.71-5.93-4.07-8.84-5.92a38.14,38.14,0,0,1-7.33-5.94c-2-2.15-8-8.44-1.89-9.08,5.18-.54,9.17,5.88,11.52,9.6,2,3.24,3.58,6.82,5.79,9.94.27.39.92,0,.64-.38Z" transform="translate(-9.71 -301.87)"/><path class="cls-1" d="M95.73,488.47C91,482.86,81.42,463.23,72,472.76a.38.38,0,0,0,0,.45c6.14,8.45,16.53,10.36,23.57,17.61.34.35.87-.18.53-.53-3.85-4-8.75-6.11-13.48-8.81-2.88-1.65-6.32-3.62-8.24-6.4-2.68-3.89,2.42-4.66,5.32-3.54,7.38,2.85,10.72,11.81,15.53,17.46.32.36.84-.17.53-.53Z" transform="translate(-9.71 -301.87)"/><path class="cls-1" d="M96,493.79c-5.9-4.46-20.41-22.54-27.65-11.1a.38.38,0,0,0,.06.45c7.85,6.87,18.36,6.58,26.83,12.09.41.27.78-.38.38-.64-4.94-3.22-10.54-4.14-16-6-1.94-.66-10.75-3.4-9.58-6.95.85-2.54,5.49-1.82,7.16-1.27,7.54,2.46,12.37,9.45,18.46,14.07.38.29.76-.36.38-.65Z" transform="translate(-9.71 -301.87)"/><path class="cls-1" d="M93.64,433.74c-4.71-4.57-9.68-8.89-14.19-13.66-2-2.16-4.4-4.5-5.64-7.23-1.7-3.73,2.14-6.89,5.79-5.62,4.77,1.67,7.7,8.43,9.54,12.7,1.73,4,3.75,8.86,3.62,13.31,0,.48.73.48.75,0,.17-5.79-2.78-12.23-5.4-17.24-1.93-3.7-5.67-10.45-10.8-9.88s-5.56,5-3.29,8.56c4.85,7.59,12.69,13.38,19.09,19.59.35.33.88-.2.53-.53Z" transform="translate(-9.71 -301.87)"/><path class="cls-1" d="M93.82,442.94c-3.61-1.94-7.34-3.66-11-5.53-3-1.54-10.63-4.55-10.5-8.47.27-7.89,10-.46,12.12,1.67,3.33,3.35,6.83,7.56,8.33,12.13.15.45.87.26.72-.2-1.66-5.09-14.45-24-21-16.15-2.73,3.26,0,5.65,2.83,7.59,5.61,3.88,12.11,6.38,18.1,9.61.42.23.8-.42.38-.65Z" transform="translate(-9.71 -301.87)"/><path class="cls-1" d="M93.5,450.67c-1.83-4-5.83-7.34-9.19-10-2.82-2.2-7.28-5.6-11.18-4.73-3,.68-4.72,4.26-2.79,6.76s6.36,3.56,9.07,4.5c4.76,1.66,9.66,2.89,14.41,4.6.45.16.65-.56.2-.73-5.49-2-11.19-3.3-16.63-5.4-2.64-1-10.25-5.46-5.32-8.53,1.84-1.15,4.25-.31,6.05.48,5.39,2.39,12.2,7.9,14.73,13.39.2.44.85.06.65-.38Z" transform="translate(-9.71 -301.87)"/><path class="cls-1" d="M91.81,457.31c-2.3-5.07-17.11-20.42-23-13.11-6.72,8.4,20.58,12.93,24.74,14.92.43.21.81-.44.38-.65-3.83-1.83-8.11-2.76-12.14-4-3.4-1.06-13.36-3.12-13.3-7.5.12-8.29,11.57-.77,14.12,1.29,3.12,2.53,6.82,5.74,8.51,9.46.2.44.84.06.64-.38Z" transform="translate(-9.71 -301.87)"/><path class="cls-1" d="M94.35,465.54c-1.57-5-15.46-24.19-21.51-15.44-2.06,3,.37,5.08,2.89,6.85,3.33,2.34,7.13,4,10.75,5.81,2.64,1.33,5.26,3.47,8.24,4,.47.08.68-.65.2-.72-3.64-.6-7.63-3.65-11-5.32-2.63-1.32-11.91-4.88-11.1-9.06.57-2.93,5-3,7-1.89a23.33,23.33,0,0,1,5.63,4.57c3.09,3.21,6.74,7.14,8.1,11.44a.37.37,0,0,0,.72-.2Z" transform="translate(-9.71 -301.87)"/><path class="cls-1" d="M95.15,475.44c-1.33-5.91-5.73-11.66-9.84-16-2.6-2.72-7.31-7.05-11.29-4.39C63.87,461.87,91,474,94.83,476.46c.4.26.78-.39.37-.65-3.57-2.31-7.32-4.34-11-6.53-2.14-1.29-4.28-2.6-6.32-4a29.9,29.9,0,0,1-3-2.32c-1.85-1.7-2.25-2-1.68-4.5,1.25-5.51,7-2.56,9.85,0a36.54,36.54,0,0,1,4.64,5.15c2.69,3.52,5.68,7.72,6.66,12.11.11.47.83.27.73-.2Z" transform="translate(-9.71 -301.87)"/><path class="cls-1" d="M92.57,423.13c-.5-2.28-1.88-4.23-2.58-6.48a33.2,33.2,0,0,1-1.57-9.36,18,18,0,0,1,.19-3.52l2.71-1.6c.18.11.17.92.27,1.07.49.73.48,2.56.61,3.39a98,98,0,0,1,1.14,10.11c.06,1,.33,7.73-1,5.47a.38.38,0,0,0-.65.38l.54,1.41a.38.38,0,0,0,.36.28c3.94-.38.36-18-.22-20.75-.54-2.47-1.77-4.77-3.68-1.71-1.61,2.56-1.19,6-.81,8.87a37.45,37.45,0,0,0,1.75,7.46c.62,1.77,1.76,3.34,2.16,5.18.11.47.83.27.73-.2Z" transform="translate(-9.71 -301.87)"/><path class="cls-1" d="M92.89,423.58c.06,18.29,1.09,36.54,1.86,54.8.77,18.44.69,36.91,1.08,55.36.8,37.3,1.76,74.59,1.78,111.91a.38.38,0,0,0,.75,0c0-37.32-1-74.61-1.78-111.91-.38-18.13-.3-36.26-1-54.38-.76-18.59-1.84-37.17-1.9-55.78a.38.38,0,0,0-.75,0Z" transform="translate(-9.71 -301.87)"/><path class="cls-1" d="M154.6,341.53c2.74-9.82,1.39-24.91,10.25-31.88,2.16-1.69,8.5-3.41,8.12.86-.41,4.74-3.71,9.76-6.29,13.63-4.66,7-10.52,13.25-13.23,21.36-.15.46.57.65.72.2,4.57-13.66,17.27-22.52,20-37.16a.39.39,0,0,0-.26-.46c-17-6.51-17.37,23.83-20,33.25a.38.38,0,0,0,.73.2Z" transform="translate(-9.71 -301.87)"/><path class="cls-1" d="M155.16,371.74c8.76-10.23,22.17-14.07,29.23-26.12a.39.39,0,0,0-.06-.46c-13.88-11.89-24.44,16.37-30.21,24.44-.28.39.37.77.65.38,6-8.37,9.41-21.5,19.52-26.08,2.74-1.24,9.86-1.22,8.23,3.36-1.44,4-7,7.94-10.28,10.35-6,4.42-12.67,7.83-17.61,13.6-.31.37.22.9.53.53Z" transform="translate(-9.71 -301.87)"/><path class="cls-1" d="M154.19,354.5c2.6-4.24,4.78-8.72,7.45-12.92,3.07-4.85,7.74-12.22,14.07-13,1.53-.18,3.72,0,4.93,1.08,2.37,2.13-.4,4.68-1.92,6.48A47.51,47.51,0,0,1,169,344.5c-5.47,3.73-11.28,7-15.57,12.18-.31.36.22.9.53.53,8.63-10.36,22.15-14,29.23-26.12a.41.41,0,0,0-.06-.46c-13.36-11.43-24.44,15.11-29.58,23.49a.38.38,0,0,0,.65.38Z" transform="translate(-9.71 -301.87)"/><path class="cls-1" d="M155.22,382.26c3.14-4.24,5.88-8.75,9.15-12.89s8-10,13.7-10.74a7.61,7.61,0,0,1,4.54.71c3.3,1.63,1.95,3.29,0,5.68-2.69,3.27-6.59,5.72-10.19,7.82-6,3.52-12.85,6.2-17.86,11.23a.38.38,0,0,0,.53.53c5-5,11.72-7.62,17.71-11.11a42,42,0,0,0,13.42-11.81.39.39,0,0,0,0-.46c-12.21-12.57-25.7,12.74-31.58,20.66-.29.39.36.76.65.38Z" transform="translate(-9.71 -301.87)"/><path class="cls-1" d="M155.36,388.82c11.49-6.84,25.42-6.61,35.73-15.86a.39.39,0,0,0,.06-.46c-9.81-15.24-28.16,7.84-36.14,14-.38.29,0,.95.38.65,3.91-3,7.27-6.75,11-10,4.59-3.93,12.64-11,19.3-8.62l3,1.94c1.43,2.33.87,3.92-1.68,4.79a35.33,35.33,0,0,1-3.26,2A53.41,53.41,0,0,1,173,381.53c-6.24,1.83-12.41,3.29-18.05,6.65a.37.37,0,0,0,.38.64Z" transform="translate(-9.71 -301.87)"/><path class="cls-1" d="M156.86,400.41c3-5.05,5.57-10.3,8.94-15.1,2.38-3.38,5.19-7.05,8.9-9,2-1.07,6.82-2,8.6.22s-.59,4.2-1.87,5.75c-6.89,8.39-17.55,12.17-24.91,20-.33.35.2.88.53.53,8.9-9.5,21.56-13.47,28.41-25.14a.39.39,0,0,0-.06-.46c-12.66-11.75-24.54,14.9-29.19,22.82-.25.41.4.79.65.38Z" transform="translate(-9.71 -301.87)"/><path class="cls-1" d="M156.86,412.52c3-5,5.57-10.3,8.94-15.09,2.38-3.38,5.19-7.06,8.9-9,2-1.07,6.82-2,8.6.22s-.59,4.2-1.87,5.76c-6.89,8.39-17.54,12.17-24.91,20-.33.35.2.88.53.53,8.91-9.49,21.56-13.47,28.41-25.14a.39.39,0,0,0-.06-.46c-12.66-11.75-24.54,14.9-29.19,22.82a.38.38,0,0,0,.65.38Z" transform="translate(-9.71 -301.87)"/><path class="cls-1" d="M156.86,423.42c3-5,5.57-10.29,8.94-15.09,2.38-3.38,5.19-7.05,8.9-9,2-1.07,6.82-2,8.6.22s-.59,4.21-1.87,5.76c-6.89,8.39-17.55,12.17-24.91,20-.33.35.2.89.53.53,8.9-9.49,21.56-13.47,28.41-25.14a.38.38,0,0,0-.06-.45c-12.66-11.75-24.54,14.9-29.19,22.81a.38.38,0,0,0,.65.38Z" transform="translate(-9.71 -301.87)"/><path class="cls-1" d="M157.59,448.44c8.75-10.23,22.17-14.07,29.22-26.12a.38.38,0,0,0-.06-.46c-13.87-11.89-24.44,16.37-30.21,24.44-.28.39.37.77.65.38,6-8.37,9.41-21.51,19.52-26.08,2.75-1.25,9.87-1.22,8.23,3.35-1.44,4-7,7.95-10.27,10.36-6,4.41-12.68,7.83-17.61,13.6-.32.36.21.9.53.53Z" transform="translate(-9.71 -301.87)"/><path class="cls-1" d="M157.42,431.2c2.6-4.24,4.78-8.72,7.45-12.93,3.07-4.85,7.73-12.21,14.07-13,1.53-.18,3.72,0,4.93,1.09,2.37,2.13-.4,4.67-1.92,6.48a47.51,47.51,0,0,1-9.73,8.32c-5.48,3.74-11.25,7-15.58,12.17-.3.37.22.9.53.53,8.69-10.3,22.16-14,29.24-26.12a.4.4,0,0,0-.06-.45c-13.36-11.43-24.44,15.1-29.58,23.49-.25.41.39.79.65.38Z" transform="translate(-9.71 -301.87)"/><path class="cls-1" d="M157.64,459c3.14-4.24,5.88-8.75,9.15-12.9s8-10,13.7-10.73A7.58,7.58,0,0,1,185,436c3.29,1.63,1.94,3.28,0,5.68-2.69,3.27-6.58,5.72-10.19,7.82-6,3.51-12.87,6.18-17.85,11.23a.38.38,0,0,0,.53.53c4.93-5,11.73-7.63,17.7-11.11a42.09,42.09,0,0,0,13.43-11.82.38.38,0,0,0-.06-.45c-12.21-12.58-25.7,12.73-31.58,20.66-.29.38.36.76.65.38Z" transform="translate(-9.71 -301.87)"/><path class="cls-1" d="M157.78,465.52c11.5-6.84,25.42-6.61,35.73-15.87a.36.36,0,0,0,.06-.45c-9.81-15.24-28.16,7.83-36.14,14-.38.29,0,.94.38.65,3.91-3,7.27-6.76,11-10,4.59-3.94,12.64-11,19.3-8.63l3,1.95q2.16,3.48-1.68,4.79a35.33,35.33,0,0,1-3.26,2,53.41,53.41,0,0,1-10.78,4.23c-6.24,1.83-12.41,3.29-18,6.64-.41.25,0,.9.38.65Z" transform="translate(-9.71 -301.87)"/><path class="cls-1" d="M157.66,477.1c3-5,5.58-10.29,9-15.09,2.37-3.38,5.18-7.05,8.9-9,2-1.07,6.82-2,8.6.22s-.59,4.21-1.87,5.76c-6.9,8.39-17.55,12.17-24.91,20-.33.35.2.88.53.53,8.9-9.49,21.56-13.47,28.4-25.14a.36.36,0,0,0,0-.45c-12.67-11.74-24.53,14.88-29.19,22.82a.37.37,0,0,0,.64.37Z" transform="translate(-9.71 -301.87)"/><path class="cls-1" d="M158.47,489.22c3-5.05,5.58-10.3,8.95-15.1,2.37-3.37,5.18-7.05,8.9-9,2-1.07,6.82-2,8.6.22s-.59,4.2-1.87,5.75c-6.9,8.39-17.55,12.17-24.92,20-.33.35.2.88.53.53,8.91-9.5,21.57-13.47,28.41-25.15A.37.37,0,0,0,187,466c-12.72-11.67-24.49,14.83-29.19,22.82a.38.38,0,0,0,.65.38Z" transform="translate(-9.71 -301.87)"/><path class="cls-1" d="M158.47,500.12c3-5,5.58-10.3,8.95-15.09,2.37-3.38,5.18-7,8.9-9,2-1.07,6.82-2,8.6.22s-.59,4.2-1.87,5.76c-6.9,8.39-17.55,12.17-24.92,20-.33.35.2.88.53.53,8.91-9.5,21.57-13.47,28.41-25.14a.39.39,0,0,0-.06-.46c-12.7-11.69-24.5,14.85-29.19,22.82a.38.38,0,0,0,.65.38Z" transform="translate(-9.71 -301.87)"/><path class="cls-1" d="M158.47,511c3-5,5.58-10.3,8.95-15.1,2.37-3.38,5.18-7.05,8.9-9,2-1.07,6.82-2,8.6.23s-.59,4.2-1.87,5.75c-6.9,8.39-17.55,12.17-24.92,20-.33.35.2.88.53.53,8.91-9.5,21.57-13.48,28.41-25.15a.38.38,0,0,0-.06-.45c-12.68-11.72-24.52,14.87-29.19,22.82a.38.38,0,0,0,.65.38Z" transform="translate(-9.71 -301.87)"/><path class="cls-1" d="M158.47,521.92c3-5,5.58-10.3,8.95-15.1,2.37-3.37,5.18-7.05,8.9-9,2-1.07,6.82-2,8.6.22s-.59,4.2-1.87,5.76c-6.9,8.38-17.55,12.16-24.92,20-.33.35.2.88.53.53,8.91-9.5,21.57-13.47,28.41-25.14a.39.39,0,0,0-.06-.46c-12.7-11.69-24.5,14.85-29.19,22.82a.38.38,0,0,0,.65.38Z" transform="translate(-9.71 -301.87)"/><path class="cls-1" d="M156.6,446c-8-7.16-19-10-26.61-17.71-.89-.89-3.7-3.47-3.58-4.5l2.39-1.91a7.56,7.56,0,0,1,6.1-.62c4,1.12,7.19,4.45,9.86,7.44,4.26,4.77,7.58,10.24,11.29,15.42.28.39.93,0,.65-.38-5.39-7.52-19.6-33-31.12-20.16a.38.38,0,0,0,0,.45c7.86,11,20.82,13.85,30.54,22.5.36.32.89-.21.53-.53Z" transform="translate(-9.71 -301.87)"/><path class="cls-1" d="M157.58,456.81c-8.05-7.16-19-10-26.61-17.71-.89-.89-3.71-3.47-3.58-4.51l2.39-1.9a7.56,7.56,0,0,1,6.1-.62c4,1.12,7.19,4.45,9.85,7.44,4.27,4.77,7.59,10.23,11.3,15.42.27.39.93,0,.64-.38-5.39-7.55-19.56-33-31.11-20.16a.39.39,0,0,0-.06.45c7.86,11,20.83,13.85,30.54,22.5.36.32.9-.21.54-.53Z" transform="translate(-9.71 -301.87)"/><path class="cls-1" d="M157.76,477.73c-6.46-7.48-19.49-34.67-32.22-21.6a.38.38,0,0,0-.05.45c8.1,11.37,21.81,14,31.44,23.41.34.33.88-.2.53-.54-5.26-5.12-11.91-8-18.18-11.63-3.84-2.24-8.2-5-10.84-8.62-1-1.39-1.8-2.53-1-3.84a5.93,5.93,0,0,1,2.84-1.61,8.3,8.3,0,0,1,4.76.14c10.68,3.3,15.41,16.59,22.14,24.37.32.37.85-.16.53-.53Z" transform="translate(-9.71 -301.87)"/><path class="cls-1" d="M157.37,464.87c-4.75-4.74-10.83-7.53-16.62-10.75a48.41,48.41,0,0,1-10.26-7.24c-1.65-1.59-4.39-4.13-3.05-6.14.93-1.4,3.71-1.92,5.2-1.88,5.9.19,10.81,6.21,14.18,10.43s6.26,9,9.54,13.43c.29.38.94,0,.65-.38-5.89-7.9-19.3-33.36-31.56-20.79a.37.37,0,0,0-.06.45c8.13,11.38,21.92,13.88,31.45,23.4a.38.38,0,0,0,.53-.53Z" transform="translate(-9.71 -301.87)"/><path class="cls-1" d="M158.42,490c-6.47-7.33-22.26-31.26-33.25-17.72a.4.4,0,0,0,0,.53c8.76,10.14,22,11.93,32.41,19.5.39.28.77-.37.38-.65-6.53-4.72-14-6.72-21-10.46-3-1.63-6.88-3.79-9.06-6.52-1.69-2.13-1.9-3,.65-4.59a7.5,7.5,0,0,1,4.2-1.12c6.07.13,11.43,5.86,15.27,10,3.48,3.71,6.52,7.78,9.89,11.59.32.36.85-.17.53-.53Z" transform="translate(-9.71 -301.87)"/><path class="cls-1" d="M158.64,496.38c-5.9-3-12.13-4-18.57-5.3a57.73,57.73,0,0,1-12-4c-2.74-1.2-7.87-2.75-4-6.33,9.23-8.58,26.47,9.35,33.62,14.29.4.27.77-.38.38-.65-8.19-5.65-28.73-26.45-36.83-10.77a.38.38,0,0,0,.13.51c11,8.19,25.1,6.82,36.93,12.87.43.22.81-.43.38-.65Z" transform="translate(-9.71 -301.87)"/><path class="cls-1" d="M158.37,510.56c-8.05-7.16-19-10-26.61-17.7-.89-.9-3.7-3.48-3.58-4.51l2.39-1.91a7.6,7.6,0,0,1,6.1-.62c4,1.13,7.19,4.45,9.86,7.44,4.26,4.77,7.58,10.24,11.29,15.42.28.39.93,0,.65-.38-5.38-7.52-19.6-33-31.11-20.16a.38.38,0,0,0-.06.46c7.86,11,20.82,13.84,30.54,22.49.36.32.89-.2.53-.53Z" transform="translate(-9.71 -301.87)"/><path class="cls-1" d="M158.74,522c-6.29-5.22-14-8-20.63-12.7-1.55-1.09-9.08-6.52-8.88-8.58s5.85-2.69,7.08-2.59c3.74.33,6.56,2.75,9.15,5.21a.38.38,0,0,0,.64-.27c-.13,1.12,2.1,3,2.67,3.67,1.49,1.77,2.87,3.63,4.22,5.5,1.75,2.43,3.4,4.93,5.1,7.4.27.39.92,0,.64-.38-3.95-5.75-7.73-11.66-12.72-16.58a.38.38,0,0,0-.64.26c.36-3-6.83-5.29-9.06-5.56a8.4,8.4,0,0,0-3.2,0c-1.6.4-3.13,2.5-4.5,2.71a.38.38,0,0,0-.23.55c7.63,10.7,20.1,13.79,29.83,21.87.37.3.9-.23.53-.53Z" transform="translate(-9.71 -301.87)"/><path class="cls-1" d="M159,532.21c-8.09-6.36-18.39-9.32-25.58-16.89-.61-.64-3.27-3.11-3.15-4,.19-1.4,4.27-2.79,5.51-2.86,4.16-.23,8.19,3.08,11,5.81,4.54,4.45,8,9.87,11.58,15.11.27.4.92,0,.65-.38-5.33-7.86-18.31-29.39-29.53-17.92a.39.39,0,0,0-.06.46c7.47,10.46,19.37,13.58,29.08,21.22.37.3.91-.23.53-.53Z" transform="translate(-9.71 -301.87)"/><path class="cls-1" d="M155.79,414.74l-.09.09c-.34.35.19.88.53.53l.09-.09a.38.38,0,0,0-.53-.53Z" transform="translate(-9.71 -301.87)"/><path class="cls-1" d="M156.74,413c-5.72-8-16.36-36.33-30.2-24.42a.38.38,0,0,0-.06.46,53,53,0,0,0,16.06,17.73c4.39,3,10.42,5,13.84,9.22.31.37.84-.16.53-.53-3.27-4-8.84-5.94-13.07-8.72a50.74,50.74,0,0,1-9.89-8.42c-2.86-3.19-9.85-10.75-1.78-11.77,7-.89,12.56,7.81,15.76,12.84,2.89,4.54,5,9.61,8.16,14,.28.39.93,0,.65-.38Z" transform="translate(-9.71 -301.87)"/><path class="cls-1" d="M156.84,422.52c-6.46-7.5-19.61-34.61-32.26-21.51a.38.38,0,0,0-.06.46c8.34,11.63,22.69,14.1,32.26,24.08.33.35.86-.18.53-.53-5.23-5.46-12-8.38-18.48-12.08-3.91-2.23-8-4.81-10.88-8.32-1.2-1.46-2.34-2.85-1.46-4.36.38-.66,2.23-1.43,2.77-1.61a8,8,0,0,1,4.64,0c10.77,3.06,15.72,16.59,22.41,24.36.32.37.85-.17.53-.53Z" transform="translate(-9.71 -301.87)"/><path class="cls-1" d="M157.23,429.83c-7.89-5.89-28-30.95-37.66-15.25a.39.39,0,0,0,.06.46c10.66,9.5,25.19,8.88,36.71,16.53.4.27.78-.38.37-.65-7-4.67-15.23-5.82-23.05-8.58a42.6,42.6,0,0,1-7.57-3.42c-2.43-1.43-6.46-3.22-4.35-6.08s6.19-2.74,9.15-1.86c10.71,3.17,17.39,13.1,26,19.5.39.29.76-.36.38-.65Z" transform="translate(-9.71 -301.87)"/><path class="cls-1" d="M154,347.58c-6.89-6.69-14.2-13-20.69-20.06-2.56-2.8-6.73-6.75-7.32-10.73s4.57-7,8.14-6c6.75,1.76,10.93,11,13.5,16.77s5.64,12.87,5.39,19.27a.38.38,0,0,0,.75,0c.3-7.6-3.65-16.21-7-22.83-2.64-5.21-7.79-14.88-14.95-14.16-2.48.25-5.66,2.3-6.52,4.72s1.18,5.54,2.53,7.5c6.89,10,17,17.7,25.64,26.08.35.34.88-.19.53-.53Z" transform="translate(-9.71 -301.87)"/><path class="cls-1" d="M154.25,360.21c-5.38-2.9-10.94-5.43-16.35-8.26-3.82-2-16-7.09-12.82-12.85,6.74-12.39,26,14.15,28,20.67a.38.38,0,0,0,.73-.2c-2.08-7-19.28-32-28.27-22.37-4.23,4.54,0,8,3.91,10.72,7.63,5.17,16.37,8.57,24.46,12.93.42.23.8-.41.38-.64Z" transform="translate(-9.71 -301.87)"/><path class="cls-1" d="M153.76,370.74c-2.3-5.14-7.47-9.51-11.74-13-4-3.22-9.92-7.9-15.46-7.18-4,.52-7.26,5.56-4.41,8.94s8.73,5,12.8,6.41c6.42,2.21,13,3.87,19.41,6.18.45.17.65-.56.2-.72-8.81-3.19-18.21-5-26.7-9-4-1.9-8.47-7.14-3.34-10.32,2.08-1.3,4.72-.7,6.87.07,5.22,1.86,9.85,5.7,13.82,9.44,2.91,2.73,6.25,5.86,7.9,9.56.2.44.85.06.65-.38Z" transform="translate(-9.71 -301.87)"/><path class="cls-1" d="M151.46,379.84c-2.86-6.51-10-12.2-15.71-16-4-2.67-11.43-7-15.43-2-4.76,5.87,2.08,9.22,6.87,11.23,8.7,3.65,18.43,5,26.9,9.11.43.21.81-.44.38-.65-5.73-2.78-12.24-4.1-18.28-6-4.4-1.42-19.9-5-16-12.08,6.2-11.26,27.67,10.16,30.61,16.85.19.45.84.06.65-.37Z" transform="translate(-9.71 -301.87)"/><path class="cls-1" d="M154.91,391.07c-2-6.9-19.9-31.6-28.62-21.88-3.82,4.27-.12,7.6,3.68,10.18,4.5,3.06,9.52,5.3,14.37,7.73,3.6,1.8,7.19,4.81,11.25,5.41.47.07.68-.65.2-.72-3.28-.49-6.1-2.74-9-4.28-2.28-1.22-4.64-2.3-6.95-3.46-3.91-2-16.13-6.86-14-12.8,3.23-9.07,14.78,1.67,17.87,5,4,4.25,8.79,9.37,10.47,15a.37.37,0,0,0,.72-.2Z" transform="translate(-9.71 -301.87)"/><path class="cls-1" d="M156,404.62c-1.69-8.05-7.94-16.1-13.53-21.91-3.61-3.76-10.24-9.72-15.58-5.56-5.77,4.52-1.31,9.22,3,12.61,8,6.27,17.36,10.57,25.86,16.1.4.26.78-.39.38-.65-5.73-3.72-36.26-17.43-29.87-26.29,8.45-11.71,27.47,18.64,29,25.9.1.47.82.27.72-.2Z" transform="translate(-9.71 -301.87)"/><path class="cls-1" d="M152.47,333c-.8-3.69-3-6.92-4-10.64-1.25-4.8-2.84-11.08-1.42-15.94.54-1.85,1.93-4.45,4.05-1.95.26.31.15,1,.32,1.33.63,1.42.66,3.55.9,5.09a135.52,135.52,0,0,1,1.49,13.63,39.53,39.53,0,0,1,0,5.86c-.17,1.79-.27,3.77-1.62,1.39-.23-.42-.88,0-.64.38l.75,2a.37.37,0,0,0,.36.27c5-.3.38-23.9-.25-27.24-.46-2.39-1.34-7.37-4.29-4.33s-2.32,8.54-1.88,12.32a55.4,55.4,0,0,0,1.93,9.19c.9,3,2.87,5.83,3.53,8.87.1.47.82.27.72-.2Z" transform="translate(-9.71 -301.87)"/><path class="cls-1" d="M153.19,333.57c.11,39.53,3.07,79,3.56,118.51s1.67,79.2,2.31,118.8q.54,33.39.59,66.77a.38.38,0,0,0,.75,0c0-39.62-.72-79.23-1.62-118.84s-.85-79.18-2.69-118.71c-1-22.16-2.09-44.33-2.15-66.53a.38.38,0,0,0-.75,0Z" transform="translate(-9.71 -301.87)"/><path class="cls-1" d="M203.12,429.41c1.92-7.08,1.06-17.45,7-22.8,1.89-1.71,6.56-3.15,6.11.7-.4,3.47-2.89,7.08-4.83,9.91-3.35,4.91-7.31,9.34-9.27,15-.16.46.56.65.72.2,3.43-9.95,12.51-16.47,14.57-27.14a.39.39,0,0,0-.26-.46c-12.52-4.62-12.81,17.29-14.73,24.35a.38.38,0,0,0,.73.2Z" transform="translate(-9.71 -301.87)"/><path class="cls-1" d="M203.51,451.52c6.42-7.44,16.17-10.32,21.35-19.09a.39.39,0,0,0-.05-.46c-10.3-8.69-17.92,11.85-22.23,17.87-.28.39.37.77.65.38,4.29-6,6.84-15.78,14.14-19,2.65-1.16,7.21-.74,5.45,3-1.33,2.83-5.1,5.45-7.57,7.2-4.28,3-8.81,5.49-12.27,9.51-.32.37.21.9.53.53Z" transform="translate(-9.71 -301.87)"/><path class="cls-1" d="M202.81,438.91c1.89-3.1,3.5-6.37,5.44-9.45,2.25-3.54,5.82-9.26,10.57-9.46.87,0,2.61.14,3.25.88,1.68,1.94-1.17,4.24-2.4,5.53a41.16,41.16,0,0,1-7,5.64c-3.75,2.51-7.61,4.83-10.53,8.33-.31.37.22.9.53.53,6.3-7.57,16.16-10.29,21.36-19.1a.36.36,0,0,0-.06-.45C214,413,206,432.29,202.16,438.54c-.25.41.4.79.65.37Z" transform="translate(-9.71 -301.87)"/><path class="cls-1" d="M203.56,459.19c4.07-5.51,8.71-15.65,16.11-17.14a5.46,5.46,0,0,1,4,.54c2,1.4.7,2.8-.71,4.37a28.37,28.37,0,0,1-7.1,5.3c-4.37,2.54-9.28,4.48-12.91,8.12-.34.35.19.88.53.53,6.86-6.88,16.81-8.58,22.75-16.76a.37.37,0,0,0-.06-.45c-9.06-9.18-18.85,9.2-23.22,15.11-.28.38.37.76.65.38Z" transform="translate(-9.71 -301.87)"/><path class="cls-1" d="M203.63,464c8.46-4.91,18.56-4.91,26.11-11.61a.36.36,0,0,0,.06-.45c-7.38-11.11-20.72,5.59-26.61,10.24-.38.3.16.82.53.53,4.48-3.54,16.26-18.14,22.93-13.09,5.77,4.36-9,8.52-11.73,9.3-4.08,1.17-8,2.29-11.67,4.43a.38.38,0,0,0,.38.65Z" transform="translate(-9.71 -301.87)"/><path class="cls-1" d="M204.76,472.44c2.12-3.62,4-7.4,6.4-10.84,1.7-2.43,3.79-5.32,6.53-6.71,1.53-.78,6.83-1.63,6.65,1.68-.06,1.07-1.9,2.62-2.52,3.32-5,5.59-12.32,8.33-17.47,13.79-.33.35.2.88.53.53,6.53-6.92,15.74-9.87,20.76-18.38a.36.36,0,0,0,0-.45c-9.34-8.68-18.07,10.85-21.48,16.68a.38.38,0,0,0,.65.38Z" transform="translate(-9.71 -301.87)"/><path class="cls-1" d="M204.76,481.29c2.12-3.63,4-7.4,6.4-10.85,1.7-2.42,3.79-5.32,6.53-6.7,1.53-.78,6.83-1.64,6.65,1.67-.06,1.08-1.9,2.63-2.52,3.32-5,5.6-12.32,8.34-17.47,13.8-.33.35.2.88.53.53,6.53-6.93,15.74-9.87,20.76-18.38a.38.38,0,0,0,0-.46c-9.34-8.67-18.07,10.86-21.48,16.69a.38.38,0,0,0,.65.38Z" transform="translate(-9.71 -301.87)"/><path class="cls-1" d="M204.76,489.25c2.12-3.62,4-7.4,6.4-10.84,1.7-2.43,3.79-5.32,6.53-6.71,1.53-.78,6.83-1.63,6.65,1.68-.06,1.07-1.9,2.62-2.52,3.32-5,5.59-12.32,8.33-17.47,13.79-.33.35.2.88.53.53,6.53-6.92,15.74-9.87,20.76-18.38a.36.36,0,0,0,0-.45c-9.34-8.68-18.07,10.85-21.48,16.68a.38.38,0,0,0,.65.38Z" transform="translate(-9.71 -301.87)"/><path class="cls-1" d="M205.27,507.54c6.43-7.45,16.18-10.32,21.36-19.1a.36.36,0,0,0-.06-.45c-10.29-8.7-17.92,11.84-22.22,17.86-.28.39.37.77.65.38,4.29-6,6.84-15.78,14.14-19,2.65-1.16,7.21-.74,5.44,3-1.32,2.83-5.09,5.44-7.56,7.19-4.28,3-8.81,5.5-12.28,9.52-.31.36.22.89.53.53Z" transform="translate(-9.71 -301.87)"/><path class="cls-1" d="M205.17,494.93c1.89-3.11,3.49-6.38,5.44-9.45,2.25-3.55,5.81-9.26,10.57-9.47.86,0,2.61.15,3.25.88,1.68,1.94-1.18,4.25-2.41,5.54a40.34,40.34,0,0,1-7.05,5.63c-3.75,2.52-7.58,4.84-10.53,8.33-.31.37.22.9.53.53,6.35-7.53,16.17-10.29,21.37-19.09a.39.39,0,0,0-.06-.46c-9.9-8.35-17.95,10.94-21.76,17.18-.25.41.4.79.65.38Z" transform="translate(-9.71 -301.87)"/><path class="cls-1" d="M205.33,515.2c4.07-5.51,8.71-15.64,16.11-17.13a5.36,5.36,0,0,1,4,.54c2,1.39.7,2.79-.71,4.37a28.76,28.76,0,0,1-7.1,5.29c-4.37,2.54-9.3,4.47-12.91,8.13a.38.38,0,0,0,.53.53c3.73-3.78,8.94-5.73,13.42-8.41a30.45,30.45,0,0,0,9.33-8.35.38.38,0,0,0-.06-.46c-9.06-9.17-18.86,9.21-23.22,15.11-.29.39.36.76.65.38Z" transform="translate(-9.71 -301.87)"/><path class="cls-1" d="M205.4,520c8.46-4.9,18.56-4.9,26.11-11.6a.38.38,0,0,0,.06-.46c-7.38-11.1-20.72,5.59-26.61,10.24-.38.3.16.83.53.53,4.48-3.53,16.25-18.13,22.92-13.09,5.78,4.37-9,8.52-11.72,9.3-4.09,1.17-8,2.29-11.67,4.43a.38.38,0,0,0,.38.65Z" transform="translate(-9.71 -301.87)"/><path class="cls-1" d="M205.35,528.45c2.12-3.62,4-7.39,6.4-10.84,1.7-2.43,3.79-5.32,6.53-6.71,1.53-.78,6.83-1.63,6.65,1.68-.06,1.07-1.9,2.63-2.52,3.32-5,5.6-12.32,8.33-17.47,13.79-.33.35.2.89.53.53,6.53-6.92,15.74-9.87,20.76-18.38a.36.36,0,0,0,0-.45c-9.35-8.67-18.06,10.85-21.48,16.68a.38.38,0,0,0,.65.38Z" transform="translate(-9.71 -301.87)"/><path class="cls-1" d="M205.94,537.3c2.12-3.62,4-7.4,6.4-10.84,1.7-2.43,3.79-5.32,6.53-6.71,1.53-.78,6.83-1.63,6.65,1.68-.06,1.07-1.9,2.62-2.52,3.32-5,5.6-12.32,8.33-17.47,13.79-.33.35.2.88.53.53,6.53-6.92,15.74-9.87,20.76-18.38a.38.38,0,0,0,0-.46c-9.39-8.61-18,10.81-21.48,16.69a.38.38,0,0,0,.65.38Z" transform="translate(-9.71 -301.87)"/><path class="cls-1" d="M205.94,545.26c2.12-3.62,4-7.39,6.4-10.84,1.7-2.43,3.79-5.32,6.53-6.71,1.53-.78,6.83-1.63,6.65,1.68-.06,1.07-1.9,2.63-2.52,3.32-5,5.6-12.32,8.34-17.47,13.79-.33.36.2.89.53.53,6.53-6.92,15.74-9.87,20.76-18.38a.36.36,0,0,0,0-.45c-9.38-8.63-18,10.82-21.48,16.68a.38.38,0,0,0,.65.38Z" transform="translate(-9.71 -301.87)"/><path class="cls-1" d="M205.94,553.22c2.12-3.62,4-7.4,6.4-10.84,1.7-2.43,3.79-5.32,6.53-6.71,1.53-.78,6.83-1.63,6.65,1.68-.06,1.07-1.9,2.62-2.52,3.31-5,5.6-12.32,8.34-17.47,13.8-.33.35.2.88.53.53,6.53-6.92,15.74-9.87,20.76-18.38a.36.36,0,0,0,0-.45c-9.36-8.66-18.06,10.83-21.48,16.68a.38.38,0,0,0,.65.38Z" transform="translate(-9.71 -301.87)"/><path class="cls-1" d="M205.94,561.18c2.12-3.62,4-7.39,6.4-10.84,1.7-2.43,3.79-5.32,6.53-6.71,1.53-.78,6.83-1.63,6.65,1.68-.06,1.07-1.9,2.63-2.52,3.32-5,5.6-12.32,8.33-17.47,13.79-.33.35.2.89.53.53,6.53-6.92,15.74-9.87,20.76-18.38a.36.36,0,0,0,0-.45c-9.38-8.63-18,10.81-21.48,16.68a.38.38,0,0,0,.65.38Z" transform="translate(-9.71 -301.87)"/><path class="cls-1" d="M204.55,505.58c-5.67-5-13.24-7.1-18.77-12.29-.63-.6-1.24-1.23-1.81-1.89-2.19-1.55-2-2.54.69-2.95a3,3,0,0,1,3.83-.58c3,.62,5.28,3,7.27,5.22,3.11,3.47,5.54,7.46,8.23,11.24.28.39.93,0,.65-.38-3.9-5.48-14.39-24.2-22.88-14.75a.39.39,0,0,0-.06.46c5.79,8,15.18,10.15,22.32,16.45.36.32.9-.21.53-.53Z" transform="translate(-9.71 -301.87)"/><path class="cls-1" d="M205.27,513.51c-5.67-5-13.25-7.1-18.78-12.29a24.68,24.68,0,0,1-1.8-1.89c-2.19-1.55-2-2.54.69-2.95a3,3,0,0,1,3.83-.58c3,.62,5.27,3,7.27,5.22,3.1,3.47,5.53,7.45,8.23,11.24.28.39.93,0,.64-.38-3.91-5.5-14.37-24.18-22.88-14.75a.39.39,0,0,0-.05.46c5.78,8,15.18,10.15,22.32,16.45.36.32.89-.21.53-.53Z" transform="translate(-9.71 -301.87)"/><path class="cls-1" d="M205.4,528.79c-4.82-5.58-14.2-25.31-23.67-15.78a.39.39,0,0,0-.06.46c6,8.26,15.9,10.28,23,17.11.35.33.88-.2.53-.53-3.85-3.72-8.63-5.8-13.2-8.46-2.79-1.63-6.14-3.59-8-6.31-2.63-3.91,2.61-4.57,5.44-3.45,7.38,2.94,10.57,11.86,15.43,17.49.32.37.85-.17.53-.53Z" transform="translate(-9.71 -301.87)"/><path class="cls-1" d="M205.11,519.39c-3.2-3.2-7.24-5.18-11.18-7.33a42.93,42.93,0,0,1-7.19-4.66c-2.48-2.1-6.1-6.19-.47-6.76,8-.82,14,12,17.95,17.31.28.38.94,0,.65-.38-4.38-5.91-14.09-24.36-23.21-15.21a.39.39,0,0,0-.06.46c6,8.28,16,10.14,23,17.1a.37.37,0,0,0,.53-.53Z" transform="translate(-9.71 -301.87)"/><path class="cls-1" d="M205.88,537.75c-4.83-5.47-16.22-22.81-24.42-12.94a.39.39,0,0,0,0,.53c6.42,7.36,16,8.79,23.69,14.25.39.28.77-.37.38-.64-4.56-3.24-9.56-4.72-14.42-7.17a30.36,30.36,0,0,1-6.2-4c-.82-.71-2.56-1.91-2.25-3.26s3.2-1.94,4.16-2c7.64-.29,14.11,10.72,18.53,15.73.32.36.85-.17.53-.53Z" transform="translate(-9.71 -301.87)"/><path class="cls-1" d="M206,542.39c-4.09-2.09-8.41-2.9-12.87-3.75a39.13,39.13,0,0,1-9.43-3c-.68-.32.09.68-1.66-.79-1.4-.15-1.88-.86-1.46-2.13q-.6-3.18,3.79-3c7.32-.65,15.37,8.11,20.81,11.91.39.27.77-.38.38-.65-6.22-4.34-20.84-19.23-27-7.83a.39.39,0,0,0,.14.51c8.12,5.84,18.3,5,27,9.4.43.22.81-.43.38-.65Z" transform="translate(-9.71 -301.87)"/><path class="cls-1" d="M205.85,552.77c-5.67-5-13.25-7.1-18.78-12.29-.63-.6-1.24-1.23-1.81-1.89q-3.27-2.34.7-3a3,3,0,0,1,3.83-.58c3,.62,5.27,3,7.27,5.21,3.1,3.48,5.53,7.46,8.23,11.24.27.39.92,0,.64-.38-3.9-5.47-14.39-24.19-22.88-14.74a.39.39,0,0,0-.05.46c5.78,8,15.18,10.15,22.32,16.45.36.31.89-.21.53-.53Z" transform="translate(-9.71 -301.87)"/><path class="cls-1" d="M206.12,561.11c-4.38-3.6-9.63-5.62-14.31-8.74-1.74-1.17-6.7-4.6-7.3-6.61-.19-.65,3.39-2,5.15-1.9,2.77.16,4.74,2,6.62,3.77a.38.38,0,0,0,.64-.26c-.23,1.88,3.74,5.22,4.8,6.69,1.29,1.79,2.51,3.63,3.76,5.45.27.4.92,0,.65-.38-2.89-4.2-5.66-8.52-9.31-12.12a.38.38,0,0,0-.64.26c.28-2.39-4.73-4-6.51-4.16a6.24,6.24,0,0,0-2.28,0c-1.2.27-2.36,1.87-3.38,2a.38.38,0,0,0-.22.55c5.6,7.8,14.65,10.1,21.8,16,.37.31.9-.22.53-.53Z" transform="translate(-9.71 -301.87)"/><path class="cls-1" d="M206.28,568.57c-5.89-4.6-13.42-6.78-18.65-12.29-.58-.62-2.25-2-2.32-2.84-.3-3,3.55-2.09,5-1.89,2.88.4,5.27,2.4,7.26,4.4,3.16,3.15,5.6,7,8.09,10.66.27.4.92,0,.65-.37-3.92-5.78-13.46-21.57-21.73-13.11a.39.39,0,0,0-.06.46c5.5,7.62,14.12,9.94,21.25,15.51.38.3.91-.23.53-.53Z" transform="translate(-9.71 -301.87)"/><path class="cls-1" d="M203.82,482.78l-.07.07c-.33.35.2.88.54.53l.06-.06c.34-.35-.19-.88-.53-.54Z" transform="translate(-9.71 -301.87)"/><path class="cls-1" d="M204.67,481.55c-4.24-6-12-26.55-22.21-17.85a.38.38,0,0,0-.06.46A39,39,0,0,0,194,477c3.26,2.26,7.71,3.76,10.28,6.85.31.37.84-.16.53-.53-2.25-2.71-5.93-4.07-8.84-5.92a38.14,38.14,0,0,1-7.33-5.94c-2-2.15-8-8.44-1.89-9.08,5.18-.54,9.17,5.88,11.52,9.6,2,3.24,3.58,6.82,5.79,9.94.27.39.92,0,.64-.38Z" transform="translate(-9.71 -301.87)"/><path class="cls-1" d="M204.73,488.47c-4.77-5.61-14.31-25.24-23.71-15.71a.38.38,0,0,0-.05.45c6.14,8.45,16.53,10.36,23.57,17.61.34.35.87-.18.53-.53-3.85-4-8.75-6.11-13.48-8.81-2.88-1.65-6.32-3.62-8.24-6.4-2.68-3.89,2.42-4.66,5.32-3.54,7.38,2.85,10.72,11.81,15.53,17.46.32.36.84-.17.53-.53Z" transform="translate(-9.71 -301.87)"/><path class="cls-1" d="M205,493.79c-5.9-4.46-20.41-22.54-27.65-11.1a.38.38,0,0,0,.06.45c7.85,6.87,18.36,6.58,26.83,12.09.41.27.78-.38.38-.64-4.94-3.22-10.54-4.14-16-6-1.94-.66-10.75-3.4-9.58-6.95.85-2.54,5.49-1.82,7.16-1.27,7.54,2.46,12.37,9.45,18.46,14.07.38.29.76-.36.38-.65Z" transform="translate(-9.71 -301.87)"/><path class="cls-1" d="M202.64,433.74c-4.71-4.57-9.68-8.89-14.19-13.66-2-2.16-4.4-4.5-5.64-7.23-1.7-3.73,2.14-6.89,5.79-5.62,4.77,1.67,7.7,8.43,9.54,12.7,1.73,4,3.75,8.86,3.62,13.31,0,.48.73.48.75,0,.17-5.79-2.78-12.23-5.4-17.24-1.93-3.7-5.67-10.45-10.8-9.88s-5.56,5-3.29,8.56c4.85,7.59,12.69,13.38,19.09,19.59.35.33.88-.2.53-.53Z" transform="translate(-9.71 -301.87)"/><path class="cls-1" d="M202.82,442.94c-3.61-1.94-7.34-3.66-11-5.53-3-1.54-10.63-4.55-10.5-8.47.27-7.89,10-.46,12.12,1.67,3.33,3.35,6.83,7.56,8.33,12.13.15.45.87.26.72-.2-1.66-5.09-14.45-24-21-16.15-2.73,3.26,0,5.65,2.83,7.59,5.61,3.88,12.11,6.38,18.1,9.61.42.23.8-.42.38-.65Z" transform="translate(-9.71 -301.87)"/><path class="cls-1" d="M202.5,450.67c-1.83-4-5.83-7.34-9.19-10-2.82-2.2-7.28-5.6-11.18-4.73-3,.68-4.72,4.26-2.79,6.76s6.36,3.56,9.07,4.5c4.76,1.66,9.66,2.89,14.41,4.6.45.16.65-.56.2-.73-5.49-2-11.19-3.3-16.63-5.4-2.64-1-10.25-5.46-5.32-8.53,1.84-1.15,4.25-.31,6.05.48,5.39,2.39,12.2,7.9,14.73,13.39.2.44.85.06.65-.38Z" transform="translate(-9.71 -301.87)"/><path class="cls-1" d="M200.81,457.31c-2.3-5.07-17.11-20.42-22.95-13.11-6.72,8.4,20.58,12.93,24.74,14.92.43.21.81-.44.38-.65-3.83-1.83-8.11-2.76-12.14-4-3.4-1.06-13.36-3.12-13.3-7.5.12-8.29,11.57-.77,14.12,1.29,3.12,2.53,6.82,5.74,8.51,9.46.2.44.84.06.64-.38Z" transform="translate(-9.71 -301.87)"/><path class="cls-1" d="M203.35,465.54c-1.57-5-15.46-24.19-21.51-15.44-2.06,3,.37,5.08,2.89,6.85,3.33,2.34,7.13,4,10.75,5.81,2.64,1.33,5.26,3.47,8.24,4,.47.08.68-.65.2-.72-3.64-.6-7.63-3.65-11-5.32-2.63-1.32-11.91-4.88-11.1-9.06.57-2.93,5-3,7-1.89a23.33,23.33,0,0,1,5.63,4.57c3.09,3.21,6.74,7.14,8.1,11.44a.37.37,0,0,0,.72-.2Z" transform="translate(-9.71 -301.87)"/><path class="cls-1" d="M204.15,475.44c-1.33-5.91-5.73-11.66-9.84-16-2.6-2.72-7.31-7.05-11.29-4.39C172.87,461.87,200,474,203.83,476.46c.4.26.78-.39.37-.65-3.57-2.31-7.32-4.34-11-6.53-2.14-1.29-4.28-2.6-6.32-4a29.9,29.9,0,0,1-3-2.32c-1.85-1.7-2.25-2-1.68-4.5,1.25-5.51,7-2.56,9.85,0a36.54,36.54,0,0,1,4.64,5.15c2.69,3.52,5.68,7.72,6.66,12.11.11.47.83.27.73-.2Z" transform="translate(-9.71 -301.87)"/><path class="cls-1" d="M201.57,423.13c-.5-2.28-1.88-4.23-2.58-6.48a33.2,33.2,0,0,1-1.57-9.36,18,18,0,0,1,.19-3.52l2.71-1.6c.18.11.17.92.27,1.07.49.73.48,2.56.61,3.39a98,98,0,0,1,1.14,10.11c.06,1,.33,7.73-1,5.47a.38.38,0,0,0-.65.38l.54,1.41a.38.38,0,0,0,.36.28c3.94-.38.36-18-.22-20.75-.54-2.47-1.77-4.77-3.68-1.71-1.61,2.56-1.19,6-.81,8.87a37.45,37.45,0,0,0,1.75,7.46c.62,1.77,1.76,3.34,2.16,5.18.11.47.83.27.73-.2Z" transform="translate(-9.71 -301.87)"/><path class="cls-1" d="M201.89,423.58c.06,18.29,1.09,36.54,1.86,54.8.77,18.44.69,36.91,1.08,55.36.8,37.3,1.76,74.59,1.78,111.91a.38.38,0,0,0,.75,0c0-37.32-1-74.61-1.78-111.91-.38-18.13-.3-36.26-1-54.38-.76-18.59-1.84-37.17-1.9-55.78a.38.38,0,0,0-.75,0Z" transform="translate(-9.71 -301.87)"/><path class="cls-1" d="M267.6,346.53c2.74-9.82,1.39-24.91,10.25-31.88,2.16-1.69,8.5-3.41,8.12.86-.41,4.74-3.71,9.76-6.29,13.63-4.66,7-10.52,13.25-13.23,21.36-.15.46.57.65.72.2,4.57-13.66,17.27-22.52,20-37.16a.39.39,0,0,0-.26-.46c-17-6.51-17.37,23.83-20,33.25a.38.38,0,0,0,.73.2Z" transform="translate(-9.71 -301.87)"/><path class="cls-1" d="M268.16,376.74c8.76-10.23,22.17-14.07,29.23-26.12a.39.39,0,0,0-.06-.46c-13.88-11.89-24.44,16.37-30.21,24.44-.28.39.37.77.65.38,6-8.37,9.41-21.5,19.52-26.08,2.74-1.24,9.86-1.22,8.23,3.36-1.44,4-7,7.94-10.28,10.35-6,4.42-12.67,7.83-17.61,13.6-.31.37.22.9.53.53Z" transform="translate(-9.71 -301.87)"/><path class="cls-1" d="M267.19,359.5c2.6-4.24,4.78-8.72,7.45-12.92,3.07-4.85,7.74-12.22,14.07-13,1.53-.18,3.72,0,4.93,1.08,2.37,2.13-.4,4.68-1.92,6.48A47.51,47.51,0,0,1,282,349.5c-5.47,3.73-11.28,7-15.57,12.18-.31.36.22.9.53.53,8.63-10.36,22.15-14,29.23-26.12a.41.41,0,0,0-.06-.46c-13.36-11.43-24.44,15.11-29.58,23.49a.38.38,0,0,0,.65.38Z" transform="translate(-9.71 -301.87)"/><path class="cls-1" d="M268.22,387.26c3.14-4.24,5.88-8.75,9.15-12.89s8-10,13.7-10.74a7.61,7.61,0,0,1,4.54.71c3.3,1.63,1.95,3.29,0,5.68-2.69,3.27-6.59,5.72-10.19,7.82-6,3.52-12.85,6.2-17.86,11.23a.38.38,0,0,0,.53.53c5-5,11.72-7.62,17.71-11.11a42,42,0,0,0,13.42-11.81.39.39,0,0,0-.05-.46c-12.21-12.57-25.7,12.74-31.58,20.66-.29.39.36.76.65.38Z" transform="translate(-9.71 -301.87)"/><path class="cls-1" d="M268.36,393.82c11.49-6.84,25.42-6.61,35.73-15.86a.39.39,0,0,0,.06-.46c-9.81-15.24-28.16,7.84-36.14,14-.38.29,0,.95.38.65,3.91-3,7.27-6.75,11-10,4.59-3.93,12.64-11,19.3-8.62l3,1.94c1.43,2.33.87,3.92-1.68,4.79a35.33,35.33,0,0,1-3.26,2A53.41,53.41,0,0,1,286,386.53c-6.24,1.83-12.41,3.29-18,6.65a.37.37,0,0,0,.38.64Z" transform="translate(-9.71 -301.87)"/><path class="cls-1" d="M269.86,405.41c3-5.05,5.57-10.3,8.94-15.1,2.38-3.38,5.19-7.05,8.9-9,2-1.07,6.82-2,8.6.22s-.59,4.2-1.87,5.75c-6.89,8.39-17.55,12.17-24.91,20-.33.35.2.88.53.53,8.9-9.5,21.56-13.47,28.41-25.14a.39.39,0,0,0-.06-.46c-12.66-11.75-24.54,14.9-29.19,22.82-.25.41.4.79.65.38Z" transform="translate(-9.71 -301.87)"/><path class="cls-1" d="M269.86,417.52c3-5,5.57-10.3,8.94-15.09,2.38-3.38,5.19-7.06,8.9-9,2-1.07,6.82-2,8.6.22s-.59,4.2-1.87,5.76c-6.89,8.39-17.54,12.17-24.91,20-.33.35.2.88.53.53,8.91-9.49,21.56-13.47,28.41-25.14a.39.39,0,0,0-.06-.46c-12.66-11.75-24.54,14.9-29.19,22.82a.38.38,0,0,0,.65.38Z" transform="translate(-9.71 -301.87)"/><path class="cls-1" d="M269.86,428.42c3-5,5.57-10.29,8.94-15.09,2.38-3.38,5.19-7.05,8.9-9,2-1.07,6.82-2,8.6.22s-.59,4.21-1.87,5.76c-6.89,8.39-17.55,12.17-24.91,20-.33.35.2.89.53.53,8.9-9.49,21.56-13.47,28.41-25.14a.38.38,0,0,0-.06-.45c-12.66-11.75-24.54,14.9-29.19,22.81a.38.38,0,0,0,.65.38Z" transform="translate(-9.71 -301.87)"/><path class="cls-1" d="M270.59,453.44c8.75-10.23,22.17-14.07,29.22-26.12a.38.38,0,0,0-.06-.46c-13.87-11.89-24.44,16.37-30.21,24.44-.28.39.37.77.65.38,6-8.37,9.41-21.51,19.52-26.08,2.75-1.25,9.87-1.22,8.23,3.35-1.44,4-7,7.95-10.27,10.36-6.05,4.41-12.68,7.83-17.61,13.6-.32.36.21.9.53.53Z" transform="translate(-9.71 -301.87)"/><path class="cls-1" d="M270.42,436.2c2.6-4.24,4.78-8.72,7.45-12.93,3.07-4.85,7.73-12.21,14.07-13,1.53-.18,3.72,0,4.93,1.09,2.37,2.13-.4,4.67-1.92,6.48a47.51,47.51,0,0,1-9.73,8.32c-5.48,3.74-11.25,7-15.58,12.17-.3.37.22.9.53.53,8.69-10.3,22.16-14,29.24-26.12a.4.4,0,0,0-.06-.45c-13.36-11.43-24.44,15.1-29.58,23.49-.25.41.39.79.65.38Z" transform="translate(-9.71 -301.87)"/><path class="cls-1" d="M270.64,464c3.14-4.24,5.88-8.75,9.15-12.9s8-10,13.7-10.73A7.58,7.58,0,0,1,298,441c3.29,1.63,1.94,3.28,0,5.68-2.69,3.27-6.58,5.72-10.19,7.82-6,3.51-12.87,6.18-17.85,11.23a.38.38,0,0,0,.53.53c4.93-5,11.73-7.63,17.7-11.11a42.09,42.09,0,0,0,13.43-11.82.38.38,0,0,0-.06-.45c-12.21-12.58-25.7,12.73-31.58,20.66-.29.38.36.76.65.38Z" transform="translate(-9.71 -301.87)"/><path class="cls-1" d="M270.78,470.52c11.5-6.84,25.42-6.61,35.73-15.87a.36.36,0,0,0,.06-.45c-9.81-15.24-28.16,7.83-36.14,14-.38.29,0,.94.38.65,3.91-3,7.27-6.76,11-10,4.59-3.94,12.64-11,19.3-8.63l3,1.95q2.16,3.48-1.68,4.79a35.33,35.33,0,0,1-3.26,2,53.41,53.41,0,0,1-10.78,4.23c-6.24,1.83-12.41,3.29-18.05,6.64-.41.25,0,.9.38.65Z" transform="translate(-9.71 -301.87)"/><path class="cls-1" d="M270.66,482.1c3-5,5.58-10.29,8.95-15.09,2.37-3.38,5.18-7.05,8.9-9,2-1.07,6.82-2,8.6.22s-.59,4.21-1.87,5.76c-6.9,8.39-17.55,12.17-24.91,20-.33.35.2.88.53.53,8.9-9.49,21.56-13.47,28.4-25.14a.36.36,0,0,0-.05-.45c-12.67-11.74-24.53,14.88-29.19,22.82a.37.37,0,0,0,.64.37Z" transform="translate(-9.71 -301.87)"/><path class="cls-1" d="M271.47,494.22c3-5.05,5.58-10.3,8.95-15.1,2.37-3.37,5.18-7.05,8.9-9,2-1.07,6.82-2,8.6.22s-.59,4.2-1.87,5.75c-6.9,8.39-17.55,12.17-24.92,20-.33.35.2.88.53.53,8.91-9.5,21.57-13.47,28.41-25.15A.37.37,0,0,0,300,471c-12.72-11.67-24.49,14.83-29.19,22.82a.38.38,0,0,0,.65.38Z" transform="translate(-9.71 -301.87)"/><path class="cls-1" d="M271.47,505.12c3-5,5.58-10.3,8.95-15.09,2.37-3.38,5.18-7,8.9-9,2-1.07,6.82-2,8.6.22s-.59,4.2-1.87,5.76c-6.9,8.39-17.55,12.17-24.92,20-.33.35.2.88.53.53,8.91-9.5,21.57-13.47,28.41-25.14a.39.39,0,0,0-.06-.46c-12.7-11.69-24.5,14.85-29.19,22.82a.38.38,0,0,0,.65.38Z" transform="translate(-9.71 -301.87)"/><path class="cls-1" d="M271.47,516c3-5,5.58-10.3,8.95-15.1,2.37-3.38,5.18-7.05,8.9-9,2-1.07,6.82-2,8.6.23s-.59,4.2-1.87,5.75c-6.9,8.39-17.55,12.17-24.92,20-.33.35.2.88.53.53,8.91-9.5,21.57-13.48,28.41-25.15a.38.38,0,0,0-.06-.45c-12.68-11.72-24.52,14.87-29.19,22.82a.38.38,0,0,0,.65.38Z" transform="translate(-9.71 -301.87)"/><path class="cls-1" d="M271.47,526.92c3-5,5.58-10.3,8.95-15.1,2.37-3.37,5.18-7.05,8.9-9,2-1.07,6.82-2,8.6.22s-.59,4.2-1.87,5.76c-6.9,8.38-17.55,12.16-24.92,20-.33.35.2.88.53.53,8.91-9.5,21.57-13.47,28.41-25.14a.39.39,0,0,0-.06-.46c-12.7-11.69-24.5,14.85-29.19,22.82a.38.38,0,0,0,.65.38Z" transform="translate(-9.71 -301.87)"/><path class="cls-1" d="M269.6,451c-8.05-7.16-19-10-26.61-17.71-.89-.89-3.7-3.47-3.58-4.5l2.39-1.91a7.56,7.56,0,0,1,6.1-.62c4,1.12,7.19,4.45,9.86,7.44,4.26,4.77,7.58,10.24,11.29,15.42.28.39.93,0,.65-.38-5.39-7.52-19.6-33-31.12-20.16a.38.38,0,0,0-.05.45c7.86,11,20.82,13.85,30.54,22.5.36.32.89-.21.53-.53Z" transform="translate(-9.71 -301.87)"/><path class="cls-1" d="M270.58,461.81c-8.05-7.16-19-10-26.61-17.71-.89-.89-3.71-3.47-3.58-4.51l2.39-1.9a7.56,7.56,0,0,1,6.1-.62c4,1.12,7.19,4.45,9.85,7.44,4.27,4.77,7.59,10.23,11.3,15.42.27.39.93,0,.64-.38-5.39-7.55-19.56-33-31.11-20.16a.39.39,0,0,0-.06.45c7.86,11,20.83,13.85,30.54,22.5.36.32.9-.21.54-.53Z" transform="translate(-9.71 -301.87)"/><path class="cls-1" d="M270.76,482.73c-6.46-7.48-19.49-34.67-32.22-21.6a.38.38,0,0,0,0,.45c8.1,11.37,21.81,14,31.44,23.41.34.33.88-.2.53-.54-5.26-5.12-11.91-8-18.18-11.63-3.84-2.24-8.2-5-10.84-8.62-1-1.39-1.8-2.53-.95-3.84a5.93,5.93,0,0,1,2.84-1.61,8.3,8.3,0,0,1,4.76.14c10.68,3.3,15.41,16.59,22.14,24.37.32.37.85-.16.53-.53Z" transform="translate(-9.71 -301.87)"/><path class="cls-1" d="M270.37,469.87c-4.75-4.74-10.83-7.53-16.62-10.75a48.41,48.41,0,0,1-10.26-7.24c-1.65-1.59-4.39-4.13-3.05-6.14.93-1.4,3.71-1.92,5.2-1.88,5.9.19,10.81,6.21,14.18,10.43s6.26,9,9.54,13.43c.29.38.94,0,.65-.38-5.89-7.9-19.3-33.36-31.56-20.79a.37.37,0,0,0-.06.45c8.13,11.38,21.92,13.88,31.45,23.4a.38.38,0,0,0,.53-.53Z" transform="translate(-9.71 -301.87)"/><path class="cls-1" d="M271.42,495c-6.47-7.33-22.26-31.26-33.25-17.72a.4.4,0,0,0,0,.53c8.76,10.14,22,11.93,32.41,19.5.39.28.77-.37.38-.65-6.53-4.72-14-6.72-21-10.46-3-1.63-6.88-3.79-9.06-6.52-1.69-2.13-1.9-3,.65-4.59a7.5,7.5,0,0,1,4.2-1.12c6.07.13,11.43,5.86,15.27,10,3.48,3.71,6.52,7.78,9.89,11.59.32.36.85-.17.53-.53Z" transform="translate(-9.71 -301.87)"/><path class="cls-1" d="M271.64,501.38c-5.9-3-12.13-4-18.57-5.3a57.73,57.73,0,0,1-12-4c-2.74-1.2-7.87-2.75-4-6.33,9.23-8.58,26.47,9.35,33.62,14.29.4.27.77-.38.38-.65-8.19-5.65-28.73-26.45-36.83-10.77a.38.38,0,0,0,.13.51c11,8.19,25.1,6.82,36.93,12.87.43.22.81-.43.38-.65Z" transform="translate(-9.71 -301.87)"/><path class="cls-1" d="M271.37,515.56c-8.05-7.16-19-10-26.61-17.7-.89-.9-3.7-3.48-3.58-4.51l2.39-1.91a7.6,7.6,0,0,1,6.1-.62c4,1.13,7.19,4.45,9.86,7.44,4.26,4.77,7.58,10.24,11.29,15.42.28.39.93,0,.65-.38-5.38-7.52-19.6-33-31.11-20.16a.38.38,0,0,0-.06.46c7.86,11,20.82,13.84,30.54,22.49.36.32.89-.2.53-.53Z" transform="translate(-9.71 -301.87)"/><path class="cls-1" d="M271.74,527c-6.29-5.22-14-8-20.63-12.7-1.55-1.09-9.08-6.52-8.88-8.58s5.85-2.69,7.08-2.59c3.74.33,6.56,2.75,9.15,5.21a.38.38,0,0,0,.64-.27c-.13,1.12,2.1,3,2.67,3.67,1.49,1.77,2.87,3.63,4.22,5.5,1.75,2.43,3.4,4.93,5.1,7.4.27.39.92,0,.64-.38-4-5.75-7.73-11.66-12.72-16.58a.38.38,0,0,0-.64.26c.36-3-6.83-5.29-9.06-5.56a8.4,8.4,0,0,0-3.2,0c-1.6.4-3.13,2.5-4.5,2.71a.38.38,0,0,0-.23.55c7.63,10.7,20.1,13.79,29.83,21.87.37.3.9-.23.53-.53Z" transform="translate(-9.71 -301.87)"/><path class="cls-1" d="M272,537.21c-8.09-6.36-18.39-9.32-25.58-16.89-.61-.64-3.27-3.11-3.15-4,.19-1.4,4.27-2.79,5.51-2.86,4.16-.23,8.19,3.08,11,5.81,4.54,4.45,8,9.87,11.58,15.11.27.4.92,0,.65-.38-5.33-7.86-18.31-29.39-29.53-17.92a.39.39,0,0,0-.06.46c7.47,10.46,19.37,13.58,29.08,21.22.37.3.91-.23.53-.53Z" transform="translate(-9.71 -301.87)"/><path class="cls-1" d="M268.79,419.74l-.09.09c-.34.35.19.88.53.53l.09-.09a.38.38,0,0,0-.53-.53Z" transform="translate(-9.71 -301.87)"/><path class="cls-1" d="M269.74,418c-5.72-8-16.36-36.33-30.2-24.42a.38.38,0,0,0-.06.46,53,53,0,0,0,16.06,17.73c4.39,3,10.42,5,13.84,9.22.31.37.84-.16.53-.53-3.27-4-8.84-5.94-13.07-8.72a50.74,50.74,0,0,1-9.89-8.42c-2.86-3.19-9.85-10.75-1.78-11.77,7-.89,12.56,7.81,15.76,12.84,2.89,4.54,5.05,9.61,8.16,14,.28.39.93,0,.65-.38Z" transform="translate(-9.71 -301.87)"/><path class="cls-1" d="M269.84,427.52c-6.46-7.5-19.61-34.61-32.26-21.51a.38.38,0,0,0-.06.46c8.34,11.63,22.69,14.1,32.26,24.08.33.35.86-.18.53-.53-5.23-5.46-12-8.38-18.48-12.08-3.91-2.23-8-4.81-10.88-8.32-1.2-1.46-2.34-2.85-1.46-4.36.38-.66,2.23-1.43,2.77-1.61a8,8,0,0,1,4.64,0c10.77,3.06,15.72,16.59,22.41,24.36.32.37.85-.17.53-.53Z" transform="translate(-9.71 -301.87)"/><path class="cls-1" d="M270.23,434.83c-7.89-5.89-28-30.95-37.66-15.25a.39.39,0,0,0,.06.46c10.66,9.5,25.19,8.88,36.71,16.53.4.27.78-.38.37-.65-7-4.67-15.23-5.82-23-8.58a42.6,42.6,0,0,1-7.57-3.42c-2.43-1.43-6.46-3.22-4.35-6.08s6.19-2.74,9.15-1.86c10.71,3.17,17.39,13.1,26,19.5.39.29.76-.36.38-.65Z" transform="translate(-9.71 -301.87)"/><path class="cls-1" d="M267,352.58c-6.89-6.69-14.2-13-20.69-20.06-2.56-2.8-6.73-6.75-7.32-10.73s4.57-7,8.14-6c6.75,1.76,10.93,11,13.5,16.77s5.64,12.87,5.39,19.27a.38.38,0,0,0,.75,0c.3-7.6-3.65-16.21-7-22.83-2.64-5.21-7.79-14.88-14.95-14.16-2.48.25-5.66,2.3-6.52,4.72s1.18,5.54,2.53,7.5c6.89,10,17,17.7,25.64,26.08.35.34.88-.19.53-.53Z" transform="translate(-9.71 -301.87)"/><path class="cls-1" d="M267.25,365.21c-5.38-2.9-10.94-5.43-16.35-8.26-3.82-2-16-7.09-12.82-12.85,6.74-12.39,26,14.15,28,20.67a.38.38,0,0,0,.73-.2c-2.08-7-19.28-32-28.27-22.37-4.23,4.54-.05,8,3.91,10.72,7.63,5.17,16.37,8.57,24.46,12.93.42.23.8-.41.38-.64Z" transform="translate(-9.71 -301.87)"/><path class="cls-1" d="M266.76,375.74c-2.3-5.14-7.47-9.51-11.74-13-4-3.22-9.92-7.9-15.46-7.18-3.95.52-7.26,5.56-4.41,8.94s8.73,5,12.8,6.41c6.42,2.21,13,3.87,19.41,6.18.45.17.65-.56.2-.72-8.81-3.19-18.21-5-26.7-9-4-1.9-8.47-7.14-3.34-10.32,2.08-1.3,4.72-.7,6.87.07,5.22,1.86,9.85,5.7,13.82,9.44,2.91,2.73,6.25,5.86,7.9,9.56.2.44.85.06.65-.38Z" transform="translate(-9.71 -301.87)"/><path class="cls-1" d="M264.46,384.84c-2.86-6.51-10-12.2-15.71-16-4-2.67-11.43-7-15.43-2-4.76,5.87,2.08,9.22,6.87,11.23,8.7,3.65,18.43,5,26.9,9.11.43.21.81-.44.38-.65-5.73-2.78-12.24-4.1-18.28-6-4.4-1.42-19.9-5-16-12.08,6.2-11.26,27.67,10.16,30.61,16.85.19.45.84.06.65-.37Z" transform="translate(-9.71 -301.87)"/><path class="cls-1" d="M267.91,396.07c-2-6.9-19.9-31.6-28.62-21.88-3.82,4.27-.12,7.6,3.68,10.18,4.5,3.06,9.52,5.3,14.37,7.73,3.6,1.8,7.19,4.81,11.25,5.41.47.07.68-.65.2-.72-3.28-.49-6.1-2.74-9-4.28-2.28-1.22-4.64-2.3-6.95-3.46-3.91-2-16.13-6.86-14-12.8,3.23-9.07,14.78,1.67,17.87,5,4,4.25,8.79,9.37,10.47,15a.37.37,0,0,0,.72-.2Z" transform="translate(-9.71 -301.87)"/><path class="cls-1" d="M269,409.62c-1.69-8.05-7.94-16.1-13.53-21.91-3.61-3.76-10.24-9.72-15.58-5.56-5.77,4.52-1.31,9.22,3,12.61,8,6.27,17.36,10.57,25.86,16.1.4.26.78-.39.38-.65-5.73-3.72-36.26-17.43-29.87-26.29,8.45-11.71,27.47,18.64,29,25.9.1.47.82.27.72-.2Z" transform="translate(-9.71 -301.87)"/><path class="cls-1" d="M265.47,338c-.8-3.69-3-6.92-4-10.64-1.25-4.8-2.84-11.08-1.42-15.94.54-1.85,1.93-4.45,4.05-1.95.26.31.15,1,.32,1.33.63,1.42.66,3.55.9,5.09a135.52,135.52,0,0,1,1.49,13.63,39.53,39.53,0,0,1,0,5.86c-.17,1.79-.27,3.77-1.62,1.39-.23-.42-.88,0-.64.38l.75,2a.37.37,0,0,0,.36.27c5-.3.38-23.9-.25-27.24-.46-2.39-1.34-7.37-4.29-4.33s-2.32,8.54-1.88,12.32a55.4,55.4,0,0,0,1.93,9.19c.9,3,2.87,5.83,3.53,8.87.1.47.82.27.72-.2Z" transform="translate(-9.71 -301.87)"/><path class="cls-1" d="M266.19,338.57c.11,39.53,3.07,79,3.56,118.51s1.67,79.2,2.31,118.8q.54,33.39.59,66.77a.38.38,0,0,0,.75,0c0-39.62-.72-79.23-1.62-118.84s-.85-79.18-2.69-118.71c-1-22.16-2.09-44.33-2.15-66.53a.38.38,0,0,0-.75,0Z" transform="translate(-9.71 -301.87)"/><path class="cls-1" d="M316.12,434.41c1.92-7.08,1.06-17.45,7-22.8,1.89-1.71,6.56-3.15,6.11.7-.4,3.47-2.89,7.08-4.83,9.91-3.35,4.91-7.31,9.34-9.27,15-.16.46.56.65.72.2,3.43-9.95,12.51-16.47,14.57-27.14a.39.39,0,0,0-.26-.46c-12.52-4.62-12.81,17.29-14.73,24.35a.38.38,0,0,0,.73.2Z" transform="translate(-9.71 -301.87)"/><path class="cls-1" d="M316.51,456.52c6.42-7.44,16.17-10.32,21.35-19.09a.39.39,0,0,0-.05-.46c-10.3-8.69-17.92,11.85-22.23,17.87-.28.39.37.77.65.38,4.29-6,6.84-15.78,14.14-19,2.65-1.16,7.21-.74,5.45,3-1.33,2.83-5.1,5.45-7.57,7.2-4.28,3-8.81,5.49-12.27,9.51-.32.37.21.9.53.53Z" transform="translate(-9.71 -301.87)"/><path class="cls-1" d="M315.81,443.91c1.89-3.1,3.5-6.37,5.44-9.45,2.25-3.54,5.82-9.26,10.57-9.46.87,0,2.61.14,3.25.88,1.68,1.94-1.17,4.24-2.4,5.53a41.16,41.16,0,0,1-7.05,5.64c-3.75,2.51-7.61,4.83-10.53,8.33-.31.37.22.9.53.53,6.3-7.57,16.16-10.29,21.36-19.1a.36.36,0,0,0-.06-.45C327,418,319,437.29,315.16,443.54c-.25.41.4.79.65.37Z" transform="translate(-9.71 -301.87)"/><path class="cls-1" d="M316.56,464.19c4.07-5.51,8.71-15.65,16.11-17.14a5.46,5.46,0,0,1,4,.54c2,1.4.7,2.8-.71,4.37a28.37,28.37,0,0,1-7.1,5.3c-4.37,2.54-9.28,4.48-12.91,8.12-.34.35.19.88.53.53,6.86-6.88,16.81-8.58,22.75-16.76a.37.37,0,0,0-.06-.45c-9.06-9.18-18.85,9.2-23.22,15.11-.28.38.37.76.65.38Z" transform="translate(-9.71 -301.87)"/><path class="cls-1" d="M316.63,469c8.46-4.91,18.56-4.91,26.11-11.61a.36.36,0,0,0,.06-.45c-7.38-11.11-20.72,5.59-26.61,10.24-.38.3.16.82.53.53,4.48-3.54,16.26-18.14,22.93-13.09,5.77,4.36-9,8.52-11.73,9.3-4.08,1.17-8,2.29-11.67,4.43a.38.38,0,0,0,.38.65Z" transform="translate(-9.71 -301.87)"/><path class="cls-1" d="M317.76,477.44c2.12-3.62,4-7.4,6.4-10.84,1.7-2.43,3.79-5.32,6.53-6.71,1.53-.78,6.83-1.63,6.65,1.68-.06,1.07-1.9,2.62-2.52,3.32-5,5.59-12.32,8.33-17.47,13.79-.33.35.2.88.53.53,6.53-6.92,15.74-9.87,20.76-18.38a.36.36,0,0,0-.05-.45c-9.34-8.68-18.07,10.85-21.48,16.68a.38.38,0,0,0,.65.38Z" transform="translate(-9.71 -301.87)"/><path class="cls-1" d="M317.76,486.29c2.12-3.63,4-7.4,6.4-10.85,1.7-2.42,3.79-5.32,6.53-6.7,1.53-.78,6.83-1.64,6.65,1.67-.06,1.08-1.9,2.63-2.52,3.32-5,5.6-12.32,8.34-17.47,13.8-.33.35.2.88.53.53,6.53-6.93,15.74-9.87,20.76-18.38a.38.38,0,0,0-.05-.46c-9.34-8.67-18.07,10.86-21.48,16.69a.38.38,0,0,0,.65.38Z" transform="translate(-9.71 -301.87)"/><path class="cls-1" d="M317.76,494.25c2.12-3.62,4-7.4,6.4-10.84,1.7-2.43,3.79-5.32,6.53-6.71,1.53-.78,6.83-1.63,6.65,1.68-.06,1.07-1.9,2.62-2.52,3.32-5,5.59-12.32,8.33-17.47,13.79-.33.35.2.88.53.53,6.53-6.92,15.74-9.87,20.76-18.38a.36.36,0,0,0-.05-.45c-9.34-8.68-18.07,10.85-21.48,16.68a.38.38,0,0,0,.65.38Z" transform="translate(-9.71 -301.87)"/><path class="cls-1" d="M318.27,512.54c6.43-7.45,16.18-10.32,21.36-19.1a.36.36,0,0,0-.06-.45c-10.29-8.7-17.92,11.84-22.22,17.86-.28.39.37.77.65.38,4.29-6,6.84-15.78,14.14-19,2.65-1.16,7.21-.74,5.44,3-1.32,2.83-5.09,5.44-7.56,7.19-4.28,3-8.81,5.5-12.28,9.52-.31.36.22.89.53.53Z" transform="translate(-9.71 -301.87)"/><path class="cls-1" d="M318.17,499.93c1.89-3.11,3.49-6.38,5.44-9.45,2.25-3.55,5.81-9.26,10.57-9.47.86,0,2.61.15,3.25.88,1.68,1.94-1.18,4.25-2.41,5.54a40.34,40.34,0,0,1-7,5.63c-3.75,2.52-7.58,4.84-10.53,8.33-.31.37.22.9.53.53,6.35-7.53,16.17-10.29,21.37-19.09a.39.39,0,0,0-.06-.46c-9.9-8.35-17.95,10.94-21.76,17.18-.25.41.4.79.65.38Z" transform="translate(-9.71 -301.87)"/><path class="cls-1" d="M318.33,520.2c4.07-5.51,8.71-15.64,16.11-17.13a5.36,5.36,0,0,1,4,.54c2,1.39.7,2.79-.71,4.37a28.76,28.76,0,0,1-7.1,5.29c-4.37,2.54-9.3,4.47-12.91,8.13a.38.38,0,0,0,.53.53c3.73-3.78,8.94-5.73,13.42-8.41a30.45,30.45,0,0,0,9.33-8.35.38.38,0,0,0-.06-.46c-9.06-9.17-18.86,9.21-23.22,15.11-.29.39.36.76.65.38Z" transform="translate(-9.71 -301.87)"/><path class="cls-1" d="M318.4,525c8.46-4.9,18.56-4.9,26.11-11.6a.38.38,0,0,0,.06-.46c-7.38-11.1-20.72,5.59-26.61,10.24-.38.3.16.83.53.53,4.48-3.53,16.25-18.13,22.92-13.09,5.78,4.37-9,8.52-11.72,9.3-4.09,1.17-8,2.29-11.67,4.43a.38.38,0,0,0,.38.65Z" transform="translate(-9.71 -301.87)"/><path class="cls-1" d="M318.35,533.45c2.12-3.62,4-7.39,6.4-10.84,1.7-2.43,3.79-5.32,6.53-6.71,1.53-.78,6.83-1.63,6.65,1.68-.06,1.07-1.9,2.63-2.52,3.32-5,5.6-12.32,8.33-17.47,13.79-.33.35.2.89.53.53,6.53-6.92,15.74-9.87,20.76-18.38a.36.36,0,0,0-.05-.45c-9.35-8.67-18.06,10.85-21.48,16.68a.38.38,0,0,0,.65.38Z" transform="translate(-9.71 -301.87)"/><path class="cls-1" d="M318.94,542.3c2.12-3.62,4-7.4,6.4-10.84,1.7-2.43,3.79-5.32,6.53-6.71,1.53-.78,6.83-1.63,6.65,1.68-.06,1.07-1.9,2.62-2.52,3.32-5,5.6-12.32,8.33-17.47,13.79-.33.35.2.88.53.53,6.53-6.92,15.74-9.87,20.76-18.38a.38.38,0,0,0-.05-.46c-9.39-8.61-18,10.81-21.48,16.69a.38.38,0,0,0,.65.38Z" transform="translate(-9.71 -301.87)"/><path class="cls-1" d="M318.94,550.26c2.12-3.62,4-7.39,6.4-10.84,1.7-2.43,3.79-5.32,6.53-6.71,1.53-.78,6.83-1.63,6.65,1.68-.06,1.07-1.9,2.63-2.52,3.32-5,5.6-12.32,8.34-17.47,13.79-.33.36.2.89.53.53,6.53-6.92,15.74-9.87,20.76-18.38a.36.36,0,0,0-.05-.45c-9.38-8.63-18,10.82-21.48,16.68a.38.38,0,0,0,.65.38Z" transform="translate(-9.71 -301.87)"/><path class="cls-1" d="M318.94,558.22c2.12-3.62,4-7.4,6.4-10.84,1.7-2.43,3.79-5.32,6.53-6.71,1.53-.78,6.83-1.63,6.65,1.68-.06,1.07-1.9,2.62-2.52,3.31-5,5.6-12.32,8.34-17.47,13.8-.33.35.2.88.53.53,6.53-6.92,15.74-9.87,20.76-18.38a.36.36,0,0,0-.05-.45c-9.36-8.66-18.06,10.83-21.48,16.68a.38.38,0,0,0,.65.38Z" transform="translate(-9.71 -301.87)"/><path class="cls-1" d="M318.94,566.18c2.12-3.62,4-7.39,6.4-10.84,1.7-2.43,3.79-5.32,6.53-6.71,1.53-.78,6.83-1.63,6.65,1.68-.06,1.07-1.9,2.63-2.52,3.32-5,5.6-12.32,8.33-17.47,13.79-.33.35.2.89.53.53,6.53-6.92,15.74-9.87,20.76-18.38a.36.36,0,0,0-.05-.45c-9.38-8.63-18,10.81-21.48,16.68a.38.38,0,0,0,.65.38Z" transform="translate(-9.71 -301.87)"/><path class="cls-1" d="M317.55,510.58c-5.67-5-13.24-7.1-18.77-12.29-.63-.6-1.24-1.23-1.81-1.89-2.19-1.55-2-2.54.69-2.95a3,3,0,0,1,3.83-.58c3,.62,5.28,3,7.27,5.22,3.11,3.47,5.54,7.46,8.23,11.24.28.39.93,0,.65-.38-3.9-5.48-14.39-24.2-22.88-14.75a.39.39,0,0,0-.06.46c5.79,8,15.18,10.15,22.32,16.45.36.32.9-.21.53-.53Z" transform="translate(-9.71 -301.87)"/><path class="cls-1" d="M318.27,518.51c-5.67-5-13.25-7.1-18.78-12.29a24.68,24.68,0,0,1-1.8-1.89c-2.19-1.55-2-2.54.69-2.95a3,3,0,0,1,3.83-.58c3,.62,5.27,3,7.27,5.22,3.1,3.47,5.53,7.45,8.23,11.24.28.39.93,0,.64-.38-3.91-5.5-14.37-24.18-22.88-14.75a.39.39,0,0,0-.05.46c5.78,8,15.18,10.15,22.32,16.45.36.32.89-.21.53-.53Z" transform="translate(-9.71 -301.87)"/><path class="cls-1" d="M318.4,533.79c-4.82-5.58-14.2-25.31-23.67-15.78a.39.39,0,0,0-.06.46c6,8.26,15.9,10.28,23,17.11.35.33.88-.2.53-.53-3.85-3.72-8.63-5.8-13.2-8.46-2.79-1.63-6.14-3.59-8-6.31-2.63-3.91,2.61-4.57,5.44-3.45,7.38,2.94,10.57,11.86,15.43,17.49.32.37.85-.17.53-.53Z" transform="translate(-9.71 -301.87)"/><path class="cls-1" d="M318.11,524.39c-3.2-3.2-7.24-5.18-11.18-7.33a42.93,42.93,0,0,1-7.19-4.66c-2.48-2.1-6.1-6.19-.47-6.76,8-.82,14,12,18,17.31.28.38.94,0,.65-.38-4.38-5.91-14.09-24.36-23.21-15.21a.39.39,0,0,0-.06.46c6,8.28,16,10.14,23,17.1a.37.37,0,0,0,.53-.53Z" transform="translate(-9.71 -301.87)"/><path class="cls-1" d="M318.88,542.75c-4.83-5.47-16.22-22.81-24.42-12.94a.39.39,0,0,0,0,.53c6.42,7.36,16,8.79,23.69,14.25.39.28.77-.37.38-.64-4.56-3.24-9.56-4.72-14.42-7.17a30.36,30.36,0,0,1-6.2-4c-.82-.71-2.56-1.91-2.25-3.26s3.2-1.94,4.16-2c7.64-.29,14.11,10.72,18.53,15.73.32.36.85-.17.53-.53Z" transform="translate(-9.71 -301.87)"/><path class="cls-1" d="M319,547.39c-4.09-2.09-8.41-2.9-12.87-3.75a39.13,39.13,0,0,1-9.43-3c-.68-.32.09.68-1.66-.79-1.4-.15-1.88-.86-1.46-2.13q-.6-3.18,3.79-3c7.32-.65,15.37,8.11,20.81,11.91.39.27.77-.38.38-.65-6.22-4.34-20.84-19.23-27-7.83a.39.39,0,0,0,.14.51c8.12,5.84,18.3,5,27,9.4.43.22.81-.43.38-.65Z" transform="translate(-9.71 -301.87)"/><path class="cls-1" d="M318.85,557.77c-5.67-5-13.25-7.1-18.78-12.29-.63-.6-1.24-1.23-1.81-1.89q-3.27-2.34.7-3a3,3,0,0,1,3.83-.58c3,.62,5.27,3,7.27,5.21,3.1,3.48,5.53,7.46,8.23,11.24.27.39.92,0,.64-.38-3.9-5.47-14.39-24.19-22.88-14.74a.39.39,0,0,0-.05.46c5.78,8,15.18,10.15,22.32,16.45.36.31.89-.21.53-.53Z" transform="translate(-9.71 -301.87)"/><path class="cls-1" d="M319.12,566.11c-4.38-3.6-9.63-5.62-14.31-8.74-1.74-1.17-6.7-4.6-7.3-6.61-.19-.65,3.39-2,5.15-1.9,2.77.16,4.74,2,6.62,3.77a.38.38,0,0,0,.64-.26c-.23,1.88,3.74,5.22,4.8,6.69,1.29,1.79,2.51,3.63,3.76,5.45.27.4.92,0,.65-.38-2.89-4.2-5.66-8.52-9.31-12.12a.38.38,0,0,0-.64.26c.28-2.39-4.73-4-6.51-4.16a6.24,6.24,0,0,0-2.28,0c-1.2.27-2.36,1.87-3.38,2a.38.38,0,0,0-.22.55c5.6,7.8,14.65,10.1,21.8,16,.37.31.9-.22.53-.53Z" transform="translate(-9.71 -301.87)"/><path class="cls-1" d="M319.28,573.57c-5.89-4.6-13.42-6.78-18.65-12.29-.58-.62-2.25-2-2.32-2.84-.3-3,3.55-2.09,5-1.89,2.88.4,5.27,2.4,7.26,4.4,3.16,3.15,5.6,7,8.09,10.66.27.4.92,0,.65-.37-3.92-5.78-13.46-21.57-21.73-13.11a.39.39,0,0,0-.06.46c5.5,7.62,14.12,9.94,21.25,15.51.38.3.91-.23.53-.53Z" transform="translate(-9.71 -301.87)"/><path class="cls-1" d="M316.82,487.78l-.07.07c-.33.35.2.88.54.53l.06-.06c.34-.35-.19-.88-.53-.54Z" transform="translate(-9.71 -301.87)"/><path class="cls-1" d="M317.67,486.55c-4.24-6-12-26.55-22.21-17.85a.38.38,0,0,0-.06.46A39,39,0,0,0,307,482c3.26,2.26,7.71,3.76,10.28,6.85.31.37.84-.16.53-.53-2.25-2.71-5.93-4.07-8.84-5.92a38.14,38.14,0,0,1-7.33-5.94c-2-2.15-8-8.44-1.89-9.08,5.18-.54,9.17,5.88,11.52,9.6,2,3.24,3.58,6.82,5.79,9.94.27.39.92,0,.64-.38Z" transform="translate(-9.71 -301.87)"/><path class="cls-1" d="M317.73,493.47c-4.77-5.61-14.31-25.24-23.71-15.71a.38.38,0,0,0,0,.45c6.14,8.45,16.53,10.36,23.57,17.61.34.35.87-.18.53-.53-3.85-4-8.75-6.11-13.48-8.81-2.88-1.65-6.32-3.62-8.24-6.4-2.68-3.89,2.42-4.66,5.32-3.54,7.38,2.85,10.72,11.81,15.53,17.46.32.36.84-.17.53-.53Z" transform="translate(-9.71 -301.87)"/><path class="cls-1" d="M318,498.79c-5.9-4.46-20.41-22.54-27.65-11.1a.38.38,0,0,0,.06.45c7.85,6.87,18.36,6.58,26.83,12.09.41.27.78-.38.38-.64-4.94-3.22-10.54-4.14-16-6-1.94-.66-10.75-3.4-9.58-6.95.85-2.54,5.49-1.82,7.16-1.27,7.54,2.46,12.37,9.45,18.46,14.07.38.29.76-.36.38-.65Z" transform="translate(-9.71 -301.87)"/><path class="cls-1" d="M315.64,438.74c-4.71-4.57-9.68-8.89-14.19-13.66-2-2.16-4.4-4.5-5.64-7.23-1.7-3.73,2.14-6.89,5.79-5.62,4.77,1.67,7.7,8.43,9.54,12.7,1.73,4,3.75,8.86,3.62,13.31,0,.48.73.48.75,0,.17-5.79-2.78-12.23-5.4-17.24-1.93-3.7-5.67-10.45-10.8-9.88s-5.56,5-3.29,8.56c4.85,7.59,12.69,13.38,19.09,19.59.35.33.88-.2.53-.53Z" transform="translate(-9.71 -301.87)"/><path class="cls-1" d="M315.82,447.94c-3.61-1.94-7.34-3.66-11-5.53-3-1.54-10.63-4.55-10.5-8.47.27-7.89,10-.46,12.12,1.67,3.33,3.35,6.83,7.56,8.33,12.13.15.45.87.26.72-.2-1.66-5.09-14.45-24-21-16.15-2.73,3.26,0,5.65,2.83,7.59,5.61,3.88,12.11,6.38,18.1,9.61.42.23.8-.42.38-.65Z" transform="translate(-9.71 -301.87)"/><path class="cls-1" d="M315.5,455.67c-1.83-4-5.83-7.34-9.19-10-2.82-2.2-7.28-5.6-11.18-4.73-3,.68-4.72,4.26-2.79,6.76s6.36,3.56,9.07,4.5c4.76,1.66,9.66,2.89,14.41,4.6.45.16.65-.56.2-.73-5.49-2-11.19-3.3-16.63-5.4-2.64-1-10.25-5.46-5.32-8.53,1.84-1.15,4.25-.31,6.05.48,5.39,2.39,12.2,7.9,14.73,13.39.2.44.85.06.65-.38Z" transform="translate(-9.71 -301.87)"/><path class="cls-1" d="M313.81,462.31c-2.3-5.07-17.11-20.42-22.95-13.11-6.72,8.4,20.58,12.93,24.74,14.92.43.21.81-.44.38-.65-3.83-1.83-8.11-2.76-12.14-4-3.4-1.06-13.36-3.12-13.3-7.5.12-8.29,11.57-.77,14.12,1.29,3.12,2.53,6.82,5.74,8.51,9.46.2.44.84.06.64-.38Z" transform="translate(-9.71 -301.87)"/><path class="cls-1" d="M316.35,470.54c-1.57-5-15.46-24.19-21.51-15.44-2.06,3,.37,5.08,2.89,6.85,3.33,2.34,7.13,4,10.75,5.81,2.64,1.33,5.26,3.47,8.24,4,.47.08.68-.65.2-.72-3.64-.6-7.63-3.65-11-5.32-2.63-1.32-11.91-4.88-11.1-9.06.57-2.93,5-3,7-1.89a23.33,23.33,0,0,1,5.63,4.57c3.09,3.21,6.74,7.14,8.1,11.44a.37.37,0,0,0,.72-.2Z" transform="translate(-9.71 -301.87)"/><path class="cls-1" d="M317.15,480.44c-1.33-5.91-5.73-11.66-9.84-16-2.6-2.72-7.31-7.05-11.29-4.39C285.87,466.87,313,479,316.83,481.46c.4.26.78-.39.37-.65-3.57-2.31-7.32-4.34-11-6.53-2.14-1.29-4.28-2.6-6.32-4a29.9,29.9,0,0,1-3-2.32c-1.85-1.7-2.25-2-1.68-4.5,1.25-5.51,7-2.56,9.85,0a36.54,36.54,0,0,1,4.64,5.15c2.69,3.52,5.68,7.72,6.66,12.11.11.47.83.27.73-.2Z" transform="translate(-9.71 -301.87)"/><path class="cls-1" d="M314.57,428.13c-.5-2.28-1.88-4.23-2.58-6.48a33.2,33.2,0,0,1-1.57-9.36,18,18,0,0,1,.19-3.52l2.71-1.6c.18.11.17.92.27,1.07.49.73.48,2.56.61,3.39a98,98,0,0,1,1.14,10.11c.06,1,.33,7.73-.95,5.47a.38.38,0,0,0-.65.38l.54,1.41a.38.38,0,0,0,.36.28c3.94-.38.36-18-.22-20.75-.54-2.47-1.77-4.77-3.68-1.71-1.61,2.56-1.19,6-.81,8.87a37.45,37.45,0,0,0,1.75,7.46c.62,1.77,1.76,3.34,2.16,5.18.11.47.83.27.73-.2Z" transform="translate(-9.71 -301.87)"/><path class="cls-1" d="M314.89,428.58c.06,18.29,1.09,36.54,1.86,54.8.77,18.44.69,36.91,1.08,55.36.8,37.3,1.76,74.59,1.78,111.91a.38.38,0,0,0,.75,0c0-37.32-1-74.61-1.78-111.91-.38-18.13-.3-36.26-1-54.38-.76-18.59-1.84-37.17-1.9-55.78a.38.38,0,0,0-.75,0Z" transform="translate(-9.71 -301.87)"/><path class="cls-2" d="M386.16,404.37l-.06-.07" transform="translate(-9.71 -301.87)"/><path class="cls-3" d="M-287.5-42.5" transform="translate(-9.71 -301.87)"/></svg>