<svg id="Ebene_1" data-name="Ebene 1" xmlns="http://www.w3.org/2000/svg" viewBox="0 0 113.05 4.97"><defs><style>.cls-1{fill:#1f1f1f;}</style></defs><title>linethrough</title><path class="cls-1" d="M186.86,167.36c.17,0,.11-.1.13-.12C186.71,167.27,186.87,167.39,186.86,167.36Z" transform="translate(-73.94 -167.14)"/><polygon class="cls-1" points="110.13 0.48 110.18 0.44 109.77 0.55 110.13 0.48"/><path class="cls-1" d="M181.45,167.66c.25.17,1,0,1.42,0l.07,0,.21-.14A15.65,15.65,0,0,1,181.45,167.66Z" transform="translate(-73.94 -167.14)"/><path class="cls-1" d="M180.06,167.29c.08.06-.3.06.32,0h-.32Z" transform="translate(-73.94 -167.14)"/><path class="cls-1" d="M180.32,167.29c.28,0-.18-.06,0,0Z" transform="translate(-73.94 -167.14)"/><path class="cls-1" d="M179.05,167.34l.36-.07c-.07,0-.39,0-.27-.07C178.76,167.24,178.84,167.27,179.05,167.34Z" transform="translate(-73.94 -167.14)"/><path class="cls-1" d="M178.71,167.47l.19,0S178.82,167.42,178.71,167.47Z" transform="translate(-73.94 -167.14)"/><path class="cls-1" d="M179.3,167.39l-.4.06s.06.08.18,0C179.05,167.48,179.13,167.43,179.3,167.39Z" transform="translate(-73.94 -167.14)"/><path class="cls-1" d="M179.52,167.41c.21,0,.47.06.11.12C180.32,167.5,180.22,167.38,179.52,167.41Z" transform="translate(-73.94 -167.14)"/><path class="cls-1" d="M181.32,167.84l.28,0,.23-.06C181.71,167.86,181.31,167.79,181.32,167.84Z" transform="translate(-73.94 -167.14)"/><path class="cls-1" d="M176.79,167.27s.13.1.15.15l.27,0C177.07,167.35,176.81,167.33,176.79,167.27Z" transform="translate(-73.94 -167.14)"/><path class="cls-1" d="M176.94,167.42l-.39.07C176.9,167.49,177,167.46,176.94,167.42Z" transform="translate(-73.94 -167.14)"/><polygon class="cls-1" points="104.71 0.53 105.36 0.38 104.58 0.53 104.71 0.53"/><polygon class="cls-1" points="101.32 0.14 101.55 0.05 101.15 0.19 101.32 0.14"/><path class="cls-1" d="M174.25,167.31c.17-.07-.23-.12-.05-.17a4.51,4.51,0,0,0-.73.14A2.64,2.64,0,0,1,174.25,167.31Z" transform="translate(-73.94 -167.14)"/><path class="cls-1" d="M173.12,167.37l.35-.09A2.25,2.25,0,0,0,173.12,167.37Z" transform="translate(-73.94 -167.14)"/><path class="cls-1" d="M175.86,167.48a.57.57,0,0,0-.31-.11l.15.11Z" transform="translate(-73.94 -167.14)"/><path class="cls-1" d="M175.71,167.48h0Z" transform="translate(-73.94 -167.14)"/><path class="cls-1" d="M175.9,167.48h0S175.89,167.49,175.9,167.48Z" transform="translate(-73.94 -167.14)"/><path class="cls-1" d="M177.6,167.59c-.24.06-.73.13-.25.22C177.52,167.73,177.24,167.68,177.6,167.59Z" transform="translate(-73.94 -167.14)"/><path class="cls-1" d="M176.1,167.61l.43,0s-.09-.07,0-.1Z" transform="translate(-73.94 -167.14)"/><polygon class="cls-1" points="101.95 0.5 102.16 0.47 102 0.46 101.95 0.5"/><path class="cls-1" d="M173.85,167.46a2.84,2.84,0,0,1-.61.07c.24,0,.49,0,.73,0C174,167.52,174.11,167.46,173.85,167.46Z" transform="translate(-73.94 -167.14)"/><path class="cls-1" d="M174.75,167.48h0S174.76,167.5,174.75,167.48Z" transform="translate(-73.94 -167.14)"/><polygon class="cls-1" points="97.06 0.41 97.1 0.43 97.11 0.41 97.06 0.41"/><path class="cls-1" d="M174,167.57a.91.91,0,0,0,.4,0l-.44,0S174,167.58,174,167.57Z" transform="translate(-73.94 -167.14)"/><path class="cls-1" d="M172.5,167.43l.31,0C172.72,167.45,172.53,167.4,172.5,167.43Z" transform="translate(-73.94 -167.14)"/><path class="cls-1" d="M174.65,167.46h0C174.62,167.43,174.63,167.44,174.65,167.46Z" transform="translate(-73.94 -167.14)"/><path class="cls-1" d="M174.65,167.46l-.24.07.3,0Z" transform="translate(-73.94 -167.14)"/><path class="cls-1" d="M170.33,168.24c0-.1.51-.19.93-.09.41-.08.14-.4-.22-.58,0,0,0,.08-.43.15.14.05.93.11.58.21a1.29,1.29,0,0,1-.73-.08c.23.12-.71.18-.58.36l.48-.07S170.2,168.22,170.33,168.24Z" transform="translate(-73.94 -167.14)"/><path class="cls-1" d="M171.84,167.57H172a3.46,3.46,0,0,1-.6-.13c-.29,0-.34.09-.36.12h.79Z" transform="translate(-73.94 -167.14)"/><path class="cls-1" d="M172.79,167.55c-.14.11-.55.16-.29.27.5,0,.35-.09.65-.14-.82,0,.24-.07-.35-.12l.44,0-.43-.05h0s0,0,0,0h0l0,0c-.24,0,0,0,0,0v0h0l-.82.07C172.19,167.57,172.4,167.56,172.79,167.55Z" transform="translate(-73.94 -167.14)"/><path class="cls-1" d="M176.91,168l0,0C176.83,168,176.81,168,176.91,168Z" transform="translate(-73.94 -167.14)"/><path class="cls-1" d="M176.58,168a.62.62,0,0,1,.3,0c.17,0,0,0,0,.09s.41-.08,0-.13h-.06a1.7,1.7,0,0,1-.7-.18A1,1,0,0,0,176.58,168Z" transform="translate(-73.94 -167.14)"/><path class="cls-1" d="M174.66,167.79l-.68.06.34.09v-.05C174.7,167.9,174.61,167.84,174.66,167.79Z" transform="translate(-73.94 -167.14)"/><polygon class="cls-1" points="96.98 0.35 97.07 0.24 96.68 0.4 96.98 0.35"/><polygon class="cls-1" points="96.09 0.38 96.13 0.28 95.89 0.34 96.09 0.38"/><path class="cls-1" d="M121.37,169.84l-.19.08Z" transform="translate(-73.94 -167.14)"/><path class="cls-1" d="M122.77,169.48l0-.06C122.73,169.46,122.71,169.49,122.77,169.48Z" transform="translate(-73.94 -167.14)"/><path class="cls-1" d="M148.22,169.39c-.31,0-.67,0-.6.07l.12.08A1.71,1.71,0,0,1,148.22,169.39Z" transform="translate(-73.94 -167.14)"/><path class="cls-1" d="M134.28,168.63l.07.07.22,0Z" transform="translate(-73.94 -167.14)"/><path class="cls-1" d="M133.92,169l-.32-.2A1.83,1.83,0,0,0,133.92,169Z" transform="translate(-73.94 -167.14)"/><path class="cls-1" d="M113.58,171.75l-.23.14C113.72,171.84,113.55,171.81,113.58,171.75Z" transform="translate(-73.94 -167.14)"/><path class="cls-1" d="M160.94,167.66a3.94,3.94,0,0,0-.63,0C160.61,167.66,160.86,167.75,160.94,167.66Z" transform="translate(-73.94 -167.14)"/><path class="cls-1" d="M121.62,168.58c-.11,0-.16.09-.15.11S121.66,168.6,121.62,168.58Z" transform="translate(-73.94 -167.14)"/><path class="cls-1" d="M159.57,167.62l.14,0a3.7,3.7,0,0,1,.6,0A1.43,1.43,0,0,0,159.57,167.62Z" transform="translate(-73.94 -167.14)"/><path class="cls-1" d="M84.79,169.56l-.06,0S84.75,169.56,84.79,169.56Z" transform="translate(-73.94 -167.14)"/><path class="cls-1" d="M76.38,168.76l.34,0Z" transform="translate(-73.94 -167.14)"/><path class="cls-1" d="M166.46,167.51c.19,0,0,0,0,0Z" transform="translate(-73.94 -167.14)"/><path class="cls-1" d="M167.38,167.93s-.07,0-.07.06A.11.11,0,0,1,167.38,167.93Z" transform="translate(-73.94 -167.14)"/><path class="cls-1" d="M157.71,168.35h0C157.75,168.36,157.74,168.36,157.71,168.35Z" transform="translate(-73.94 -167.14)"/><path class="cls-1" d="M166.74,167.56l-.24,0Z" transform="translate(-73.94 -167.14)"/><path class="cls-1" d="M166.71,167.51h.16S166.87,167.49,166.71,167.51Z" transform="translate(-73.94 -167.14)"/><path class="cls-1" d="M166.2,167.52h.3s-.05,0,0,0Z" transform="translate(-73.94 -167.14)"/><path class="cls-1" d="M100.14,170.48l0,0C99.91,170.48,100,170.49,100.14,170.48Z" transform="translate(-73.94 -167.14)"/><polygon class="cls-1" points="69.89 4.77 69.91 4.76 69.88 4.76 69.89 4.77"/><path class="cls-1" d="M143.12,172.11a1.5,1.5,0,0,1,.7-.2l-.29-.27A3.73,3.73,0,0,1,143.12,172.11Z" transform="translate(-73.94 -167.14)"/><path class="cls-1" d="M118,170.76l.49,0c-.52.3-.95.34-.47.37,0-.34,1.79-.5,1.77-.85h.32l-.19.06c.63,0,.38-.35,1.15-.51.27-.05.47-.05.3,0l.56-.24c.17,0,.15,0,0,.07l.88-.26h0a5.08,5.08,0,0,1,.52-.3c.24,0-.11.06,0,.09l.48-.21c.22,0-.17.22-.52.3.55.22.39-.2,1.44-.23l-.46.15c.35.12.7,0,1.25,0-.14,0-1.12-.06-.61-.27a1.52,1.52,0,0,0,.64-.17c0,.12.31,0,.66,0v.16c.37-.12.33-.2.54-.31a.75.75,0,0,1,.65.15c.69-.07-.5-.12.31-.27a8.37,8.37,0,0,0,1.66-.25c.4.05-.07.1.08.14l.35-.13c.08,0,.05,0,0,.06.3-.06,0-.16.5-.21.06-.1.31,0,.59.07a2.89,2.89,0,0,0,.92.14c.13.07-.08.08-.05.15.79,0,.67.07,1.35.06l.5.29c-.35-.24.2-.22.68-.14-.12-.11-.22-.21-.29-.26l.74.21c.07.06,0,.08-.16.1l.14,0c.23.16.06.18-.15.19l-.21-.19c-.21,0-.41.05-.41.15a1,1,0,0,1,.24.05c-.05,0-.09,0-.08,0s.11,0,.23,0l.09.23.07,0c.28.15.56.33.84.5a10.75,10.75,0,0,1,2.43.59c-.31,0-.15.17-.23.3-.21-.27-.82-.31-1.33-.6.26.15.17.19.09.18l1,.32c-.08.1.16.18.38.34-.08-.31.79.18,1.22.27,0,.09-.14.13-.61-.1.46.41.8,0,1.27.36-.12,0-.18-.07-.24,0,.3,0,1,.3.81.33l-.13,0a6.57,6.57,0,0,0,1.64.34c.58,0,1.06,0,1.12-.16a.92.92,0,0,1-.16.31,6.7,6.7,0,0,0,1.41-.91c-.1.2.55.52-.16.77a2.14,2.14,0,0,0,.88-.22c-.15,0-.41-.17-.23-.23a5.11,5.11,0,0,0,1,0c-.21,0-.07-.32.24-.41,0,.06.11.26,0,.33l.69-.52c-.18.11,0,.24.23.26-.09,0,.66-.21.86-.31l-.35,0c.88-.25.72-.66,1.58-.93-.08.09-.14.43.3.32A3.79,3.79,0,0,1,150.5,169l.17,0,.57-.25c-.33.3-1.23,1-1.72,1.37.34,0,.12.06.6-.09.19,0-.23.19-.37.24l1.13-.28c-.1-.15.81-.38.73-.5l-1.17.48c-.1-.14.57-.66,1.4-.82.22,0-.09.33-.06.38a2.32,2.32,0,0,1,.82-.24l-.33.16c.46,0,.7-.37,1.27-.29.19,0,.59.13.61,0-.33-.15-.48-.73-.29-.9a9.79,9.79,0,0,1,1.26.13c.33.12-.43.41-.15.51,0,0,.17-.12.24-.15s-.07.15.36.09c.06-.18.89,0,.2-.16a7,7,0,0,1,1,0c-.17-.1.43-.4.86-.47,0,.05.07.1.12.13.89,0,1.36.05,2.18,0,.08,0,.48.09.31.16a1.69,1.69,0,0,1,.48-.1c.49.14-.57,0-.19.21,0-.1.66-.15,1-.21-.12-.16-.84,0-1.2,0,0-.21.62-.44,1.48-.54.69-.06.3.13.42.1,1.29,0,1.09-.38,2.16-.24.42.13,0,.26.12.36a8.47,8.47,0,0,1-1.24-.07l.47.06a2.08,2.08,0,0,1-.75,0c.35.12,2.17,0,3.16.1.18-.05.48-.1.34-.15l-.32,0c-.29-.1.59-.15.19-.2a4.75,4.75,0,0,1,1.49-.15l.11.15a1,1,0,0,0-.55,0c.24-.07.91.2,1.18,0l-.42-.11a5.12,5.12,0,0,1,1.47-.2c-.24-.15-.12,0-.5-.16.33.22-1.34,0-.82.23-.39-.2-.66-.08-1.17-.25,0,.05.18.1-.26.08l-.1,0h0s0,0,0,0a.8.8,0,0,1,.22.07,7.26,7.26,0,0,1-1.15.19c-.26,0,.11-.06,0-.11l-.35.09c0-.11-.7-.18-.08-.25h-.56a3.4,3.4,0,0,0-1,0c-.26,0-.66.13-.43,0l-.87.08v0a13.22,13.22,0,0,1-2.75,0,7.51,7.51,0,0,1-1.08.06l-.09-.1a7,7,0,0,0-1.29.05,7.71,7.71,0,0,0-2.5.09v.12a11.51,11.51,0,0,0-1.44.27l0,.11c-.47.16-1.26.13-2,.32a.73.73,0,0,1,.38-.09c-1-.05-1.84.66-2.69.74a1.27,1.27,0,0,1-.47.15l0,0-.08,0-.29,0h.25a5.67,5.67,0,0,0-.59.24l-.14-.08-.05,0c-.23,0-.16.11,0,.16a1.6,1.6,0,0,0-.27.16c-.24-.12-.57.26-.87.14-.12.15-1.1.44-1.15.68,0,0-.09,0,0-.06a2.64,2.64,0,0,0-.72.23l-.15-.12-.49.35c-.35,0-.49,0-.2-.22a6.8,6.8,0,0,1-1.26.41l0-.1c-.23,0-.63.12-.77,0a6.27,6.27,0,0,0-.65-.18,9.73,9.73,0,0,1-1-.27,9.94,9.94,0,0,1-2.19-1c.12.39-.55-.4-.7-.22-.05-.1-.21-.23,0-.18-.69-.26-1-.59-1.5-.64-.05-.1.19,0,.13-.09a.56.56,0,0,1-.29-.12c-.06-.07.12,0,.24,0-.71-.31-.86-.15-1,0a1.11,1.11,0,0,0-.81-.29c-.11-.1-.3-.25.16-.1-.12-.06-.51-.22-.87-.35s-.72-.19-.75-.12a.8.8,0,0,0-.45-.1,6,6,0,0,0-1.26-.2l.17,0c-.26.18-.51,0-1,0l0,0c-1.11-.12-.48,0-1.57,0l.07.11c-.07.27-1-.07-1.57.13l.23,0c-.32.13-1-.21-1.35-.17-.08,0,.11-.06.21-.09-.91,0-.08.17-.74.33-.14-.06.12-.24-.33-.17a12,12,0,0,1-1.85.55c.15,0,.29.06,0,.18-.45.13-1.3.08-1.66.39l-.1,0a8.46,8.46,0,0,0-1.29.55c-.43-.31-2.11.77-2.2.39l-1.06.29,0,0a2.56,2.56,0,0,0-1.14.42c-.16,0,0-.05,0-.08a5.75,5.75,0,0,0-1.94.49l-.1-.11c-.22.11-1.48,0-2.46.18,0,0,0,0,.11-.06-1.12.23-2.6-.46-3.08-.05l-.76,0c1,.14-.17.18.22.3-.38,0-1-.25-.5-.22l.07,0c.2-.21-1.19-.22-1.15-.37-1.91-.21-3.75-.56-5.54-.78l.19.21-.62-.08c-.16-.06-.21-.17.24-.11a1.12,1.12,0,0,0-.78,0c-.86-.17.37-.18.1-.21l-.36,0,.08,0a2.06,2.06,0,0,1-.88.05c-.33-.08-.16-.13-.29-.15s0,0-.2,0l-.79-.1.3.18c-.36,0-.74-.09-.39.11a21.33,21.33,0,0,0-3.25-.5,6.58,6.58,0,0,1-1.58,0c.14,0,.22.22-.29.15.21-.32-.94-.22-1.34-.49.36.19-1.48-.06-.9.21-.43-.06,0-.13-.34-.23-1,.07-2.27-.22-3.55-.21,0,.05.19.12-.09.18l-.66-.25c-.26,0-.24.25-.7.09.07,0,.16.1,0,.11-2.5-.26-5.09.21-7.66,0,.35.06.12.09-.14.11.18,0,0,.11,0,.17-.36,0-.72-.06-1.08-.06-.17.18-1.13.14-1.22.31l.33-.07c-.42.24.67.34.63.59.47-.28,1.33.17,2.11-.19.19,0-.14.09,0,.13a1.6,1.6,0,0,1,.91-.15l-.06,0a28.36,28.36,0,0,1,3.32,0l-.11-.12a1.92,1.92,0,0,1,.52.08c.36-.19-.88,0-.55-.2.42.22,2.21,0,2.49.26.48,0-.14-.14.34-.13l.13.07.12-.09c.31,0,.47.11.48.18a1.56,1.56,0,0,0-.3,0,10.24,10.24,0,0,0,1.3,0l-.46-.06c1.31,0,2.91.14,4.19.08l-.09-.07c1,0,.77.12,1.84.15h0a2.94,2.94,0,0,1,.79,0c-.27,0,.5.17.14.21a2.82,2.82,0,0,0,1.24-.19l.15.11a1.82,1.82,0,0,1,.81-.07c-.45,0,.32.17-.18.23,1.1.31,1.68,0,2.16.31.54-.2-1-.25-.66-.27-.23-.11.45-.15.79-.09s.57.4,1.47.49a1.21,1.21,0,0,1-.19,0c.33.11.67,0,1.07.14.25-.13.53.07.62-.12l-.83,0a4.8,4.8,0,0,1,1.69,0,2.83,2.83,0,0,1-.46.07c.22.08.44,0,.67.09-.09.19-1-.07-1.52,0,.23.12,1,0,.68.15.39-.23.88.14,1.51,0l0,.12a2.24,2.24,0,0,1,.48,0l-.34.12c.5-.08.93.22,1.41.21-1-.12-.2-.17-.61-.31,1.23,0,.66.39,2,.5-.18,0-.68-.16-.39-.18a4,4,0,0,1,.75.22c.91.08-.13-.13.27-.16.29.18.45,0,.85,0v.12c1,.19.3-.22,1.22,0l-.41.12h.48l-.11.13a3.75,3.75,0,0,1,1.21.09c-.11-.09.09-.21.55-.16.3.1-.19.1.46.14a.58.58,0,0,1-.59,0s-.16.06-.19.1a3.6,3.6,0,0,0,1.1.11,1.56,1.56,0,0,1-.27,0l1-.11c.15.05,0,.08-.09.11.2,0,.33-.05.62-.07-.07.1,0,.21-.47.25.32,0,.63-.08.94-.13.06.05.48.11.36.15.52,0,1.25-.28,1.92-.31a.89.89,0,0,1,.24-.08,6.51,6.51,0,0,0,1.92-.33l.45.08c.56-.17-.61-.09.33-.37.65-.21.28.09.53.08a3.4,3.4,0,0,1,1.48-.5A4.08,4.08,0,0,1,118,170.76Zm6.84-1.84c-.13.06-.37.19-.49.15C124.47,168.9,124.61,168.94,124.84,168.92Zm10.3.34a.9.9,0,0,1-.39-.2A1.45,1.45,0,0,1,135.14,169.26Zm29.26-1.62h0C164.08,167.6,164.18,167.62,164.4,167.64Zm.63,0c.07,0,.06,0,0-.05a.8.8,0,0,1-.35,0S164.84,167.71,165,167.68Zm-66.79,1.76.12.05C98.07,169.49,98.15,169.47,98.24,169.44Z" transform="translate(-73.94 -167.14)"/><path class="cls-1" d="M134,168.93a.1.1,0,0,1,0-.08C133.88,168.85,133.87,168.87,134,168.93Z" transform="translate(-73.94 -167.14)"/><path class="cls-1" d="M113.62,171.72h0a0,0,0,0,0,0,0Z" transform="translate(-73.94 -167.14)"/><path class="cls-1" d="M155.22,169a.9.9,0,0,1-.25,0S155,169,155.22,169Z" transform="translate(-73.94 -167.14)"/><path class="cls-1" d="M168.41,167.44l-.41,0a1.46,1.46,0,0,1,.37,0S168.28,167.44,168.41,167.44Z" transform="translate(-73.94 -167.14)"/><path class="cls-1" d="M172,168.15a1.23,1.23,0,0,1,.19,0l0-.06C171.88,168.08,171.7,168.12,172,168.15Z" transform="translate(-73.94 -167.14)"/><path class="cls-1" d="M168.79,167.83c0,.11.29.07.58,0h-.05C169.4,167.73,169.1,167.78,168.79,167.83Z" transform="translate(-73.94 -167.14)"/><path class="cls-1" d="M169.43,167.87h.27C169.73,167.81,169.59,167.86,169.43,167.87Z" transform="translate(-73.94 -167.14)"/><path class="cls-1" d="M165.84,167.6c.14,0,.09-.13.16-.09C166.15,167.38,165.1,167.68,165.84,167.6Z" transform="translate(-73.94 -167.14)"/><polygon class="cls-1" points="95.09 1.02 94.98 0.9 94.83 1 95.09 1.02"/><path class="cls-1" d="M166.77,168.1l.46,0s.05,0,.12,0C167.07,168.08,166.76,168.06,166.77,168.1Z" transform="translate(-73.94 -167.14)"/><path class="cls-1" d="M167.35,168.09a1.9,1.9,0,0,0,.37,0A2.73,2.73,0,0,0,167.35,168.09Z" transform="translate(-73.94 -167.14)"/><polygon class="cls-1" points="94.46 1.07 94.33 1.04 94 1.04 94.46 1.07"/><path class="cls-1" d="M161.86,168.13l-.5,0c-.05.05.08.07.27.05S161.93,168.17,161.86,168.13Z" transform="translate(-73.94 -167.14)"/><path class="cls-1" d="M163.37,168.46a.5.5,0,0,1-.22-.1l0,.16Z" transform="translate(-73.94 -167.14)"/><path class="cls-1" d="M161.91,168.51s-.72.13-.09.11C161.87,168.58,162.37,168.54,161.91,168.51Z" transform="translate(-73.94 -167.14)"/><polygon class="cls-1" points="80.48 1.5 80.6 1.48 80.56 1.23 80.48 1.5"/><path class="cls-1" d="M148.2,170.77c.57-.13.08-.2.61-.29.11-.1-.43.08-.32,0C148.18,170.64,148,170.66,148.2,170.77Z" transform="translate(-73.94 -167.14)"/><path class="cls-1" d="M148.49,170.46l.16-.09Z" transform="translate(-73.94 -167.14)"/><polygon class="cls-1" points="1.03 1.64 0.64 1.63 0.9 1.68 1.03 1.64"/><path class="cls-1" d="M74.26,169.05l-.11-.15-.21.18A.89.89,0,0,1,74.26,169.05Z" transform="translate(-73.94 -167.14)"/><path class="cls-1" d="M125.92,169l0,0a.58.58,0,0,0-.32,0Z" transform="translate(-73.94 -167.14)"/><polygon class="cls-1" points="47.01 2.97 47.09 2.95 46.89 2.85 47.01 2.97"/><path class="cls-1" d="M116.77,171.38c.18,0,.38-.11.55-.15C117,171.35,116.68,171.21,116.77,171.38Z" transform="translate(-73.94 -167.14)"/></svg>